M48
; DRILL file {KiCad 6.0.0+dfsg1-2} date ti 11. tammikuuta 2022 21.34.22
; FORMAT={-:-/ absolute / inch / decimal}
; #@! TF.CreationDate,2022-01-11T21:34:22+02:00
; #@! TF.GenerationSoftware,Kicad,Pcbnew,6.0.0+dfsg1-2
; #@! TF.FileFunction,Plated,1,2,PTH
FMAT,2
INCH
; #@! TA.AperFunction,Plated,PTH,ViaDrill
T1C0.0157
; #@! TA.AperFunction,Plated,PTH,ComponentDrill
T2C0.0315
; #@! TA.AperFunction,Plated,PTH,ComponentDrill
T3C0.0354
; #@! TA.AperFunction,Plated,PTH,ComponentDrill
T4C0.0394
; #@! TA.AperFunction,Plated,PTH,ComponentDrill
T5C0.0433
; #@! TA.AperFunction,Plated,PTH,ComponentDrill
T6C0.0551
%
G90
G05
T1
X5.3297Y-4.2766
X6.1043Y-4.4902
T2
X4.9862Y-3.7756
X5.003Y-3.9303
X5.003Y-4.2303
X5.0699Y-4.3967
X5.0846Y-3.7756
X5.1122Y-4.0246
X5.1124Y-4.1447
X5.1683Y-4.3967
X5.3508Y-3.6764
X5.4122Y-4.0246
X5.4124Y-4.1447
X5.6508Y-3.6764
X5.7451Y-4.2972
X5.7451Y-4.4173
X5.815Y-4.0531
X5.8829Y-3.7352
X5.9134Y-4.0531
X6.0451Y-4.2972
X6.0451Y-4.4173
X6.0482Y-3.8937
X6.0482Y-4.1937
X6.0797Y-3.7352
T3
X5.4445Y-3.5744
X5.5445Y-3.5744
T4
X5.2593Y-3.8504
X5.3593Y-3.8504
X5.4593Y-3.8504
X5.5073Y-4.0974
X5.6073Y-3.9974
X5.6244Y-3.8543
X5.7073Y-4.0974
X5.7244Y-3.8543
X5.8244Y-3.8543
T5
X4.8504Y-4.3791
X4.8504Y-4.4791
X4.8705Y-3.872
X4.8705Y-4.272
X5.3461Y-4.4567
X5.4437Y-3.3713
X5.4461Y-4.4567
X5.5437Y-3.3713
X5.5461Y-4.4567
X5.6461Y-4.4567
T6
X4.8795Y-3.4236
X4.8795Y-3.5524
X5.0795Y-3.4236
X5.0795Y-3.5524
X5.2795Y-3.4236
X5.2795Y-3.5524
X5.7083Y-3.4236
X5.7083Y-3.5524
X5.9083Y-3.4236
X5.9083Y-3.5524
X6.1083Y-3.4236
X6.1083Y-3.5524
T0
M30
