%TF.GenerationSoftware,KiCad,Pcbnew,(5.99.0-7619-gacfbcb4beb)*%
%TF.CreationDate,2020-12-17T10:45:10+02:00*%
%TF.ProjectId,sesenta-y-nueve,73657365-6e74-4612-9d79-2d6e75657665,rev?*%
%TF.SameCoordinates,Original*%
%TF.FileFunction,Copper,L1,Top*%
%TF.FilePolarity,Positive*%
%FSLAX46Y46*%
G04 Gerber Fmt 4.6, Leading zero omitted, Abs format (unit mm)*
G04 Created by KiCad (PCBNEW (5.99.0-7619-gacfbcb4beb)) date 2020-12-17 10:45:10*
%MOMM*%
%LPD*%
G01*
G04 APERTURE LIST*
%TA.AperFunction,ComponentPad*%
%ADD10R,2.540000X2.540000*%
%TD*%
%TA.AperFunction,ComponentPad*%
%ADD11O,2.540000X2.540000*%
%TD*%
%TA.AperFunction,ComponentPad*%
%ADD12R,1.930400X1.930400*%
%TD*%
%TA.AperFunction,ComponentPad*%
%ADD13O,1.930400X1.930400*%
%TD*%
%TA.AperFunction,ComponentPad*%
%ADD14C,1.600000*%
%TD*%
%TA.AperFunction,ComponentPad*%
%ADD15O,1.600000X1.600000*%
%TD*%
%TA.AperFunction,ComponentPad*%
%ADD16R,2.200000X2.200000*%
%TD*%
%TA.AperFunction,ComponentPad*%
%ADD17O,2.200000X2.200000*%
%TD*%
%TA.AperFunction,ComponentPad*%
%ADD18R,1.600000X1.600000*%
%TD*%
%TA.AperFunction,ComponentPad*%
%ADD19R,1.800000X1.800000*%
%TD*%
%TA.AperFunction,ComponentPad*%
%ADD20C,1.800000*%
%TD*%
%TA.AperFunction,ViaPad*%
%ADD21C,0.800000*%
%TD*%
%TA.AperFunction,Conductor*%
%ADD22C,0.380000*%
%TD*%
G04 APERTURE END LIST*
D10*
%TO.P,RV5,1,1*%
%TO.N,GND*%
X155150000Y-86960000D03*
D11*
%TO.P,RV5,2,2*%
%TO.N,OUT*%
X150070000Y-86960000D03*
%TO.P,RV5,3,3*%
%TO.N,Net-(C4-Pad2)*%
X144990000Y-86960000D03*
%TD*%
D12*
%TO.P,J2,1,Pin_1*%
%TO.N,+9V*%
X123200000Y-113770000D03*
D13*
%TO.P,J2,2,Pin_2*%
%TO.N,GND*%
X123200000Y-111230000D03*
%TD*%
D14*
%TO.P,R4,1*%
%TO.N,LED-*%
X129850000Y-102225000D03*
D15*
%TO.P,R4,2*%
%TO.N,Net-(D2-Pad1)*%
X137470000Y-102225000D03*
%TD*%
D10*
%TO.P,RV2,1,1*%
%TO.N,GND*%
X134100000Y-86960000D03*
D11*
%TO.P,RV2,2,2*%
%TO.N,Net-(C3-Pad1)*%
X129020000Y-86960000D03*
%TO.P,RV2,3,3*%
%TO.N,Net-(Q2-Pad1)*%
X123940000Y-86960000D03*
%TD*%
D12*
%TO.P,J1,1,Pin_1*%
%TO.N,IN*%
X135790000Y-113200000D03*
D13*
%TO.P,J1,2,Pin_2*%
%TO.N,GND*%
X138330000Y-113200000D03*
%TO.P,J1,3,Pin_3*%
%TO.N,LED-*%
X140870000Y-113200000D03*
%TO.P,J1,4,Pin_4*%
%TO.N,OUT*%
X143410000Y-113200000D03*
%TD*%
D10*
%TO.P,RV1,1,1*%
%TO.N,IN*%
X144990000Y-90230000D03*
D11*
%TO.P,RV1,2,2*%
X150070000Y-90230000D03*
%TO.P,RV1,3,3*%
%TO.N,Net-(C1-Pad2)*%
X155150000Y-90230000D03*
%TD*%
D12*
%TO.P,J3,1,Pin_1*%
%TO.N,+9V*%
X138270000Y-85630000D03*
D13*
%TO.P,J3,2,Pin_2*%
%TO.N,GND*%
X140810000Y-85630000D03*
%TD*%
D14*
%TO.P,R7,1*%
%TO.N,OUT*%
X145925000Y-112200000D03*
D15*
%TO.P,R7,2*%
%TO.N,GND*%
X153545000Y-112200000D03*
%TD*%
D16*
%TO.P,D1,1,K*%
%TO.N,VCC*%
X123710000Y-98350000D03*
D17*
%TO.P,D1,2,A*%
%TO.N,+9V*%
X123710000Y-108510000D03*
%TD*%
D14*
%TO.P,R5,1*%
%TO.N,Net-(C4-Pad1)*%
X153625000Y-98900000D03*
D15*
%TO.P,R5,2*%
%TO.N,Net-(R5-Pad2)*%
X153625000Y-106520000D03*
%TD*%
D14*
%TO.P,R2,1*%
%TO.N,Net-(Q1-Pad2)*%
X137475000Y-105275000D03*
D15*
%TO.P,R2,2*%
%TO.N,Net-(Q2-Pad1)*%
X129855000Y-105275000D03*
%TD*%
D18*
%TO.P,C3,1*%
%TO.N,Net-(C3-Pad1)*%
X129150000Y-95900000D03*
D14*
%TO.P,C3,2*%
%TO.N,GND*%
X126650000Y-95900000D03*
%TD*%
D10*
%TO.P,RV4,1,1*%
%TO.N,VCC*%
X123940000Y-90230000D03*
D11*
%TO.P,RV4,2,2*%
X129020000Y-90230000D03*
%TO.P,RV4,3,3*%
%TO.N,Net-(R6-Pad1)*%
X134100000Y-90230000D03*
%TD*%
D13*
%TO.P,RV3,1,1*%
%TO.N,Net-(Q2-Pad3)*%
X139885000Y-104075000D03*
%TO.P,RV3,2,2*%
X142425000Y-101535000D03*
%TO.P,RV3,3,3*%
%TO.N,Net-(R5-Pad2)*%
X144965000Y-104075000D03*
%TD*%
D18*
%TO.P,C1,1*%
%TO.N,Net-(Q1-Pad2)*%
X147700000Y-102950000D03*
D14*
%TO.P,C1,2*%
%TO.N,Net-(C1-Pad2)*%
X150200000Y-102950000D03*
%TD*%
D18*
%TO.P,C2,1*%
%TO.N,VCC*%
X128775000Y-111675000D03*
D14*
%TO.P,C2,2*%
%TO.N,GND*%
X131275000Y-111675000D03*
%TD*%
%TO.P,R1,1*%
%TO.N,IN*%
X145925000Y-109150000D03*
D15*
%TO.P,R1,2*%
%TO.N,GND*%
X153545000Y-109150000D03*
%TD*%
D14*
%TO.P,R3,1*%
%TO.N,VCC*%
X127075000Y-107450000D03*
D15*
%TO.P,R3,2*%
%TO.N,Net-(Q1-Pad3)*%
X127075000Y-99830000D03*
%TD*%
D12*
%TO.P,Q1,1,E*%
%TO.N,GND*%
X142860000Y-97900000D03*
D13*
%TO.P,Q1,2,B*%
%TO.N,Net-(Q1-Pad2)*%
X145400000Y-97900000D03*
%TO.P,Q1,3,C*%
%TO.N,Net-(Q1-Pad3)*%
X147940000Y-97900000D03*
%TD*%
D14*
%TO.P,C4,1*%
%TO.N,Net-(C4-Pad1)*%
X149425000Y-94875000D03*
%TO.P,C4,2*%
%TO.N,Net-(C4-Pad2)*%
X154425000Y-94875000D03*
%TD*%
%TO.P,R6,1*%
%TO.N,Net-(R6-Pad1)*%
X135910000Y-93380000D03*
D15*
%TO.P,R6,2*%
%TO.N,Net-(C4-Pad1)*%
X143530000Y-93380000D03*
%TD*%
D12*
%TO.P,Q2,1,E*%
%TO.N,Net-(Q2-Pad1)*%
X133585000Y-97800000D03*
D13*
%TO.P,Q2,2,B*%
%TO.N,Net-(Q1-Pad3)*%
X136125000Y-97800000D03*
%TO.P,Q2,3,C*%
%TO.N,Net-(Q2-Pad3)*%
X138665000Y-97800000D03*
%TD*%
D19*
%TO.P,D2,1,K*%
%TO.N,Net-(D2-Pad1)*%
X138290000Y-90790000D03*
D20*
%TO.P,D2,2,A*%
%TO.N,+9V*%
X140830000Y-90790000D03*
%TD*%
D21*
%TO.N,GND*%
X155050000Y-114050000D03*
X135375000Y-108625000D03*
%TD*%
D22*
%TO.N,LED-*%
X132465001Y-104840001D02*
X132465001Y-110815001D01*
X140870000Y-113200000D02*
X139514799Y-114555201D01*
X132465001Y-112507403D02*
X132465001Y-110815001D01*
X139514799Y-114555201D02*
X134512799Y-114555201D01*
X134512799Y-114555201D02*
X132465001Y-112507403D01*
%TO.N,OUT*%
X145925000Y-112200000D02*
X147115001Y-113390001D01*
X147115001Y-113390001D02*
X154116201Y-113390001D01*
X154116201Y-113390001D02*
X155615001Y-111891201D01*
X155615001Y-111891201D02*
X155615001Y-93151803D01*
X155615001Y-93151803D02*
X150070000Y-87606802D01*
X150070000Y-87606802D02*
X150070000Y-86960000D01*
X143420000Y-113270000D02*
X144855000Y-113270000D01*
X144855000Y-113270000D02*
X145925000Y-112200000D01*
%TO.N,IN*%
X148890001Y-102384999D02*
X148890001Y-104290001D01*
X145925000Y-109150000D02*
X148890001Y-106184999D01*
X148890001Y-106184999D02*
X148890001Y-104290001D01*
X145925000Y-109150000D02*
X139920000Y-109150000D01*
X139920000Y-109150000D02*
X135800000Y-113270000D01*
%TO.N,Net-(Q1-Pad2)*%
X137475000Y-105275000D02*
X137630201Y-105430201D01*
X137630201Y-105430201D02*
X141604101Y-105430201D01*
X141604101Y-105430201D02*
X144314503Y-102719799D01*
X144314503Y-102719799D02*
X147469799Y-102719799D01*
X147469799Y-102719799D02*
X147700000Y-102950000D01*
%TO.N,LED-*%
X129850000Y-102225000D02*
X132465001Y-104840001D01*
%TO.N,Net-(Q2-Pad1)*%
X129855000Y-105275000D02*
X128650000Y-104070000D01*
X128650000Y-104070000D02*
X128650000Y-101663798D01*
X128650000Y-101663798D02*
X132513798Y-97800000D01*
X132513798Y-97800000D02*
X133585000Y-97800000D01*
%TO.N,IN*%
X154815001Y-100096201D02*
X153768101Y-101143101D01*
X153768101Y-101143101D02*
X150131899Y-101143101D01*
X150131899Y-101143101D02*
X148890001Y-102384999D01*
X153175000Y-93335000D02*
X153175000Y-96688798D01*
X153175000Y-96688798D02*
X154815001Y-98328799D01*
X154815001Y-98328799D02*
X154815001Y-100096201D01*
%TO.N,Net-(C4-Pad1)*%
X153625000Y-98900000D02*
X153450000Y-98900000D01*
X153450000Y-98900000D02*
X149425000Y-94875000D01*
%TO.N,Net-(Q1-Pad2)*%
X147700000Y-102950000D02*
X147700000Y-100500000D01*
X147700000Y-100500000D02*
X147700000Y-100200000D01*
X147700000Y-100200000D02*
X145400000Y-97900000D01*
%TO.N,IN*%
X153175000Y-93335000D02*
X150070000Y-90230000D01*
%TO.N,Net-(C4-Pad1)*%
X149425000Y-94875000D02*
X147930000Y-93380000D01*
X147930000Y-93380000D02*
X143530000Y-93380000D01*
%TO.N,Net-(Q2-Pad3)*%
X142425000Y-101535000D02*
X142400000Y-101535000D01*
X142400000Y-101535000D02*
X138665000Y-97800000D01*
X139885000Y-104075000D02*
X142425000Y-101535000D01*
%TO.N,VCC*%
X127075000Y-107450000D02*
X123710000Y-104085000D01*
X123710000Y-104085000D02*
X123710000Y-98350000D01*
X128775000Y-111675000D02*
X127075000Y-109975000D01*
X127075000Y-109975000D02*
X127075000Y-107450000D01*
%TO.N,Net-(Q1-Pad3)*%
X147940000Y-97900000D02*
X146484799Y-96444799D01*
X146484799Y-96444799D02*
X137480201Y-96444799D01*
X137480201Y-96444799D02*
X136125000Y-97800000D01*
%TO.N,Net-(Q2-Pad1)*%
X133585000Y-92485000D02*
X131900000Y-90800000D01*
X133585000Y-97800000D02*
X133585000Y-92485000D01*
X129816801Y-85299999D02*
X131108401Y-86591599D01*
X131900000Y-90800000D02*
X131900000Y-87383198D01*
X131900000Y-87383198D02*
X131108401Y-86591599D01*
%TO.N,Net-(C3-Pad1)*%
X130680001Y-90994999D02*
X130680001Y-88620001D01*
X129150000Y-95900000D02*
X129150000Y-92525000D01*
X129150000Y-92525000D02*
X130680001Y-90994999D01*
X130680001Y-88620001D02*
X129020000Y-86960000D01*
%TO.N,VCC*%
X123940000Y-90230000D02*
X129020000Y-90230000D01*
X123710000Y-98350000D02*
X123940000Y-98120000D01*
X123940000Y-98120000D02*
X123940000Y-90230000D01*
%TO.N,+9V*%
X124555201Y-109355201D02*
X123710000Y-108510000D01*
X123710000Y-108510000D02*
X122219990Y-107019990D01*
X122219990Y-107019990D02*
X122219990Y-86223208D01*
X124555201Y-112414799D02*
X124555201Y-109355201D01*
X123200000Y-113770000D02*
X124555201Y-112414799D01*
X138270000Y-85630000D02*
X140830000Y-88190000D01*
X122219990Y-86223208D02*
X123723209Y-84719989D01*
X123723209Y-84719989D02*
X137359989Y-84719989D01*
X137359989Y-84719989D02*
X138270000Y-85630000D01*
X140830000Y-88190000D02*
X140830000Y-90790000D01*
%TO.N,IN*%
X144990000Y-90230000D02*
X150070000Y-90230000D01*
%TO.N,Net-(Q2-Pad1)*%
X123940000Y-86960000D02*
X125600001Y-85299999D01*
X125600001Y-85299999D02*
X129816801Y-85299999D01*
%TO.N,Net-(R6-Pad1)*%
X135910000Y-92040000D02*
X134100000Y-90230000D01*
X135910000Y-93380000D02*
X135910000Y-92040000D01*
%TD*%
%TA.AperFunction,Conductor*%
%TO.N,GND*%
G36*
X127369017Y-90948502D02*
G01*
X127411887Y-90994861D01*
X127515811Y-91188274D01*
X127518606Y-91192017D01*
X127518608Y-91192020D01*
X127671183Y-91396343D01*
X127671188Y-91396349D01*
X127673975Y-91400081D01*
X127677284Y-91403361D01*
X127677289Y-91403367D01*
X127848489Y-91573079D01*
X127861709Y-91586184D01*
X127865471Y-91588942D01*
X127865474Y-91588945D01*
X128045815Y-91721176D01*
X128074889Y-91742494D01*
X128079032Y-91744674D01*
X128079034Y-91744675D01*
X128304681Y-91863394D01*
X128304686Y-91863396D01*
X128308831Y-91865577D01*
X128313254Y-91867122D01*
X128313255Y-91867122D01*
X128512060Y-91936548D01*
X128569778Y-91977890D01*
X128595981Y-92043874D01*
X128582351Y-92113550D01*
X128569678Y-92133242D01*
X128548252Y-92160568D01*
X128545126Y-92167491D01*
X128543256Y-92170579D01*
X128536086Y-92183149D01*
X128534372Y-92186346D01*
X128530004Y-92192561D01*
X128527243Y-92199643D01*
X128507150Y-92251179D01*
X128504598Y-92257252D01*
X128478692Y-92314626D01*
X128477307Y-92322095D01*
X128476228Y-92325539D01*
X128472270Y-92339432D01*
X128471361Y-92342972D01*
X128468603Y-92350047D01*
X128467612Y-92357578D01*
X128467611Y-92357580D01*
X128460390Y-92412430D01*
X128459358Y-92418944D01*
X128449273Y-92473360D01*
X128447889Y-92480828D01*
X128448326Y-92488408D01*
X128448326Y-92488409D01*
X128451292Y-92539847D01*
X128451501Y-92547100D01*
X128451500Y-94461930D01*
X128431498Y-94530051D01*
X128377842Y-94576544D01*
X128334490Y-94587609D01*
X128283659Y-94591245D01*
X128283658Y-94591245D01*
X128276921Y-94591727D01*
X128223884Y-94607300D01*
X128145330Y-94630365D01*
X128145328Y-94630366D01*
X128136684Y-94632904D01*
X128129105Y-94637775D01*
X128021309Y-94707051D01*
X128021306Y-94707053D01*
X128013729Y-94711923D01*
X128007828Y-94718733D01*
X127923918Y-94815569D01*
X127923916Y-94815572D01*
X127918016Y-94822381D01*
X127857300Y-94955330D01*
X127856018Y-94964245D01*
X127856018Y-94964246D01*
X127841334Y-95066378D01*
X127811841Y-95130959D01*
X127771398Y-95156950D01*
X127772861Y-95159733D01*
X127723570Y-95185641D01*
X127022021Y-95887189D01*
X127014408Y-95901132D01*
X127014539Y-95902966D01*
X127018790Y-95909580D01*
X127724294Y-96615083D01*
X127767621Y-96638741D01*
X127774182Y-96640168D01*
X127824390Y-96690364D01*
X127839488Y-96741772D01*
X127841727Y-96773079D01*
X127882904Y-96913316D01*
X127887775Y-96920895D01*
X127957051Y-97028691D01*
X127957053Y-97028694D01*
X127961923Y-97036271D01*
X127968733Y-97042172D01*
X128065569Y-97126082D01*
X128065572Y-97126084D01*
X128072381Y-97131984D01*
X128080579Y-97135728D01*
X128188623Y-97185070D01*
X128205330Y-97192700D01*
X128214245Y-97193982D01*
X128214246Y-97193982D01*
X128345552Y-97212861D01*
X128345559Y-97212862D01*
X128350000Y-97213500D01*
X129950000Y-97213500D01*
X130023079Y-97208273D01*
X130129855Y-97176921D01*
X130154670Y-97169635D01*
X130154672Y-97169634D01*
X130163316Y-97167096D01*
X130227135Y-97126082D01*
X130278691Y-97092949D01*
X130278694Y-97092947D01*
X130286271Y-97088077D01*
X130326048Y-97042172D01*
X130376082Y-96984431D01*
X130376084Y-96984428D01*
X130381984Y-96977619D01*
X130421025Y-96892132D01*
X130438958Y-96852864D01*
X130438958Y-96852863D01*
X130442700Y-96844670D01*
X130446532Y-96818016D01*
X130462861Y-96704448D01*
X130462862Y-96704441D01*
X130463500Y-96700000D01*
X130463500Y-95100000D01*
X130458273Y-95026921D01*
X130417096Y-94886684D01*
X130371393Y-94815569D01*
X130342949Y-94771309D01*
X130342947Y-94771306D01*
X130338077Y-94763729D01*
X130331267Y-94757828D01*
X130234431Y-94673918D01*
X130234428Y-94673916D01*
X130227619Y-94668016D01*
X130094670Y-94607300D01*
X130085756Y-94606018D01*
X130085748Y-94606016D01*
X129956568Y-94587443D01*
X129891987Y-94557950D01*
X129853604Y-94498224D01*
X129848500Y-94462726D01*
X129848500Y-92866517D01*
X129868502Y-92798396D01*
X129885405Y-92777422D01*
X130503757Y-92159071D01*
X131155055Y-91507773D01*
X131161321Y-91501919D01*
X131165164Y-91498567D01*
X131202803Y-91465732D01*
X131238996Y-91414234D01*
X131242911Y-91408964D01*
X131277470Y-91364891D01*
X131335244Y-91323627D01*
X131406155Y-91320149D01*
X131465717Y-91353544D01*
X132158019Y-92045847D01*
X132849596Y-92737424D01*
X132883622Y-92799736D01*
X132886501Y-92826519D01*
X132886500Y-96195300D01*
X132866498Y-96263421D01*
X132812842Y-96309914D01*
X132760500Y-96321300D01*
X132619800Y-96321300D01*
X132546721Y-96326527D01*
X132493684Y-96342100D01*
X132415130Y-96365165D01*
X132415128Y-96365166D01*
X132406484Y-96367704D01*
X132398905Y-96372575D01*
X132291109Y-96441851D01*
X132291106Y-96441853D01*
X132283529Y-96446723D01*
X132277628Y-96453533D01*
X132193718Y-96550369D01*
X132193716Y-96550372D01*
X132187816Y-96557181D01*
X132184072Y-96565379D01*
X132137043Y-96668359D01*
X132127100Y-96690130D01*
X132125818Y-96699045D01*
X132125818Y-96699046D01*
X132106939Y-96830352D01*
X132106938Y-96830359D01*
X132106300Y-96834800D01*
X132106300Y-97166325D01*
X132086298Y-97234446D01*
X132059626Y-97261956D01*
X132060522Y-97262972D01*
X132054824Y-97267996D01*
X132048565Y-97272297D01*
X132043515Y-97277965D01*
X132043514Y-97277966D01*
X132009228Y-97316448D01*
X132004246Y-97321724D01*
X128174956Y-101151015D01*
X128168691Y-101156869D01*
X128127199Y-101193065D01*
X128091009Y-101244558D01*
X128087098Y-101249824D01*
X128048252Y-101299366D01*
X128045126Y-101306289D01*
X128043256Y-101309377D01*
X128036086Y-101321947D01*
X128034372Y-101325144D01*
X128030004Y-101331359D01*
X128027243Y-101338441D01*
X128007150Y-101389977D01*
X128004598Y-101396050D01*
X127978692Y-101453424D01*
X127977307Y-101460893D01*
X127976228Y-101464337D01*
X127972270Y-101478230D01*
X127971361Y-101481770D01*
X127968603Y-101488845D01*
X127967612Y-101496376D01*
X127967611Y-101496378D01*
X127960390Y-101551228D01*
X127959358Y-101557742D01*
X127950807Y-101603882D01*
X127947889Y-101619626D01*
X127948326Y-101627206D01*
X127948326Y-101627207D01*
X127951292Y-101678644D01*
X127951501Y-101685897D01*
X127951500Y-104043341D01*
X127951208Y-104051910D01*
X127948622Y-104089850D01*
X127947465Y-104106818D01*
X127948770Y-104114294D01*
X127948770Y-104114297D01*
X127958281Y-104168791D01*
X127959244Y-104175317D01*
X127965892Y-104230256D01*
X127965895Y-104230266D01*
X127966807Y-104237807D01*
X127969493Y-104244915D01*
X127970358Y-104248437D01*
X127974169Y-104262366D01*
X127975221Y-104265849D01*
X127976527Y-104273334D01*
X127979580Y-104280289D01*
X128001816Y-104330943D01*
X128004309Y-104337052D01*
X128016653Y-104369719D01*
X128026556Y-104395928D01*
X128030859Y-104402188D01*
X128032533Y-104405391D01*
X128039554Y-104418007D01*
X128041417Y-104421156D01*
X128044469Y-104428110D01*
X128082781Y-104478038D01*
X128086645Y-104483358D01*
X128112637Y-104521176D01*
X128122297Y-104535232D01*
X128127967Y-104540284D01*
X128127968Y-104540285D01*
X128166432Y-104574555D01*
X128171709Y-104579536D01*
X128527125Y-104934953D01*
X128561150Y-104997265D01*
X128562088Y-105044551D01*
X128561455Y-105046913D01*
X128560977Y-105052378D01*
X128560976Y-105052383D01*
X128541988Y-105269421D01*
X128541500Y-105275000D01*
X128561455Y-105503087D01*
X128562879Y-105508400D01*
X128562879Y-105508402D01*
X128572230Y-105543298D01*
X128620714Y-105724243D01*
X128623036Y-105729224D01*
X128623037Y-105729225D01*
X128715150Y-105926763D01*
X128715153Y-105926768D01*
X128717476Y-105931750D01*
X128720632Y-105936257D01*
X128720633Y-105936259D01*
X128842183Y-106109850D01*
X128848801Y-106119302D01*
X129010698Y-106281199D01*
X129015206Y-106284356D01*
X129015209Y-106284358D01*
X129193741Y-106409367D01*
X129198250Y-106412524D01*
X129203232Y-106414847D01*
X129203237Y-106414850D01*
X129400775Y-106506963D01*
X129405757Y-106509286D01*
X129411065Y-106510708D01*
X129411067Y-106510709D01*
X129621598Y-106567121D01*
X129621600Y-106567121D01*
X129626913Y-106568545D01*
X129855000Y-106588500D01*
X130083087Y-106568545D01*
X130088400Y-106567121D01*
X130088402Y-106567121D01*
X130298933Y-106510709D01*
X130298935Y-106510708D01*
X130304243Y-106509286D01*
X130309225Y-106506963D01*
X130506763Y-106414850D01*
X130506768Y-106414847D01*
X130511750Y-106412524D01*
X130516259Y-106409367D01*
X130694791Y-106284358D01*
X130694794Y-106284356D01*
X130699302Y-106281199D01*
X130861199Y-106119302D01*
X130867818Y-106109850D01*
X130989367Y-105936259D01*
X130989368Y-105936257D01*
X130992524Y-105931750D01*
X130994847Y-105926768D01*
X130994850Y-105926763D01*
X131086963Y-105729225D01*
X131086964Y-105729224D01*
X131089286Y-105724243D01*
X131137771Y-105543298D01*
X131147121Y-105508402D01*
X131147121Y-105508400D01*
X131148545Y-105503087D01*
X131168500Y-105275000D01*
X131148545Y-105046913D01*
X131145895Y-105037023D01*
X131090709Y-104831067D01*
X131090708Y-104831065D01*
X131089286Y-104825757D01*
X131064814Y-104773276D01*
X131054153Y-104703086D01*
X131083133Y-104638273D01*
X131142552Y-104599416D01*
X131213547Y-104598853D01*
X131268104Y-104630932D01*
X131729596Y-105092424D01*
X131763622Y-105154736D01*
X131766501Y-105181519D01*
X131766502Y-107930818D01*
X131766502Y-110288346D01*
X131746500Y-110356467D01*
X131692844Y-110402960D01*
X131622570Y-110413064D01*
X131607890Y-110410052D01*
X131508320Y-110383372D01*
X131497523Y-110381468D01*
X131280475Y-110362479D01*
X131269525Y-110362479D01*
X131052477Y-110381468D01*
X131041690Y-110383370D01*
X130831239Y-110439761D01*
X130820943Y-110443509D01*
X130623487Y-110535583D01*
X130613992Y-110541066D01*
X130561950Y-110577506D01*
X130553574Y-110587985D01*
X130560642Y-110601431D01*
X131545115Y-111585905D01*
X131579141Y-111648217D01*
X131574076Y-111719033D01*
X131545115Y-111764095D01*
X131275000Y-112034210D01*
X130559921Y-112749290D01*
X130553491Y-112761065D01*
X130562787Y-112773080D01*
X130613992Y-112808934D01*
X130623487Y-112814417D01*
X130820943Y-112906491D01*
X130831239Y-112910239D01*
X131041690Y-112966630D01*
X131052477Y-112968532D01*
X131269525Y-112987521D01*
X131280475Y-112987521D01*
X131497523Y-112968532D01*
X131508310Y-112966630D01*
X131718761Y-112910239D01*
X131729062Y-112906490D01*
X131755660Y-112894087D01*
X131825852Y-112883426D01*
X131890664Y-112912407D01*
X131912747Y-112936912D01*
X131937298Y-112972635D01*
X131942968Y-112977687D01*
X131942969Y-112977688D01*
X131981442Y-113011966D01*
X131986718Y-113016947D01*
X133496675Y-114526905D01*
X133530701Y-114589217D01*
X133525636Y-114660033D01*
X133483089Y-114716868D01*
X133416569Y-114741679D01*
X133407580Y-114742000D01*
X124804700Y-114742000D01*
X124736579Y-114721998D01*
X124690086Y-114668342D01*
X124678700Y-114616000D01*
X124678700Y-113331318D01*
X124698702Y-113263197D01*
X124715605Y-113242223D01*
X125030255Y-112927573D01*
X125036521Y-112921719D01*
X125072276Y-112890528D01*
X125078003Y-112885532D01*
X125114189Y-112834045D01*
X125118115Y-112828759D01*
X125137770Y-112803691D01*
X125156949Y-112779231D01*
X125160075Y-112772307D01*
X125161955Y-112769203D01*
X125169119Y-112756643D01*
X125170828Y-112753456D01*
X125175198Y-112747238D01*
X125198056Y-112688610D01*
X125200610Y-112682534D01*
X125223382Y-112632100D01*
X125223383Y-112632098D01*
X125226509Y-112625174D01*
X125227893Y-112617705D01*
X125228982Y-112614231D01*
X125232932Y-112600364D01*
X125233840Y-112596830D01*
X125236599Y-112589752D01*
X125244812Y-112527364D01*
X125245842Y-112520859D01*
X125248110Y-112508622D01*
X125257313Y-112458972D01*
X125255589Y-112429065D01*
X125253910Y-112399958D01*
X125253701Y-112392704D01*
X125253701Y-109381859D01*
X125253993Y-109373290D01*
X125257220Y-109325958D01*
X125257220Y-109325954D01*
X125257736Y-109318382D01*
X125256431Y-109310906D01*
X125256431Y-109310901D01*
X125246918Y-109256392D01*
X125245955Y-109249869D01*
X125239307Y-109194939D01*
X125238394Y-109187393D01*
X125235707Y-109180282D01*
X125234838Y-109176745D01*
X125231035Y-109162845D01*
X125229982Y-109159359D01*
X125228675Y-109151866D01*
X125225619Y-109144904D01*
X125223425Y-109137637D01*
X125226183Y-109136804D01*
X125218842Y-109079655D01*
X125226867Y-109051243D01*
X125242634Y-109013177D01*
X125242635Y-109013174D01*
X125244530Y-109008599D01*
X125266760Y-108916002D01*
X125302480Y-108767220D01*
X125302481Y-108767214D01*
X125303635Y-108762407D01*
X125323500Y-108510000D01*
X125303635Y-108257593D01*
X125244530Y-108011401D01*
X125226603Y-107968122D01*
X125149534Y-107782060D01*
X125149532Y-107782056D01*
X125147639Y-107777486D01*
X125015349Y-107561608D01*
X125012138Y-107557848D01*
X125012134Y-107557843D01*
X124854130Y-107372845D01*
X124850917Y-107369083D01*
X124728573Y-107264591D01*
X124662157Y-107207866D01*
X124662152Y-107207862D01*
X124658392Y-107204651D01*
X124442514Y-107072361D01*
X124437944Y-107070468D01*
X124437940Y-107070466D01*
X124213172Y-106977364D01*
X124213170Y-106977363D01*
X124208599Y-106975470D01*
X124123894Y-106955134D01*
X123967220Y-106917520D01*
X123967214Y-106917519D01*
X123962407Y-106916365D01*
X123710000Y-106896500D01*
X123457593Y-106916365D01*
X123452786Y-106917519D01*
X123452780Y-106917520D01*
X123241224Y-106968310D01*
X123170316Y-106964763D01*
X123122715Y-106934887D01*
X122955395Y-106767568D01*
X122921370Y-106705256D01*
X122918490Y-106678472D01*
X122918490Y-104572176D01*
X122938492Y-104504055D01*
X122992148Y-104457562D01*
X123062422Y-104447458D01*
X123127002Y-104476952D01*
X123148330Y-104500810D01*
X123177992Y-104543970D01*
X123177998Y-104543977D01*
X123182297Y-104550232D01*
X123187967Y-104555284D01*
X123187968Y-104555285D01*
X123226441Y-104589563D01*
X123231717Y-104594544D01*
X125747126Y-107109954D01*
X125781151Y-107172264D01*
X125782088Y-107219552D01*
X125781455Y-107221913D01*
X125761500Y-107450000D01*
X125781455Y-107678087D01*
X125782879Y-107683400D01*
X125782879Y-107683402D01*
X125833645Y-107872860D01*
X125840714Y-107899243D01*
X125843036Y-107904224D01*
X125843037Y-107904225D01*
X125935150Y-108101763D01*
X125935153Y-108101768D01*
X125937476Y-108106750D01*
X125940632Y-108111257D01*
X125940633Y-108111259D01*
X125961476Y-108141025D01*
X126068801Y-108294302D01*
X126230698Y-108456199D01*
X126255187Y-108473346D01*
X126322771Y-108520669D01*
X126367100Y-108576126D01*
X126376501Y-108623881D01*
X126376500Y-109310901D01*
X126376500Y-109948340D01*
X126376208Y-109956909D01*
X126373394Y-109998197D01*
X126372465Y-110011818D01*
X126373770Y-110019294D01*
X126373770Y-110019297D01*
X126383281Y-110073791D01*
X126384244Y-110080317D01*
X126390892Y-110135256D01*
X126390895Y-110135266D01*
X126391807Y-110142807D01*
X126394493Y-110149915D01*
X126395358Y-110153437D01*
X126399169Y-110167366D01*
X126400221Y-110170849D01*
X126401527Y-110178334D01*
X126404580Y-110185289D01*
X126426816Y-110235943D01*
X126429309Y-110242052D01*
X126446802Y-110288346D01*
X126451556Y-110300928D01*
X126455859Y-110307188D01*
X126457533Y-110310391D01*
X126464554Y-110323007D01*
X126466417Y-110326156D01*
X126469469Y-110333110D01*
X126507781Y-110383038D01*
X126511645Y-110388358D01*
X126542142Y-110432731D01*
X126547297Y-110440232D01*
X126552967Y-110445284D01*
X126552968Y-110445285D01*
X126591432Y-110479555D01*
X126596709Y-110484536D01*
X127424596Y-111312424D01*
X127458621Y-111374736D01*
X127461500Y-111401519D01*
X127461500Y-112475000D01*
X127466727Y-112548079D01*
X127478963Y-112589752D01*
X127504056Y-112675210D01*
X127507904Y-112688316D01*
X127512775Y-112695895D01*
X127582051Y-112803691D01*
X127582053Y-112803694D01*
X127586923Y-112811271D01*
X127593733Y-112817172D01*
X127690569Y-112901082D01*
X127690572Y-112901084D01*
X127697381Y-112906984D01*
X127705579Y-112910728D01*
X127732274Y-112922919D01*
X127830330Y-112967700D01*
X127839245Y-112968982D01*
X127839246Y-112968982D01*
X127970552Y-112987861D01*
X127970559Y-112987862D01*
X127975000Y-112988500D01*
X129575000Y-112988500D01*
X129648079Y-112983273D01*
X129726165Y-112960345D01*
X129779670Y-112944635D01*
X129779672Y-112944634D01*
X129788316Y-112942096D01*
X129879608Y-112883426D01*
X129903691Y-112867949D01*
X129903694Y-112867947D01*
X129911271Y-112863077D01*
X129923835Y-112848578D01*
X130001082Y-112759431D01*
X130001084Y-112759428D01*
X130006984Y-112752619D01*
X130067700Y-112619670D01*
X130072002Y-112589752D01*
X130083666Y-112508622D01*
X130113159Y-112444041D01*
X130153602Y-112418050D01*
X130152139Y-112415267D01*
X130201430Y-112389359D01*
X130902979Y-111687811D01*
X130910592Y-111673868D01*
X130910461Y-111672034D01*
X130906210Y-111665420D01*
X130200706Y-110959917D01*
X130157379Y-110936259D01*
X130150818Y-110934832D01*
X130100610Y-110884636D01*
X130085512Y-110833227D01*
X130083755Y-110808659D01*
X130083755Y-110808658D01*
X130083273Y-110801921D01*
X130042096Y-110661684D01*
X130017574Y-110623528D01*
X129967949Y-110546309D01*
X129967947Y-110546306D01*
X129963077Y-110538729D01*
X129956267Y-110532828D01*
X129859431Y-110448918D01*
X129859428Y-110448916D01*
X129852619Y-110443016D01*
X129827179Y-110431398D01*
X129727864Y-110386042D01*
X129727863Y-110386042D01*
X129719670Y-110382300D01*
X129710755Y-110381018D01*
X129710754Y-110381018D01*
X129579448Y-110362139D01*
X129579441Y-110362138D01*
X129575000Y-110361500D01*
X128501519Y-110361500D01*
X128433398Y-110341498D01*
X128412424Y-110324596D01*
X127810405Y-109722578D01*
X127776380Y-109660265D01*
X127773500Y-109633482D01*
X127773500Y-108623881D01*
X127793502Y-108555760D01*
X127827230Y-108520668D01*
X127842466Y-108510000D01*
X127919302Y-108456199D01*
X128081199Y-108294302D01*
X128188525Y-108141025D01*
X128209367Y-108111259D01*
X128209368Y-108111257D01*
X128212524Y-108106750D01*
X128214847Y-108101768D01*
X128214850Y-108101763D01*
X128306963Y-107904225D01*
X128306964Y-107904224D01*
X128309286Y-107899243D01*
X128316356Y-107872860D01*
X128367121Y-107683402D01*
X128367121Y-107683400D01*
X128368545Y-107678087D01*
X128388500Y-107450000D01*
X128368545Y-107221913D01*
X128356444Y-107176750D01*
X128310709Y-107006067D01*
X128310708Y-107006065D01*
X128309286Y-107000757D01*
X128298378Y-106977364D01*
X128214850Y-106798237D01*
X128214847Y-106798232D01*
X128212524Y-106793250D01*
X128209367Y-106788741D01*
X128084358Y-106610209D01*
X128084356Y-106610206D01*
X128081199Y-106605698D01*
X127919302Y-106443801D01*
X127914794Y-106440644D01*
X127914791Y-106440642D01*
X127736259Y-106315633D01*
X127736257Y-106315632D01*
X127731750Y-106312476D01*
X127726768Y-106310153D01*
X127726763Y-106310150D01*
X127529225Y-106218037D01*
X127529224Y-106218036D01*
X127524243Y-106215714D01*
X127518935Y-106214292D01*
X127518933Y-106214291D01*
X127308402Y-106157879D01*
X127308400Y-106157879D01*
X127303087Y-106156455D01*
X127075000Y-106136500D01*
X126846913Y-106156455D01*
X126844885Y-106156998D01*
X126775373Y-106149249D01*
X126734955Y-106122127D01*
X124445405Y-103832578D01*
X124411379Y-103770266D01*
X124408500Y-103743483D01*
X124408500Y-100089500D01*
X124428502Y-100021379D01*
X124482158Y-99974886D01*
X124534500Y-99963500D01*
X124810000Y-99963500D01*
X124883079Y-99958273D01*
X124969339Y-99932945D01*
X125014670Y-99919635D01*
X125014672Y-99919634D01*
X125023316Y-99917096D01*
X125090264Y-99874071D01*
X125138691Y-99842949D01*
X125138694Y-99842947D01*
X125146271Y-99838077D01*
X125153269Y-99830000D01*
X125761500Y-99830000D01*
X125781455Y-100058087D01*
X125782879Y-100063400D01*
X125782879Y-100063402D01*
X125825476Y-100222373D01*
X125840714Y-100279243D01*
X125843036Y-100284224D01*
X125843037Y-100284225D01*
X125935150Y-100481763D01*
X125935153Y-100481768D01*
X125937476Y-100486750D01*
X125940632Y-100491257D01*
X125940633Y-100491259D01*
X126060359Y-100662245D01*
X126068801Y-100674302D01*
X126230698Y-100836199D01*
X126235206Y-100839356D01*
X126235209Y-100839358D01*
X126400759Y-100955277D01*
X126418250Y-100967524D01*
X126423232Y-100969847D01*
X126423237Y-100969850D01*
X126603113Y-101053727D01*
X126625757Y-101064286D01*
X126631065Y-101065708D01*
X126631067Y-101065709D01*
X126841598Y-101122121D01*
X126841600Y-101122121D01*
X126846913Y-101123545D01*
X127075000Y-101143500D01*
X127303087Y-101123545D01*
X127308400Y-101122121D01*
X127308402Y-101122121D01*
X127518933Y-101065709D01*
X127518935Y-101065708D01*
X127524243Y-101064286D01*
X127546887Y-101053727D01*
X127726763Y-100969850D01*
X127726768Y-100969847D01*
X127731750Y-100967524D01*
X127749241Y-100955277D01*
X127914791Y-100839358D01*
X127914794Y-100839356D01*
X127919302Y-100836199D01*
X128081199Y-100674302D01*
X128089642Y-100662245D01*
X128209367Y-100491259D01*
X128209368Y-100491257D01*
X128212524Y-100486750D01*
X128214847Y-100481768D01*
X128214850Y-100481763D01*
X128306963Y-100284225D01*
X128306964Y-100284224D01*
X128309286Y-100279243D01*
X128324525Y-100222373D01*
X128367121Y-100063402D01*
X128367121Y-100063400D01*
X128368545Y-100058087D01*
X128388500Y-99830000D01*
X128368545Y-99601913D01*
X128309286Y-99380757D01*
X128306007Y-99373725D01*
X128214850Y-99178237D01*
X128214847Y-99178232D01*
X128212524Y-99173250D01*
X128195796Y-99149360D01*
X128084358Y-98990209D01*
X128084356Y-98990206D01*
X128081199Y-98985698D01*
X127919302Y-98823801D01*
X127914794Y-98820644D01*
X127914791Y-98820642D01*
X127736259Y-98695633D01*
X127736257Y-98695632D01*
X127731750Y-98692476D01*
X127726768Y-98690153D01*
X127726763Y-98690150D01*
X127529225Y-98598037D01*
X127529224Y-98598036D01*
X127524243Y-98595714D01*
X127518935Y-98594292D01*
X127518933Y-98594291D01*
X127308402Y-98537879D01*
X127308400Y-98537879D01*
X127303087Y-98536455D01*
X127075000Y-98516500D01*
X126846913Y-98536455D01*
X126841600Y-98537879D01*
X126841598Y-98537879D01*
X126631067Y-98594291D01*
X126631065Y-98594292D01*
X126625757Y-98595714D01*
X126620776Y-98598036D01*
X126620775Y-98598037D01*
X126423237Y-98690150D01*
X126423232Y-98690153D01*
X126418250Y-98692476D01*
X126413743Y-98695632D01*
X126413741Y-98695633D01*
X126235209Y-98820642D01*
X126235206Y-98820644D01*
X126230698Y-98823801D01*
X126068801Y-98985698D01*
X126065644Y-98990206D01*
X126065642Y-98990209D01*
X125954204Y-99149360D01*
X125937476Y-99173250D01*
X125935153Y-99178232D01*
X125935150Y-99178237D01*
X125843993Y-99373725D01*
X125840714Y-99380757D01*
X125781455Y-99601913D01*
X125761500Y-99830000D01*
X125153269Y-99830000D01*
X125158014Y-99824525D01*
X125236082Y-99734431D01*
X125236084Y-99734428D01*
X125241984Y-99727619D01*
X125302700Y-99594670D01*
X125308869Y-99551763D01*
X125322861Y-99454448D01*
X125322862Y-99454441D01*
X125323500Y-99450000D01*
X125323500Y-97250000D01*
X125318273Y-97176921D01*
X125277096Y-97036684D01*
X125249634Y-96993952D01*
X125244565Y-96986064D01*
X125928490Y-96986064D01*
X125937784Y-96998078D01*
X125988992Y-97033934D01*
X125998487Y-97039417D01*
X126195943Y-97131491D01*
X126206239Y-97135239D01*
X126416690Y-97191630D01*
X126427477Y-97193532D01*
X126644525Y-97212521D01*
X126655475Y-97212521D01*
X126872523Y-97193532D01*
X126883310Y-97191630D01*
X127093761Y-97135239D01*
X127104057Y-97131491D01*
X127301513Y-97039417D01*
X127311008Y-97033934D01*
X127363050Y-96997494D01*
X127371426Y-96987015D01*
X127364359Y-96973570D01*
X126662811Y-96272021D01*
X126648868Y-96264408D01*
X126647034Y-96264539D01*
X126640420Y-96268790D01*
X125934917Y-96974294D01*
X125928490Y-96986064D01*
X125244565Y-96986064D01*
X125202949Y-96921309D01*
X125202947Y-96921306D01*
X125198077Y-96913729D01*
X125191267Y-96907828D01*
X125094431Y-96823918D01*
X125094428Y-96823916D01*
X125087619Y-96818016D01*
X124954670Y-96757300D01*
X124945755Y-96756018D01*
X124945754Y-96756018D01*
X124814448Y-96737139D01*
X124814441Y-96737138D01*
X124810000Y-96736500D01*
X124764500Y-96736500D01*
X124696379Y-96716498D01*
X124649886Y-96662842D01*
X124638500Y-96610500D01*
X124638500Y-95894525D01*
X125337479Y-95894525D01*
X125337479Y-95905475D01*
X125356468Y-96122523D01*
X125358370Y-96133310D01*
X125414761Y-96343761D01*
X125418509Y-96354057D01*
X125510583Y-96551513D01*
X125516066Y-96561008D01*
X125552506Y-96613050D01*
X125562985Y-96621426D01*
X125576430Y-96614359D01*
X126277979Y-95912811D01*
X126285592Y-95898868D01*
X126285461Y-95897034D01*
X126281210Y-95890420D01*
X125575706Y-95184917D01*
X125563936Y-95178490D01*
X125551922Y-95187784D01*
X125516066Y-95238992D01*
X125510583Y-95248487D01*
X125418509Y-95445943D01*
X125414761Y-95456239D01*
X125358370Y-95666690D01*
X125356468Y-95677477D01*
X125337479Y-95894525D01*
X124638500Y-95894525D01*
X124638500Y-94812985D01*
X125928574Y-94812985D01*
X125935641Y-94826430D01*
X126637189Y-95527979D01*
X126651132Y-95535592D01*
X126652966Y-95535461D01*
X126659580Y-95531210D01*
X127365083Y-94825706D01*
X127371510Y-94813936D01*
X127362216Y-94801922D01*
X127311008Y-94766066D01*
X127301513Y-94760583D01*
X127104057Y-94668509D01*
X127093761Y-94664761D01*
X126883310Y-94608370D01*
X126872523Y-94606468D01*
X126655475Y-94587479D01*
X126644525Y-94587479D01*
X126427477Y-94606468D01*
X126416690Y-94608370D01*
X126206239Y-94664761D01*
X126195943Y-94668509D01*
X125998487Y-94760583D01*
X125988992Y-94766066D01*
X125936950Y-94802506D01*
X125928574Y-94812985D01*
X124638500Y-94812985D01*
X124638500Y-92139500D01*
X124658502Y-92071379D01*
X124712158Y-92024886D01*
X124764500Y-92013500D01*
X125210000Y-92013500D01*
X125283079Y-92008273D01*
X125365252Y-91984145D01*
X125414670Y-91969635D01*
X125414672Y-91969634D01*
X125423316Y-91967096D01*
X125477951Y-91931984D01*
X125538691Y-91892949D01*
X125538694Y-91892947D01*
X125546271Y-91888077D01*
X125565025Y-91866434D01*
X125636082Y-91784431D01*
X125636084Y-91784428D01*
X125641984Y-91777619D01*
X125702700Y-91644670D01*
X125711582Y-91582896D01*
X125722861Y-91504448D01*
X125722862Y-91504441D01*
X125723500Y-91500000D01*
X125723500Y-91054500D01*
X125743502Y-90986379D01*
X125797158Y-90939886D01*
X125849500Y-90928500D01*
X127300896Y-90928500D01*
X127369017Y-90948502D01*
G37*
%TD.AperFunction*%
%TA.AperFunction,Conductor*%
G36*
X156552216Y-91440306D02*
G01*
X156611713Y-91479043D01*
X156640822Y-91543798D01*
X156642000Y-91560989D01*
X156642000Y-114616000D01*
X156621998Y-114684121D01*
X156568342Y-114730614D01*
X156516000Y-114742000D01*
X144155833Y-114742000D01*
X144087712Y-114721998D01*
X144041219Y-114668342D01*
X144031115Y-114598068D01*
X144060609Y-114533488D01*
X144100401Y-114502849D01*
X144162510Y-114472422D01*
X144162519Y-114472417D01*
X144167158Y-114470144D01*
X144254303Y-114407984D01*
X144360226Y-114332430D01*
X144360231Y-114332426D01*
X144364438Y-114329425D01*
X144536087Y-114158375D01*
X144539101Y-114154181D01*
X144539110Y-114154170D01*
X144634821Y-114020974D01*
X144690815Y-113977326D01*
X144737143Y-113968500D01*
X144828341Y-113968500D01*
X144836910Y-113968792D01*
X144884242Y-113972019D01*
X144884246Y-113972019D01*
X144891818Y-113972535D01*
X144953823Y-113961713D01*
X144960313Y-113960756D01*
X145022808Y-113953193D01*
X145029915Y-113950507D01*
X145033409Y-113949649D01*
X145047368Y-113945830D01*
X145050850Y-113944779D01*
X145058334Y-113943473D01*
X145065284Y-113940422D01*
X145065291Y-113940420D01*
X145115940Y-113918186D01*
X145122049Y-113915693D01*
X145173825Y-113896129D01*
X145173829Y-113896127D01*
X145180929Y-113893444D01*
X145187186Y-113889144D01*
X145190378Y-113887475D01*
X145203010Y-113880444D01*
X145206153Y-113878585D01*
X145213110Y-113875531D01*
X145263029Y-113837226D01*
X145268349Y-113833362D01*
X145313974Y-113802005D01*
X145313976Y-113802004D01*
X145320233Y-113797703D01*
X145359570Y-113753552D01*
X145364551Y-113748276D01*
X145584953Y-113527875D01*
X145647265Y-113493850D01*
X145694551Y-113492912D01*
X145696913Y-113493545D01*
X145702378Y-113494023D01*
X145702383Y-113494024D01*
X145919525Y-113513021D01*
X145925000Y-113513500D01*
X145930475Y-113513021D01*
X146147603Y-113494025D01*
X146147605Y-113494025D01*
X146153087Y-113493545D01*
X146155114Y-113493002D01*
X146224625Y-113500751D01*
X146265047Y-113527875D01*
X146602217Y-113865045D01*
X146608071Y-113871310D01*
X146618238Y-113882964D01*
X146644268Y-113912803D01*
X146687907Y-113943473D01*
X146695748Y-113948984D01*
X146701041Y-113952915D01*
X146712101Y-113961587D01*
X146750569Y-113991749D01*
X146757493Y-113994875D01*
X146760597Y-113996755D01*
X146773157Y-114003919D01*
X146776344Y-114005628D01*
X146782562Y-114009998D01*
X146841190Y-114032856D01*
X146847266Y-114035410D01*
X146897700Y-114058182D01*
X146897702Y-114058183D01*
X146904626Y-114061309D01*
X146912095Y-114062693D01*
X146915569Y-114063782D01*
X146929436Y-114067732D01*
X146932970Y-114068640D01*
X146940048Y-114071399D01*
X146947578Y-114072390D01*
X146947581Y-114072391D01*
X146974315Y-114075910D01*
X147002436Y-114079612D01*
X147008928Y-114080640D01*
X147070828Y-114092113D01*
X147078408Y-114091676D01*
X147078409Y-114091676D01*
X147129842Y-114088710D01*
X147137096Y-114088501D01*
X154089542Y-114088501D01*
X154098111Y-114088793D01*
X154145443Y-114092020D01*
X154145447Y-114092020D01*
X154153019Y-114092536D01*
X154215024Y-114081714D01*
X154221514Y-114080757D01*
X154284009Y-114073194D01*
X154291116Y-114070508D01*
X154294610Y-114069650D01*
X154308569Y-114065831D01*
X154312051Y-114064780D01*
X154319535Y-114063474D01*
X154326485Y-114060423D01*
X154326492Y-114060421D01*
X154377141Y-114038187D01*
X154383250Y-114035694D01*
X154435026Y-114016130D01*
X154435030Y-114016128D01*
X154442130Y-114013445D01*
X154448387Y-114009145D01*
X154451579Y-114007476D01*
X154464211Y-114000445D01*
X154467354Y-113998586D01*
X154474311Y-113995532D01*
X154524230Y-113957227D01*
X154529550Y-113953363D01*
X154575175Y-113922006D01*
X154575177Y-113922005D01*
X154581434Y-113917704D01*
X154620771Y-113873553D01*
X154625752Y-113868277D01*
X156090070Y-112403961D01*
X156096336Y-112398108D01*
X156132078Y-112366928D01*
X156137803Y-112361934D01*
X156173996Y-112310437D01*
X156177912Y-112305165D01*
X156212060Y-112261616D01*
X156212065Y-112261608D01*
X156216749Y-112255634D01*
X156219874Y-112248713D01*
X156221757Y-112245603D01*
X156228915Y-112233053D01*
X156230629Y-112229856D01*
X156234998Y-112223640D01*
X156257861Y-112165000D01*
X156260416Y-112158922D01*
X156283184Y-112108497D01*
X156283185Y-112108494D01*
X156286308Y-112101577D01*
X156287691Y-112094113D01*
X156288774Y-112090659D01*
X156292743Y-112076726D01*
X156293641Y-112073228D01*
X156296399Y-112066154D01*
X156304614Y-112003751D01*
X156305644Y-111997246D01*
X156317112Y-111935375D01*
X156313710Y-111876373D01*
X156313501Y-111869120D01*
X156313501Y-93178461D01*
X156313793Y-93169892D01*
X156317020Y-93122560D01*
X156317020Y-93122556D01*
X156317536Y-93114984D01*
X156306718Y-93052996D01*
X156305755Y-93046472D01*
X156299107Y-92991536D01*
X156299106Y-92991533D01*
X156298194Y-92983995D01*
X156295509Y-92976889D01*
X156294638Y-92973343D01*
X156290842Y-92959467D01*
X156289781Y-92955955D01*
X156288475Y-92948469D01*
X156263175Y-92890836D01*
X156260690Y-92884745D01*
X156257396Y-92876026D01*
X156238445Y-92825874D01*
X156234142Y-92819614D01*
X156232468Y-92816411D01*
X156225447Y-92803795D01*
X156223584Y-92800646D01*
X156220532Y-92793692D01*
X156182220Y-92743764D01*
X156178356Y-92738444D01*
X156147006Y-92692829D01*
X156147004Y-92692827D01*
X156142704Y-92686570D01*
X156098543Y-92647224D01*
X156093286Y-92642260D01*
X155598170Y-92147144D01*
X155564144Y-92084832D01*
X155569209Y-92014017D01*
X155611756Y-91957181D01*
X155655184Y-91936201D01*
X155691867Y-91926543D01*
X155730651Y-91916332D01*
X155916080Y-91836666D01*
X155969226Y-91813833D01*
X155969229Y-91813831D01*
X155973529Y-91811984D01*
X155977509Y-91809521D01*
X155977513Y-91809519D01*
X156194342Y-91675341D01*
X156194346Y-91675338D01*
X156198315Y-91672882D01*
X156400072Y-91502082D01*
X156421268Y-91477912D01*
X156481220Y-91439884D01*
X156552216Y-91440306D01*
G37*
%TD.AperFunction*%
%TA.AperFunction,Conductor*%
G36*
X137481103Y-98684927D02*
G01*
X137489000Y-98693246D01*
X137627024Y-98852585D01*
X137627027Y-98852588D01*
X137630408Y-98856491D01*
X137634377Y-98859786D01*
X137634380Y-98859789D01*
X137705333Y-98918695D01*
X137816853Y-99011280D01*
X138026075Y-99133540D01*
X138252456Y-99219986D01*
X138257522Y-99221017D01*
X138257523Y-99221017D01*
X138484837Y-99267265D01*
X138484841Y-99267265D01*
X138489916Y-99268298D01*
X138495092Y-99268488D01*
X138495094Y-99268488D01*
X138726914Y-99276989D01*
X138726918Y-99276989D01*
X138732078Y-99277178D01*
X138737198Y-99276522D01*
X138737200Y-99276522D01*
X138812405Y-99266888D01*
X138972439Y-99246387D01*
X138977393Y-99244901D01*
X138977401Y-99244899D01*
X139016598Y-99233139D01*
X139087593Y-99232721D01*
X139141901Y-99264729D01*
X140955835Y-101078663D01*
X140989861Y-101140975D01*
X140988157Y-101201430D01*
X140985445Y-101211210D01*
X140972492Y-101257919D01*
X140971944Y-101263047D01*
X140971943Y-101263052D01*
X140947813Y-101488845D01*
X140946741Y-101498872D01*
X140947038Y-101504024D01*
X140947038Y-101504028D01*
X140951029Y-101573237D01*
X140960691Y-101740795D01*
X140995214Y-101893988D01*
X140990677Y-101964837D01*
X140961392Y-102010780D01*
X140363604Y-102608569D01*
X140301291Y-102642594D01*
X140252415Y-102643521D01*
X140024158Y-102602863D01*
X139933181Y-102601751D01*
X139787021Y-102599965D01*
X139787019Y-102599965D01*
X139781851Y-102599902D01*
X139542314Y-102636556D01*
X139311981Y-102711841D01*
X139307393Y-102714229D01*
X139307389Y-102714231D01*
X139132747Y-102805144D01*
X139097036Y-102823734D01*
X139092903Y-102826837D01*
X139092900Y-102826839D01*
X138907387Y-102966126D01*
X138903252Y-102969231D01*
X138891009Y-102982043D01*
X138783691Y-103094345D01*
X138735834Y-103144424D01*
X138599278Y-103344608D01*
X138597098Y-103349305D01*
X138507944Y-103541370D01*
X138497250Y-103564408D01*
X138432492Y-103797919D01*
X138431943Y-103803056D01*
X138412807Y-103982115D01*
X138406741Y-104038872D01*
X138407038Y-104044024D01*
X138407038Y-104044027D01*
X138409265Y-104082642D01*
X138393218Y-104151802D01*
X138342328Y-104201306D01*
X138272752Y-104215439D01*
X138211204Y-104193110D01*
X138190117Y-104178345D01*
X138131750Y-104137476D01*
X138126768Y-104135153D01*
X138126763Y-104135150D01*
X137929225Y-104043037D01*
X137929224Y-104043036D01*
X137924243Y-104040714D01*
X137918935Y-104039292D01*
X137918933Y-104039291D01*
X137708402Y-103982879D01*
X137708400Y-103982879D01*
X137703087Y-103981455D01*
X137475000Y-103961500D01*
X137246913Y-103981455D01*
X137241600Y-103982879D01*
X137241598Y-103982879D01*
X137031067Y-104039291D01*
X137031065Y-104039292D01*
X137025757Y-104040714D01*
X137020776Y-104043036D01*
X137020775Y-104043037D01*
X136823237Y-104135150D01*
X136823232Y-104135153D01*
X136818250Y-104137476D01*
X136813743Y-104140632D01*
X136813741Y-104140633D01*
X136635209Y-104265642D01*
X136635206Y-104265644D01*
X136630698Y-104268801D01*
X136468801Y-104430698D01*
X136465644Y-104435206D01*
X136465642Y-104435209D01*
X136340633Y-104613741D01*
X136337476Y-104618250D01*
X136335153Y-104623232D01*
X136335150Y-104623237D01*
X136265186Y-104773277D01*
X136240714Y-104825757D01*
X136239292Y-104831065D01*
X136239291Y-104831067D01*
X136184105Y-105037023D01*
X136181455Y-105046913D01*
X136161500Y-105275000D01*
X136181455Y-105503087D01*
X136182879Y-105508400D01*
X136182879Y-105508402D01*
X136192230Y-105543298D01*
X136240714Y-105724243D01*
X136243036Y-105729224D01*
X136243037Y-105729225D01*
X136335150Y-105926763D01*
X136335153Y-105926768D01*
X136337476Y-105931750D01*
X136340632Y-105936257D01*
X136340633Y-105936259D01*
X136462183Y-106109850D01*
X136468801Y-106119302D01*
X136630698Y-106281199D01*
X136635206Y-106284356D01*
X136635209Y-106284358D01*
X136813741Y-106409367D01*
X136818250Y-106412524D01*
X136823232Y-106414847D01*
X136823237Y-106414850D01*
X137020775Y-106506963D01*
X137025757Y-106509286D01*
X137031065Y-106510708D01*
X137031067Y-106510709D01*
X137241598Y-106567121D01*
X137241600Y-106567121D01*
X137246913Y-106568545D01*
X137475000Y-106588500D01*
X137703087Y-106568545D01*
X137708400Y-106567121D01*
X137708402Y-106567121D01*
X137918933Y-106510709D01*
X137918935Y-106510708D01*
X137924243Y-106509286D01*
X137929225Y-106506963D01*
X138126763Y-106414850D01*
X138126768Y-106414847D01*
X138131750Y-106412524D01*
X138136259Y-106409367D01*
X138314791Y-106284358D01*
X138314794Y-106284356D01*
X138319302Y-106281199D01*
X138434895Y-106165606D01*
X138497207Y-106131580D01*
X138523990Y-106128701D01*
X141577442Y-106128701D01*
X141586011Y-106128993D01*
X141633343Y-106132220D01*
X141633347Y-106132220D01*
X141640919Y-106132736D01*
X141702924Y-106121914D01*
X141709414Y-106120957D01*
X141771909Y-106113394D01*
X141779016Y-106110708D01*
X141782510Y-106109850D01*
X141796469Y-106106031D01*
X141799951Y-106104980D01*
X141807435Y-106103674D01*
X141814385Y-106100623D01*
X141814392Y-106100621D01*
X141865041Y-106078387D01*
X141871150Y-106075894D01*
X141922926Y-106056330D01*
X141922930Y-106056328D01*
X141930030Y-106053645D01*
X141936287Y-106049345D01*
X141939479Y-106047676D01*
X141952111Y-106040645D01*
X141955254Y-106038786D01*
X141962211Y-106035732D01*
X142012130Y-105997427D01*
X142017450Y-105993563D01*
X142063075Y-105962206D01*
X142063077Y-105962205D01*
X142069334Y-105957904D01*
X142108679Y-105913744D01*
X142113661Y-105908468D01*
X142821355Y-105200774D01*
X143405454Y-104616676D01*
X143467764Y-104582651D01*
X143538579Y-104587716D01*
X143595415Y-104630263D01*
X143611290Y-104658368D01*
X143642273Y-104734669D01*
X143645133Y-104741713D01*
X143771748Y-104948329D01*
X143930408Y-105131491D01*
X143934377Y-105134786D01*
X143934380Y-105134789D01*
X143990667Y-105181519D01*
X144116853Y-105286280D01*
X144326075Y-105408540D01*
X144552456Y-105494986D01*
X144557522Y-105496017D01*
X144557523Y-105496017D01*
X144784837Y-105542265D01*
X144784841Y-105542265D01*
X144789916Y-105543298D01*
X144795092Y-105543488D01*
X144795094Y-105543488D01*
X145026914Y-105551989D01*
X145026918Y-105551989D01*
X145032078Y-105552178D01*
X145037198Y-105551522D01*
X145037200Y-105551522D01*
X145267311Y-105522044D01*
X145267312Y-105522044D01*
X145272439Y-105521387D01*
X145297725Y-105513801D01*
X145499590Y-105453238D01*
X145504543Y-105451752D01*
X145509182Y-105449479D01*
X145509188Y-105449477D01*
X145717520Y-105347416D01*
X145722158Y-105345144D01*
X145804682Y-105286280D01*
X145915226Y-105207430D01*
X145915231Y-105207426D01*
X145919438Y-105204425D01*
X146091087Y-105033375D01*
X146125354Y-104985688D01*
X146229475Y-104840787D01*
X146232493Y-104836587D01*
X146245259Y-104810758D01*
X146320574Y-104658368D01*
X146339860Y-104619346D01*
X146365416Y-104535232D01*
X146408801Y-104392438D01*
X146408802Y-104392432D01*
X146410305Y-104387486D01*
X146426049Y-104267897D01*
X146454771Y-104202971D01*
X146514037Y-104163879D01*
X146585028Y-104163034D01*
X146617201Y-104177495D01*
X146622381Y-104181984D01*
X146755330Y-104242700D01*
X146764245Y-104243982D01*
X146764246Y-104243982D01*
X146895552Y-104262861D01*
X146895559Y-104262862D01*
X146900000Y-104263500D01*
X148065502Y-104263500D01*
X148133623Y-104283502D01*
X148180116Y-104337158D01*
X148191502Y-104389500D01*
X148191501Y-105127586D01*
X148191501Y-105843481D01*
X148171499Y-105911602D01*
X148154596Y-105932576D01*
X146265047Y-107822125D01*
X146202735Y-107856151D01*
X146155448Y-107857088D01*
X146153087Y-107856455D01*
X146147605Y-107855975D01*
X146147603Y-107855975D01*
X145930475Y-107836979D01*
X145925000Y-107836500D01*
X145696913Y-107856455D01*
X145691600Y-107857879D01*
X145691598Y-107857879D01*
X145481067Y-107914291D01*
X145481065Y-107914292D01*
X145475757Y-107915714D01*
X145470776Y-107918036D01*
X145470775Y-107918037D01*
X145273237Y-108010150D01*
X145273232Y-108010153D01*
X145268250Y-108012476D01*
X145263743Y-108015632D01*
X145263741Y-108015633D01*
X145085209Y-108140642D01*
X145085206Y-108140644D01*
X145080698Y-108143801D01*
X144918801Y-108305698D01*
X144915642Y-108310210D01*
X144854332Y-108397770D01*
X144798875Y-108442099D01*
X144751119Y-108451500D01*
X139946658Y-108451500D01*
X139938089Y-108451208D01*
X139890757Y-108447981D01*
X139890753Y-108447981D01*
X139883181Y-108447465D01*
X139875705Y-108448770D01*
X139875700Y-108448770D01*
X139821191Y-108458283D01*
X139814668Y-108459246D01*
X139813743Y-108459358D01*
X139752192Y-108466807D01*
X139745081Y-108469494D01*
X139741544Y-108470363D01*
X139727644Y-108474166D01*
X139724157Y-108475219D01*
X139716665Y-108476526D01*
X139678608Y-108493232D01*
X139659048Y-108501818D01*
X139652942Y-108504310D01*
X139601175Y-108523871D01*
X139601171Y-108523873D01*
X139594071Y-108526556D01*
X139587810Y-108530859D01*
X139584595Y-108532540D01*
X139571992Y-108539554D01*
X139568843Y-108541417D01*
X139561889Y-108544469D01*
X139511961Y-108582781D01*
X139506641Y-108586645D01*
X139454767Y-108622297D01*
X139449717Y-108627965D01*
X139449716Y-108627966D01*
X139415430Y-108666448D01*
X139410448Y-108671724D01*
X137896884Y-110185289D01*
X136397778Y-111684395D01*
X136335466Y-111718421D01*
X136308683Y-111721300D01*
X134824800Y-111721300D01*
X134751721Y-111726527D01*
X134686168Y-111745775D01*
X134620130Y-111765165D01*
X134620128Y-111765166D01*
X134611484Y-111767704D01*
X134603905Y-111772575D01*
X134496109Y-111841851D01*
X134496106Y-111841853D01*
X134488529Y-111846723D01*
X134482628Y-111853533D01*
X134398718Y-111950369D01*
X134398716Y-111950372D01*
X134392816Y-111957181D01*
X134389072Y-111965379D01*
X134343050Y-112066154D01*
X134332100Y-112090130D01*
X134330818Y-112099045D01*
X134330818Y-112099046D01*
X134311939Y-112230352D01*
X134311938Y-112230359D01*
X134311300Y-112234800D01*
X134311300Y-113061684D01*
X134291298Y-113129805D01*
X134237642Y-113176298D01*
X134167368Y-113186402D01*
X134102788Y-113156908D01*
X134096217Y-113150791D01*
X133200405Y-112254980D01*
X133166381Y-112192669D01*
X133163501Y-112165886D01*
X133163501Y-104866659D01*
X133163793Y-104858090D01*
X133167020Y-104810758D01*
X133167020Y-104810754D01*
X133167536Y-104803182D01*
X133166231Y-104795706D01*
X133166231Y-104795701D01*
X133156718Y-104741192D01*
X133155755Y-104734669D01*
X133149107Y-104679739D01*
X133148194Y-104672193D01*
X133145507Y-104665082D01*
X133144638Y-104661545D01*
X133140835Y-104647645D01*
X133139782Y-104644158D01*
X133138475Y-104636666D01*
X133113183Y-104579049D01*
X133110691Y-104572943D01*
X133091130Y-104521176D01*
X133091128Y-104521172D01*
X133088445Y-104514072D01*
X133084142Y-104507811D01*
X133082461Y-104504596D01*
X133075447Y-104491993D01*
X133073584Y-104488844D01*
X133070532Y-104481890D01*
X133032220Y-104431962D01*
X133028356Y-104426642D01*
X132997006Y-104381027D01*
X132997004Y-104381025D01*
X132992704Y-104374768D01*
X132948548Y-104335427D01*
X132943288Y-104330460D01*
X131177875Y-102565047D01*
X131143849Y-102502735D01*
X131142912Y-102455448D01*
X131143545Y-102453087D01*
X131163500Y-102225000D01*
X136156500Y-102225000D01*
X136176455Y-102453087D01*
X136177879Y-102458400D01*
X136177879Y-102458402D01*
X136227234Y-102642594D01*
X136235714Y-102674243D01*
X136238036Y-102679224D01*
X136238037Y-102679225D01*
X136330150Y-102876763D01*
X136330153Y-102876768D01*
X136332476Y-102881750D01*
X136335632Y-102886257D01*
X136335633Y-102886259D01*
X136417718Y-103003488D01*
X136463801Y-103069302D01*
X136625698Y-103231199D01*
X136630206Y-103234356D01*
X136630209Y-103234358D01*
X136781552Y-103340329D01*
X136813250Y-103362524D01*
X136818232Y-103364847D01*
X136818237Y-103364850D01*
X137015775Y-103456963D01*
X137020757Y-103459286D01*
X137026065Y-103460708D01*
X137026067Y-103460709D01*
X137236598Y-103517121D01*
X137236600Y-103517121D01*
X137241913Y-103518545D01*
X137470000Y-103538500D01*
X137698087Y-103518545D01*
X137703400Y-103517121D01*
X137703402Y-103517121D01*
X137913933Y-103460709D01*
X137913935Y-103460708D01*
X137919243Y-103459286D01*
X137924225Y-103456963D01*
X138121763Y-103364850D01*
X138121768Y-103364847D01*
X138126750Y-103362524D01*
X138158448Y-103340329D01*
X138309791Y-103234358D01*
X138309794Y-103234356D01*
X138314302Y-103231199D01*
X138476199Y-103069302D01*
X138522283Y-103003488D01*
X138604367Y-102886259D01*
X138604368Y-102886257D01*
X138607524Y-102881750D01*
X138609847Y-102876768D01*
X138609850Y-102876763D01*
X138701963Y-102679225D01*
X138701964Y-102679224D01*
X138704286Y-102674243D01*
X138712767Y-102642594D01*
X138762121Y-102458402D01*
X138762121Y-102458400D01*
X138763545Y-102453087D01*
X138783500Y-102225000D01*
X138763545Y-101996913D01*
X138754950Y-101964837D01*
X138705709Y-101781067D01*
X138705708Y-101781065D01*
X138704286Y-101775757D01*
X138701963Y-101770775D01*
X138609850Y-101573237D01*
X138609847Y-101573232D01*
X138607524Y-101568250D01*
X138595605Y-101551228D01*
X138479358Y-101385209D01*
X138479356Y-101385206D01*
X138476199Y-101380698D01*
X138314302Y-101218801D01*
X138309794Y-101215644D01*
X138309791Y-101215642D01*
X138131259Y-101090633D01*
X138131257Y-101090632D01*
X138126750Y-101087476D01*
X138121768Y-101085153D01*
X138121763Y-101085150D01*
X137924225Y-100993037D01*
X137924224Y-100993036D01*
X137919243Y-100990714D01*
X137913935Y-100989292D01*
X137913933Y-100989291D01*
X137703402Y-100932879D01*
X137703400Y-100932879D01*
X137698087Y-100931455D01*
X137470000Y-100911500D01*
X137241913Y-100931455D01*
X137236600Y-100932879D01*
X137236598Y-100932879D01*
X137026067Y-100989291D01*
X137026065Y-100989292D01*
X137020757Y-100990714D01*
X137015776Y-100993036D01*
X137015775Y-100993037D01*
X136818237Y-101085150D01*
X136818232Y-101085153D01*
X136813250Y-101087476D01*
X136808743Y-101090632D01*
X136808741Y-101090633D01*
X136630209Y-101215642D01*
X136630206Y-101215644D01*
X136625698Y-101218801D01*
X136463801Y-101380698D01*
X136460644Y-101385206D01*
X136460642Y-101385209D01*
X136344395Y-101551228D01*
X136332476Y-101568250D01*
X136330153Y-101573232D01*
X136330150Y-101573237D01*
X136238037Y-101770775D01*
X136235714Y-101775757D01*
X136234292Y-101781065D01*
X136234291Y-101781067D01*
X136185050Y-101964837D01*
X136176455Y-101996913D01*
X136156500Y-102225000D01*
X131163500Y-102225000D01*
X131143545Y-101996913D01*
X131134950Y-101964837D01*
X131085709Y-101781067D01*
X131085708Y-101781065D01*
X131084286Y-101775757D01*
X131081963Y-101770775D01*
X130989850Y-101573237D01*
X130989847Y-101573232D01*
X130987524Y-101568250D01*
X130975605Y-101551228D01*
X130859358Y-101385209D01*
X130859356Y-101385206D01*
X130856199Y-101380698D01*
X130694302Y-101218801D01*
X130689794Y-101215644D01*
X130689791Y-101215642D01*
X130511259Y-101090633D01*
X130511257Y-101090632D01*
X130506750Y-101087476D01*
X130501762Y-101085150D01*
X130501757Y-101085147D01*
X130470287Y-101070472D01*
X130417002Y-101023555D01*
X130397542Y-100955277D01*
X130418085Y-100887317D01*
X130434443Y-100867183D01*
X132131859Y-99169767D01*
X132194171Y-99135741D01*
X132264986Y-99140806D01*
X132303467Y-99163638D01*
X132335369Y-99191282D01*
X132335372Y-99191284D01*
X132342181Y-99197184D01*
X132350379Y-99200928D01*
X132425823Y-99235382D01*
X132475130Y-99257900D01*
X132484045Y-99259182D01*
X132484046Y-99259182D01*
X132615352Y-99278061D01*
X132615359Y-99278062D01*
X132619800Y-99278700D01*
X134550200Y-99278700D01*
X134623279Y-99273473D01*
X134715526Y-99246387D01*
X134754870Y-99234835D01*
X134754872Y-99234834D01*
X134763516Y-99232296D01*
X134827335Y-99191282D01*
X134878891Y-99158149D01*
X134878894Y-99158147D01*
X134886471Y-99153277D01*
X134905831Y-99130935D01*
X134976282Y-99049631D01*
X134976284Y-99049628D01*
X134982184Y-99042819D01*
X135005231Y-98992353D01*
X135051724Y-98938697D01*
X135119845Y-98918695D01*
X135187966Y-98938697D01*
X135200329Y-98947750D01*
X135272876Y-99007979D01*
X135272882Y-99007983D01*
X135276853Y-99011280D01*
X135486075Y-99133540D01*
X135712456Y-99219986D01*
X135717522Y-99221017D01*
X135717523Y-99221017D01*
X135944837Y-99267265D01*
X135944841Y-99267265D01*
X135949916Y-99268298D01*
X135955092Y-99268488D01*
X135955094Y-99268488D01*
X136186914Y-99276989D01*
X136186918Y-99276989D01*
X136192078Y-99277178D01*
X136197198Y-99276522D01*
X136197200Y-99276522D01*
X136427311Y-99247044D01*
X136427312Y-99247044D01*
X136432439Y-99246387D01*
X136469121Y-99235382D01*
X136659590Y-99178238D01*
X136659593Y-99178237D01*
X136664543Y-99176752D01*
X136669182Y-99174479D01*
X136669188Y-99174477D01*
X136877520Y-99072416D01*
X136882158Y-99070144D01*
X136944362Y-99025774D01*
X137075226Y-98932430D01*
X137075231Y-98932426D01*
X137079438Y-98929425D01*
X137251087Y-98758375D01*
X137254101Y-98754181D01*
X137254110Y-98754170D01*
X137291441Y-98702218D01*
X137347435Y-98658570D01*
X137418139Y-98652124D01*
X137481103Y-98684927D01*
G37*
%TD.AperFunction*%
%TA.AperFunction,Conductor*%
G36*
X154834535Y-101168663D02*
G01*
X154891370Y-101211210D01*
X154916181Y-101277730D01*
X154916502Y-101286719D01*
X154916501Y-105683531D01*
X154896499Y-105751652D01*
X154842843Y-105798145D01*
X154772569Y-105808248D01*
X154707989Y-105778755D01*
X154687288Y-105755801D01*
X154634362Y-105680214D01*
X154634357Y-105680208D01*
X154631199Y-105675698D01*
X154469302Y-105513801D01*
X154464794Y-105510644D01*
X154464791Y-105510642D01*
X154286259Y-105385633D01*
X154286257Y-105385632D01*
X154281750Y-105382476D01*
X154276768Y-105380153D01*
X154276763Y-105380150D01*
X154079225Y-105288037D01*
X154079224Y-105288036D01*
X154074243Y-105285714D01*
X154068935Y-105284292D01*
X154068933Y-105284291D01*
X153858402Y-105227879D01*
X153858400Y-105227879D01*
X153853087Y-105226455D01*
X153625000Y-105206500D01*
X153396913Y-105226455D01*
X153391600Y-105227879D01*
X153391598Y-105227879D01*
X153181067Y-105284291D01*
X153181065Y-105284292D01*
X153175757Y-105285714D01*
X153170776Y-105288036D01*
X153170775Y-105288037D01*
X152973237Y-105380150D01*
X152973232Y-105380153D01*
X152968250Y-105382476D01*
X152963743Y-105385632D01*
X152963741Y-105385633D01*
X152785209Y-105510642D01*
X152785206Y-105510644D01*
X152780698Y-105513801D01*
X152618801Y-105675698D01*
X152615644Y-105680206D01*
X152615642Y-105680209D01*
X152501318Y-105843481D01*
X152487476Y-105863250D01*
X152485153Y-105868232D01*
X152485150Y-105868237D01*
X152443338Y-105957904D01*
X152390714Y-106070757D01*
X152389292Y-106076065D01*
X152389291Y-106076067D01*
X152346266Y-106236637D01*
X152331455Y-106291913D01*
X152311500Y-106520000D01*
X152331455Y-106748087D01*
X152390714Y-106969243D01*
X152393036Y-106974224D01*
X152393037Y-106974225D01*
X152485150Y-107171763D01*
X152485153Y-107171768D01*
X152487476Y-107176750D01*
X152490632Y-107181257D01*
X152490633Y-107181259D01*
X152615639Y-107359786D01*
X152618801Y-107364302D01*
X152780698Y-107526199D01*
X152785206Y-107529356D01*
X152785209Y-107529358D01*
X152963741Y-107654367D01*
X152968250Y-107657524D01*
X152973232Y-107659847D01*
X152973237Y-107659850D01*
X153064546Y-107702428D01*
X153117831Y-107749346D01*
X153137292Y-107817623D01*
X153116750Y-107885583D01*
X153064546Y-107930818D01*
X152893487Y-108010583D01*
X152883991Y-108016066D01*
X152705531Y-108141025D01*
X152697123Y-108148081D01*
X152543081Y-108302123D01*
X152536025Y-108310531D01*
X152411066Y-108488991D01*
X152405583Y-108498487D01*
X152313509Y-108695943D01*
X152309761Y-108706239D01*
X152263602Y-108878503D01*
X152263938Y-108892599D01*
X152271880Y-108896000D01*
X153673000Y-108896000D01*
X153741121Y-108916002D01*
X153787614Y-108969658D01*
X153799000Y-109022000D01*
X153799000Y-110417971D01*
X153802973Y-110431502D01*
X153811522Y-110432731D01*
X153988761Y-110385239D01*
X153999057Y-110381491D01*
X154196513Y-110289417D01*
X154206009Y-110283934D01*
X154384469Y-110158975D01*
X154392877Y-110151919D01*
X154546919Y-109997877D01*
X154553975Y-109989469D01*
X154678937Y-109811004D01*
X154681383Y-109806768D01*
X154732767Y-109757775D01*
X154802481Y-109744341D01*
X154868391Y-109770729D01*
X154909572Y-109828562D01*
X154916501Y-109869770D01*
X154916501Y-111480230D01*
X154896499Y-111548351D01*
X154842843Y-111594844D01*
X154772569Y-111604948D01*
X154707989Y-111575454D01*
X154681383Y-111543232D01*
X154678937Y-111538996D01*
X154553975Y-111360531D01*
X154546919Y-111352123D01*
X154392877Y-111198081D01*
X154384469Y-111191025D01*
X154206009Y-111066066D01*
X154196513Y-111060583D01*
X153999057Y-110968509D01*
X153988761Y-110964761D01*
X153816497Y-110918602D01*
X153802401Y-110918938D01*
X153799000Y-110926880D01*
X153799000Y-112328000D01*
X153778998Y-112396121D01*
X153725342Y-112442614D01*
X153673000Y-112454000D01*
X152277029Y-112454000D01*
X152263498Y-112457973D01*
X152262269Y-112466522D01*
X152280052Y-112532890D01*
X152278362Y-112603867D01*
X152238568Y-112662662D01*
X152173303Y-112690610D01*
X152158345Y-112691501D01*
X147456519Y-112691501D01*
X147388398Y-112671499D01*
X147367424Y-112654596D01*
X147252875Y-112540047D01*
X147218849Y-112477735D01*
X147217912Y-112430448D01*
X147218545Y-112428087D01*
X147223926Y-112366589D01*
X147238021Y-112205475D01*
X147238500Y-112200000D01*
X147218545Y-111971913D01*
X147208755Y-111935375D01*
X147206914Y-111928503D01*
X152263602Y-111928503D01*
X152263938Y-111942599D01*
X152271880Y-111946000D01*
X153272885Y-111946000D01*
X153288124Y-111941525D01*
X153289329Y-111940135D01*
X153291000Y-111932452D01*
X153291000Y-110932029D01*
X153287027Y-110918498D01*
X153278478Y-110917269D01*
X153101239Y-110964761D01*
X153090943Y-110968509D01*
X152893487Y-111060583D01*
X152883991Y-111066066D01*
X152705531Y-111191025D01*
X152697123Y-111198081D01*
X152543081Y-111352123D01*
X152536025Y-111360531D01*
X152411066Y-111538991D01*
X152405583Y-111548487D01*
X152313509Y-111745943D01*
X152309761Y-111756239D01*
X152263602Y-111928503D01*
X147206914Y-111928503D01*
X147160709Y-111756067D01*
X147160708Y-111756065D01*
X147159286Y-111750757D01*
X147148875Y-111728431D01*
X147064850Y-111548237D01*
X147064847Y-111548232D01*
X147062524Y-111543250D01*
X147059367Y-111538741D01*
X146934358Y-111360209D01*
X146934356Y-111360206D01*
X146931199Y-111355698D01*
X146769302Y-111193801D01*
X146764794Y-111190644D01*
X146764791Y-111190642D01*
X146586259Y-111065633D01*
X146586257Y-111065632D01*
X146581750Y-111062476D01*
X146576768Y-111060153D01*
X146576763Y-111060150D01*
X146379225Y-110968037D01*
X146379224Y-110968036D01*
X146374243Y-110965714D01*
X146368935Y-110964292D01*
X146368933Y-110964291D01*
X146158402Y-110907879D01*
X146158400Y-110907879D01*
X146153087Y-110906455D01*
X145925000Y-110886500D01*
X145696913Y-110906455D01*
X145691600Y-110907879D01*
X145691598Y-110907879D01*
X145481067Y-110964291D01*
X145481065Y-110964292D01*
X145475757Y-110965714D01*
X145470776Y-110968036D01*
X145470775Y-110968037D01*
X145273237Y-111060150D01*
X145273232Y-111060153D01*
X145268250Y-111062476D01*
X145263743Y-111065632D01*
X145263741Y-111065633D01*
X145085209Y-111190642D01*
X145085206Y-111190644D01*
X145080698Y-111193801D01*
X144918801Y-111355698D01*
X144915644Y-111360206D01*
X144915642Y-111360209D01*
X144790633Y-111538741D01*
X144787476Y-111543250D01*
X144785153Y-111548232D01*
X144785150Y-111548237D01*
X144701125Y-111728431D01*
X144690714Y-111750757D01*
X144689292Y-111756065D01*
X144689291Y-111756067D01*
X144641245Y-111935375D01*
X144631455Y-111971913D01*
X144630976Y-111977393D01*
X144630974Y-111977405D01*
X144625996Y-112034296D01*
X144600133Y-112100414D01*
X144542630Y-112142054D01*
X144471742Y-112145994D01*
X144419019Y-112117853D01*
X144418471Y-112118547D01*
X144414618Y-112115504D01*
X144414409Y-112115339D01*
X144232355Y-111971561D01*
X144232351Y-111971559D01*
X144228300Y-111968359D01*
X144016153Y-111851248D01*
X144011284Y-111849524D01*
X144011280Y-111849522D01*
X143792603Y-111772084D01*
X143792599Y-111772083D01*
X143787728Y-111770358D01*
X143782638Y-111769451D01*
X143782633Y-111769450D01*
X143649717Y-111745775D01*
X143549158Y-111727863D01*
X143458181Y-111726751D01*
X143312021Y-111724965D01*
X143312019Y-111724965D01*
X143306851Y-111724902D01*
X143067314Y-111761556D01*
X142836981Y-111836841D01*
X142832393Y-111839229D01*
X142832389Y-111839231D01*
X142635884Y-111941525D01*
X142622036Y-111948734D01*
X142617903Y-111951837D01*
X142617900Y-111951839D01*
X142433714Y-112090130D01*
X142428252Y-112094231D01*
X142260834Y-112269424D01*
X142245237Y-112292289D01*
X142190325Y-112337291D01*
X142119800Y-112345462D01*
X142056053Y-112314207D01*
X142042969Y-112299958D01*
X142041559Y-112297778D01*
X141980206Y-112230352D01*
X141881949Y-112122369D01*
X141881947Y-112122368D01*
X141878471Y-112118547D01*
X141874420Y-112115348D01*
X141874416Y-112115344D01*
X141692355Y-111971561D01*
X141692351Y-111971559D01*
X141688300Y-111968359D01*
X141476153Y-111851248D01*
X141471284Y-111849524D01*
X141471280Y-111849522D01*
X141252603Y-111772084D01*
X141252599Y-111772083D01*
X141247728Y-111770358D01*
X141242638Y-111769451D01*
X141242633Y-111769450D01*
X141109717Y-111745775D01*
X141009158Y-111727863D01*
X140918181Y-111726751D01*
X140772021Y-111724965D01*
X140772019Y-111724965D01*
X140766851Y-111724902D01*
X140527314Y-111761556D01*
X140296981Y-111836841D01*
X140292393Y-111839229D01*
X140292389Y-111839231D01*
X140095884Y-111941525D01*
X140082036Y-111948734D01*
X140077903Y-111951837D01*
X140077900Y-111951839D01*
X139893714Y-112090130D01*
X139888252Y-112094231D01*
X139720834Y-112269424D01*
X139704940Y-112292723D01*
X139650032Y-112337725D01*
X139579507Y-112345898D01*
X139515759Y-112314644D01*
X139501027Y-112298600D01*
X139497686Y-112294262D01*
X139341608Y-112122735D01*
X139334075Y-112115710D01*
X139152081Y-111971981D01*
X139143494Y-111966276D01*
X138940482Y-111854207D01*
X138931070Y-111849977D01*
X138712469Y-111772566D01*
X138702510Y-111769935D01*
X138588366Y-111749603D01*
X138524808Y-111717965D01*
X138488445Y-111656988D01*
X138490822Y-111586031D01*
X138521367Y-111536461D01*
X140172423Y-109885405D01*
X140234735Y-109851379D01*
X140261518Y-109848500D01*
X144751119Y-109848500D01*
X144819240Y-109868502D01*
X144854332Y-109902230D01*
X144918801Y-109994302D01*
X145080698Y-110156199D01*
X145085206Y-110159356D01*
X145085209Y-110159358D01*
X145198899Y-110238964D01*
X145268250Y-110287524D01*
X145273232Y-110289847D01*
X145273237Y-110289850D01*
X145469763Y-110381491D01*
X145475757Y-110384286D01*
X145481065Y-110385708D01*
X145481067Y-110385709D01*
X145691598Y-110442121D01*
X145691600Y-110442121D01*
X145696913Y-110443545D01*
X145925000Y-110463500D01*
X146153087Y-110443545D01*
X146158400Y-110442121D01*
X146158402Y-110442121D01*
X146368933Y-110385709D01*
X146368935Y-110385708D01*
X146374243Y-110384286D01*
X146380237Y-110381491D01*
X146576763Y-110289850D01*
X146576768Y-110289847D01*
X146581750Y-110287524D01*
X146651101Y-110238964D01*
X146764791Y-110159358D01*
X146764794Y-110159356D01*
X146769302Y-110156199D01*
X146931199Y-109994302D01*
X146934359Y-109989790D01*
X147059367Y-109811259D01*
X147059368Y-109811257D01*
X147062524Y-109806750D01*
X147064847Y-109801768D01*
X147064850Y-109801763D01*
X147156963Y-109604225D01*
X147156964Y-109604224D01*
X147159286Y-109599243D01*
X147196019Y-109462157D01*
X147208246Y-109416522D01*
X152262269Y-109416522D01*
X152309761Y-109593761D01*
X152313509Y-109604057D01*
X152405583Y-109801513D01*
X152411066Y-109811009D01*
X152536025Y-109989469D01*
X152543081Y-109997877D01*
X152697123Y-110151919D01*
X152705531Y-110158975D01*
X152883991Y-110283934D01*
X152893487Y-110289417D01*
X153090943Y-110381491D01*
X153101239Y-110385239D01*
X153273503Y-110431398D01*
X153287599Y-110431062D01*
X153291000Y-110423120D01*
X153291000Y-109422115D01*
X153286525Y-109406876D01*
X153285135Y-109405671D01*
X153277452Y-109404000D01*
X152277029Y-109404000D01*
X152263498Y-109407973D01*
X152262269Y-109416522D01*
X147208246Y-109416522D01*
X147217121Y-109383402D01*
X147217121Y-109383400D01*
X147218545Y-109378087D01*
X147238500Y-109150000D01*
X147229860Y-109051243D01*
X147219025Y-108927397D01*
X147219025Y-108927395D01*
X147218545Y-108921913D01*
X147218002Y-108919886D01*
X147225751Y-108850375D01*
X147252875Y-108809953D01*
X149365055Y-106697773D01*
X149371321Y-106691919D01*
X149407076Y-106660728D01*
X149412803Y-106655732D01*
X149448989Y-106604245D01*
X149452915Y-106598959D01*
X149476762Y-106568545D01*
X149491749Y-106549431D01*
X149494875Y-106542507D01*
X149496755Y-106539403D01*
X149503919Y-106526843D01*
X149505628Y-106523656D01*
X149509998Y-106517438D01*
X149532856Y-106458810D01*
X149535410Y-106452734D01*
X149558182Y-106402300D01*
X149558183Y-106402298D01*
X149561309Y-106395374D01*
X149562693Y-106387905D01*
X149563782Y-106384431D01*
X149567732Y-106370564D01*
X149568640Y-106367030D01*
X149571399Y-106359952D01*
X149579612Y-106297564D01*
X149580642Y-106291059D01*
X149581884Y-106284358D01*
X149592113Y-106229172D01*
X149588710Y-106170158D01*
X149588501Y-106162904D01*
X149588501Y-104304666D01*
X149608503Y-104236545D01*
X149662159Y-104190052D01*
X149732433Y-104179948D01*
X149750691Y-104184532D01*
X149750757Y-104184286D01*
X149966598Y-104242121D01*
X149966600Y-104242121D01*
X149971913Y-104243545D01*
X150200000Y-104263500D01*
X150428087Y-104243545D01*
X150433400Y-104242121D01*
X150433402Y-104242121D01*
X150643933Y-104185709D01*
X150643935Y-104185708D01*
X150649243Y-104184286D01*
X150668477Y-104175317D01*
X150851763Y-104089850D01*
X150851768Y-104089847D01*
X150856750Y-104087524D01*
X150861259Y-104084367D01*
X151039791Y-103959358D01*
X151039794Y-103959356D01*
X151044302Y-103956199D01*
X151206199Y-103794302D01*
X151223030Y-103770266D01*
X151334367Y-103611259D01*
X151334368Y-103611257D01*
X151337524Y-103606750D01*
X151339847Y-103601768D01*
X151339850Y-103601763D01*
X151431963Y-103404225D01*
X151431964Y-103404224D01*
X151434286Y-103399243D01*
X151493545Y-103178087D01*
X151513500Y-102950000D01*
X151493545Y-102721913D01*
X151472540Y-102643521D01*
X151435709Y-102506067D01*
X151435708Y-102506065D01*
X151434286Y-102500757D01*
X151409500Y-102447603D01*
X151339850Y-102298237D01*
X151339847Y-102298232D01*
X151337524Y-102293250D01*
X151289735Y-102225000D01*
X151209358Y-102110209D01*
X151209356Y-102110206D01*
X151206199Y-102105698D01*
X151157197Y-102056696D01*
X151123171Y-101994384D01*
X151128236Y-101923569D01*
X151170783Y-101866733D01*
X151237303Y-101841922D01*
X151246292Y-101841601D01*
X153741442Y-101841601D01*
X153750011Y-101841893D01*
X153797343Y-101845120D01*
X153797347Y-101845120D01*
X153804919Y-101845636D01*
X153866924Y-101834814D01*
X153873414Y-101833857D01*
X153935909Y-101826294D01*
X153943016Y-101823608D01*
X153946510Y-101822750D01*
X153960469Y-101818931D01*
X153963951Y-101817880D01*
X153971435Y-101816574D01*
X153978385Y-101813523D01*
X153978392Y-101813521D01*
X154029041Y-101791287D01*
X154035150Y-101788794D01*
X154086926Y-101769230D01*
X154086930Y-101769228D01*
X154094030Y-101766545D01*
X154100287Y-101762245D01*
X154103479Y-101760576D01*
X154116111Y-101753545D01*
X154119254Y-101751686D01*
X154126211Y-101748632D01*
X154176130Y-101710327D01*
X154181450Y-101706463D01*
X154227075Y-101675106D01*
X154227077Y-101675105D01*
X154233334Y-101670804D01*
X154272671Y-101626653D01*
X154277652Y-101621377D01*
X154701407Y-101197623D01*
X154763719Y-101163598D01*
X154834535Y-101168663D01*
G37*
%TD.AperFunction*%
%TA.AperFunction,Conductor*%
G36*
X141323921Y-97163301D02*
G01*
X141370414Y-97216957D01*
X141381800Y-97269299D01*
X141381800Y-97627885D01*
X141386275Y-97643124D01*
X141387665Y-97644329D01*
X141395348Y-97646000D01*
X142605998Y-97646001D01*
X142606004Y-97646000D01*
X142988000Y-97646001D01*
X143056121Y-97666003D01*
X143102614Y-97719659D01*
X143114000Y-97772001D01*
X143113999Y-99360085D01*
X143118474Y-99375324D01*
X143119864Y-99376529D01*
X143127547Y-99378200D01*
X143822943Y-99378200D01*
X143827450Y-99378039D01*
X143891469Y-99373460D01*
X143904691Y-99371074D01*
X144029658Y-99334381D01*
X144045892Y-99326967D01*
X144153560Y-99257774D01*
X144167047Y-99246088D01*
X144250862Y-99149360D01*
X144260509Y-99134348D01*
X144279838Y-99092024D01*
X144326331Y-99038369D01*
X144394452Y-99018367D01*
X144462573Y-99038370D01*
X144474936Y-99047423D01*
X144547875Y-99107978D01*
X144547880Y-99107981D01*
X144551853Y-99111280D01*
X144761075Y-99233540D01*
X144987456Y-99319986D01*
X144992522Y-99321017D01*
X144992523Y-99321017D01*
X145219837Y-99367265D01*
X145219841Y-99367265D01*
X145224916Y-99368298D01*
X145230092Y-99368488D01*
X145230094Y-99368488D01*
X145461914Y-99376989D01*
X145461918Y-99376989D01*
X145467078Y-99377178D01*
X145472198Y-99376522D01*
X145472200Y-99376522D01*
X145547405Y-99366888D01*
X145707439Y-99346387D01*
X145712393Y-99344901D01*
X145712401Y-99344899D01*
X145751598Y-99333139D01*
X145822593Y-99332721D01*
X145876901Y-99364729D01*
X146964596Y-100452424D01*
X146998622Y-100514736D01*
X147001501Y-100541519D01*
X147001501Y-101511930D01*
X146981499Y-101580051D01*
X146927843Y-101626544D01*
X146884491Y-101637609D01*
X146833659Y-101641245D01*
X146833658Y-101641245D01*
X146826921Y-101641727D01*
X146748835Y-101664655D01*
X146695330Y-101680365D01*
X146695328Y-101680366D01*
X146686684Y-101682904D01*
X146679105Y-101687775D01*
X146571309Y-101757051D01*
X146571306Y-101757053D01*
X146563729Y-101761923D01*
X146557828Y-101768733D01*
X146473918Y-101865569D01*
X146473916Y-101865572D01*
X146468016Y-101872381D01*
X146435400Y-101943801D01*
X146433646Y-101947641D01*
X146387153Y-102001297D01*
X146319032Y-102021299D01*
X144341161Y-102021299D01*
X144332592Y-102021007D01*
X144285260Y-102017780D01*
X144285256Y-102017780D01*
X144277684Y-102017264D01*
X144270208Y-102018569D01*
X144270205Y-102018569D01*
X144215711Y-102028080D01*
X144209185Y-102029043D01*
X144154246Y-102035691D01*
X144154236Y-102035694D01*
X144146695Y-102036606D01*
X144139587Y-102039292D01*
X144136065Y-102040157D01*
X144122136Y-102043968D01*
X144118653Y-102045020D01*
X144111168Y-102046326D01*
X144104213Y-102049379D01*
X144053559Y-102071615D01*
X144047455Y-102074106D01*
X144026728Y-102081938D01*
X144009081Y-102088606D01*
X143938287Y-102093974D01*
X143875830Y-102060215D01*
X143841539Y-101998049D01*
X143843986Y-101934111D01*
X143868801Y-101852438D01*
X143868802Y-101852432D01*
X143870305Y-101847486D01*
X143892534Y-101678644D01*
X143901498Y-101610555D01*
X143901498Y-101610551D01*
X143901935Y-101607234D01*
X143903224Y-101554495D01*
X143903618Y-101538365D01*
X143903618Y-101538361D01*
X143903700Y-101535000D01*
X143883844Y-101293490D01*
X143824810Y-101058466D01*
X143728183Y-100836239D01*
X143596559Y-100632778D01*
X143580745Y-100615398D01*
X143436949Y-100457369D01*
X143436947Y-100457368D01*
X143433471Y-100453547D01*
X143429420Y-100450348D01*
X143429416Y-100450344D01*
X143247355Y-100306561D01*
X143247351Y-100306559D01*
X143243300Y-100303359D01*
X143031153Y-100186248D01*
X143026284Y-100184524D01*
X143026280Y-100184522D01*
X142807603Y-100107084D01*
X142807599Y-100107083D01*
X142802728Y-100105358D01*
X142797638Y-100104451D01*
X142797633Y-100104450D01*
X142667999Y-100081360D01*
X142564158Y-100062863D01*
X142473181Y-100061751D01*
X142327021Y-100059965D01*
X142327019Y-100059965D01*
X142321851Y-100059902D01*
X142184076Y-100080984D01*
X142087423Y-100095774D01*
X142087420Y-100095775D01*
X142082314Y-100096556D01*
X142055666Y-100105266D01*
X141984703Y-100107419D01*
X141927424Y-100074597D01*
X140129946Y-98277119D01*
X140095920Y-98214807D01*
X140097830Y-98167547D01*
X141381800Y-98167547D01*
X141381800Y-98862943D01*
X141381961Y-98867450D01*
X141386540Y-98931469D01*
X141388926Y-98944691D01*
X141425619Y-99069658D01*
X141433033Y-99085892D01*
X141502226Y-99193560D01*
X141513912Y-99207047D01*
X141610640Y-99290862D01*
X141625648Y-99300507D01*
X141742075Y-99353677D01*
X141759188Y-99358702D01*
X141890354Y-99377561D01*
X141899295Y-99378200D01*
X142587885Y-99378200D01*
X142603124Y-99373725D01*
X142604329Y-99372335D01*
X142606000Y-99364652D01*
X142606001Y-98172115D01*
X142601526Y-98156876D01*
X142600136Y-98155671D01*
X142592453Y-98154000D01*
X141399915Y-98153999D01*
X141384676Y-98158474D01*
X141383471Y-98159864D01*
X141381800Y-98167547D01*
X140097830Y-98167547D01*
X140098483Y-98151397D01*
X140110305Y-98112486D01*
X140129211Y-97968882D01*
X140141498Y-97875555D01*
X140141498Y-97875551D01*
X140141935Y-97872234D01*
X140143700Y-97800000D01*
X140123844Y-97558490D01*
X140064810Y-97323466D01*
X140062750Y-97318727D01*
X140061082Y-97313829D01*
X140062337Y-97313402D01*
X140054282Y-97249104D01*
X140084943Y-97185070D01*
X140145357Y-97147778D01*
X140178653Y-97143299D01*
X141255800Y-97143299D01*
X141323921Y-97163301D01*
G37*
%TD.AperFunction*%
%TA.AperFunction,Conductor*%
G36*
X156584121Y-84428002D02*
G01*
X156630614Y-84481658D01*
X156642000Y-84534000D01*
X156642000Y-85063506D01*
X156621998Y-85131627D01*
X156568342Y-85178120D01*
X156498069Y-85188224D01*
X156424448Y-85177639D01*
X156415505Y-85177000D01*
X155422115Y-85177000D01*
X155406876Y-85181475D01*
X155405671Y-85182865D01*
X155404000Y-85190548D01*
X155403999Y-86705998D01*
X155404000Y-86706004D01*
X155403999Y-87088000D01*
X155383997Y-87156121D01*
X155330341Y-87202614D01*
X155277999Y-87214000D01*
X153385115Y-87213999D01*
X153369876Y-87218474D01*
X153368671Y-87219864D01*
X153367000Y-87227547D01*
X153367000Y-88227743D01*
X153367161Y-88232250D01*
X153371740Y-88296269D01*
X153374126Y-88309491D01*
X153410819Y-88434458D01*
X153418233Y-88450692D01*
X153487426Y-88558360D01*
X153499112Y-88571847D01*
X153595840Y-88655662D01*
X153610848Y-88665307D01*
X153727275Y-88718477D01*
X153744389Y-88723502D01*
X153840363Y-88737301D01*
X153904944Y-88766794D01*
X153943328Y-88826520D01*
X153943328Y-88897517D01*
X153906333Y-88956022D01*
X153892627Y-88968255D01*
X153875773Y-88983298D01*
X153867057Y-88991077D01*
X153698025Y-89194316D01*
X153560890Y-89420308D01*
X153559081Y-89424622D01*
X153559080Y-89424624D01*
X153466612Y-89645136D01*
X153458665Y-89664087D01*
X153457515Y-89668615D01*
X153457514Y-89668618D01*
X153443626Y-89723302D01*
X153407471Y-89784404D01*
X153344022Y-89816258D01*
X153273423Y-89808753D01*
X153232408Y-89781382D01*
X151562277Y-88111252D01*
X151528252Y-88048940D01*
X151533316Y-87978125D01*
X151545401Y-87953994D01*
X151563392Y-87926025D01*
X151637370Y-87811013D01*
X151745942Y-87569993D01*
X151792314Y-87405571D01*
X151816426Y-87320077D01*
X151816427Y-87320074D01*
X151817696Y-87315573D01*
X151834696Y-87181942D01*
X151850658Y-87056472D01*
X151850658Y-87056466D01*
X151851056Y-87053341D01*
X151851353Y-87042022D01*
X151853417Y-86963160D01*
X151853500Y-86960000D01*
X151842243Y-86808516D01*
X151834256Y-86701034D01*
X151834255Y-86701030D01*
X151833910Y-86696382D01*
X151775570Y-86438555D01*
X151750406Y-86373846D01*
X151681454Y-86196536D01*
X151681453Y-86196534D01*
X151679761Y-86192183D01*
X151666632Y-86169211D01*
X151611161Y-86072157D01*
X151548589Y-85962679D01*
X151466761Y-85858882D01*
X151387826Y-85758753D01*
X151387823Y-85758750D01*
X151384934Y-85755085D01*
X151320526Y-85694495D01*
X153367000Y-85694495D01*
X153367000Y-86687885D01*
X153371475Y-86703124D01*
X153372865Y-86704329D01*
X153380548Y-86706000D01*
X154877885Y-86706001D01*
X154893124Y-86701526D01*
X154894329Y-86700136D01*
X154896000Y-86692453D01*
X154896001Y-85195115D01*
X154891526Y-85179876D01*
X154890136Y-85178671D01*
X154882453Y-85177000D01*
X153882257Y-85177000D01*
X153877750Y-85177161D01*
X153813731Y-85181740D01*
X153800509Y-85184126D01*
X153675542Y-85220819D01*
X153659308Y-85228233D01*
X153551640Y-85297426D01*
X153538153Y-85309112D01*
X153454338Y-85405840D01*
X153444693Y-85420848D01*
X153391523Y-85537275D01*
X153386498Y-85554388D01*
X153367639Y-85685554D01*
X153367000Y-85694495D01*
X151320526Y-85694495D01*
X151192393Y-85573960D01*
X151037599Y-85466576D01*
X150979037Y-85425949D01*
X150979034Y-85425947D01*
X150975195Y-85423284D01*
X150971005Y-85421218D01*
X150971002Y-85421216D01*
X150742299Y-85308433D01*
X150742296Y-85308432D01*
X150738111Y-85306368D01*
X150710177Y-85297426D01*
X150490795Y-85227201D01*
X150490797Y-85227201D01*
X150486350Y-85225778D01*
X150230594Y-85184126D01*
X150230054Y-85184038D01*
X150230053Y-85184038D01*
X150225442Y-85183287D01*
X150093281Y-85181557D01*
X149965797Y-85179888D01*
X149965794Y-85179888D01*
X149961120Y-85179827D01*
X149699189Y-85215474D01*
X149694703Y-85216782D01*
X149694701Y-85216782D01*
X149627008Y-85236513D01*
X149445405Y-85289445D01*
X149205342Y-85400116D01*
X149201437Y-85402676D01*
X149201432Y-85402679D01*
X148988187Y-85542488D01*
X148988182Y-85542492D01*
X148984274Y-85545054D01*
X148980782Y-85548171D01*
X148816840Y-85694495D01*
X148787057Y-85721077D01*
X148618025Y-85924316D01*
X148480890Y-86150308D01*
X148479081Y-86154622D01*
X148479080Y-86154624D01*
X148381767Y-86386690D01*
X148378665Y-86394087D01*
X148313595Y-86650298D01*
X148313127Y-86654949D01*
X148313126Y-86654953D01*
X148308486Y-86701034D01*
X148287111Y-86913313D01*
X148287335Y-86917979D01*
X148287335Y-86917984D01*
X148291468Y-87004017D01*
X148299794Y-87177354D01*
X148351365Y-87436620D01*
X148440692Y-87685415D01*
X148465200Y-87731026D01*
X148510290Y-87814943D01*
X148565811Y-87918274D01*
X148568606Y-87922017D01*
X148568608Y-87922020D01*
X148721183Y-88126343D01*
X148721188Y-88126349D01*
X148723975Y-88130081D01*
X148727284Y-88133361D01*
X148727289Y-88133367D01*
X148904957Y-88309491D01*
X148911709Y-88316184D01*
X148915471Y-88318942D01*
X148915474Y-88318945D01*
X149095909Y-88451245D01*
X149124889Y-88472494D01*
X149147450Y-88484364D01*
X149198421Y-88533783D01*
X149214584Y-88602915D01*
X149190805Y-88669811D01*
X149157868Y-88701241D01*
X148984274Y-88815054D01*
X148903754Y-88886921D01*
X148795773Y-88983298D01*
X148787057Y-88991077D01*
X148618025Y-89194316D01*
X148480890Y-89420308D01*
X148479081Y-89424622D01*
X148479080Y-89424624D01*
X148466667Y-89454226D01*
X148421878Y-89509312D01*
X148350470Y-89531500D01*
X146899500Y-89531500D01*
X146831379Y-89511498D01*
X146784886Y-89457842D01*
X146773500Y-89405500D01*
X146773500Y-88960000D01*
X146768273Y-88886921D01*
X146727096Y-88746684D01*
X146697893Y-88701243D01*
X146652949Y-88631309D01*
X146652947Y-88631306D01*
X146648077Y-88623729D01*
X146615588Y-88595577D01*
X146544431Y-88533918D01*
X146544428Y-88533916D01*
X146537619Y-88528016D01*
X146455175Y-88490365D01*
X146412864Y-88471042D01*
X146412863Y-88471042D01*
X146404670Y-88467300D01*
X146395755Y-88466018D01*
X146395754Y-88466018D01*
X146303735Y-88452788D01*
X146239154Y-88423295D01*
X146200770Y-88363569D01*
X146200770Y-88292572D01*
X146233350Y-88238202D01*
X146236505Y-88235102D01*
X146240072Y-88232082D01*
X146243152Y-88228570D01*
X146243156Y-88228566D01*
X146369350Y-88084668D01*
X146414366Y-88033337D01*
X146557370Y-87811013D01*
X146665942Y-87569993D01*
X146712314Y-87405571D01*
X146736426Y-87320077D01*
X146736427Y-87320074D01*
X146737696Y-87315573D01*
X146754696Y-87181942D01*
X146770658Y-87056472D01*
X146770658Y-87056466D01*
X146771056Y-87053341D01*
X146771353Y-87042022D01*
X146773417Y-86963160D01*
X146773500Y-86960000D01*
X146762243Y-86808516D01*
X146754256Y-86701034D01*
X146754255Y-86701030D01*
X146753910Y-86696382D01*
X146695570Y-86438555D01*
X146670406Y-86373846D01*
X146601454Y-86196536D01*
X146601453Y-86196534D01*
X146599761Y-86192183D01*
X146586632Y-86169211D01*
X146531161Y-86072157D01*
X146468589Y-85962679D01*
X146386761Y-85858882D01*
X146307826Y-85758753D01*
X146307823Y-85758750D01*
X146304934Y-85755085D01*
X146112393Y-85573960D01*
X145957599Y-85466576D01*
X145899037Y-85425949D01*
X145899034Y-85425947D01*
X145895195Y-85423284D01*
X145891005Y-85421218D01*
X145891002Y-85421216D01*
X145662299Y-85308433D01*
X145662296Y-85308432D01*
X145658111Y-85306368D01*
X145630177Y-85297426D01*
X145410795Y-85227201D01*
X145410797Y-85227201D01*
X145406350Y-85225778D01*
X145150594Y-85184126D01*
X145150054Y-85184038D01*
X145150053Y-85184038D01*
X145145442Y-85183287D01*
X145013281Y-85181557D01*
X144885797Y-85179888D01*
X144885794Y-85179888D01*
X144881120Y-85179827D01*
X144619189Y-85215474D01*
X144614703Y-85216782D01*
X144614701Y-85216782D01*
X144547008Y-85236513D01*
X144365405Y-85289445D01*
X144125342Y-85400116D01*
X144121437Y-85402676D01*
X144121432Y-85402679D01*
X143908187Y-85542488D01*
X143908182Y-85542492D01*
X143904274Y-85545054D01*
X143900782Y-85548171D01*
X143736840Y-85694495D01*
X143707057Y-85721077D01*
X143538025Y-85924316D01*
X143400890Y-86150308D01*
X143399081Y-86154622D01*
X143399080Y-86154624D01*
X143301767Y-86386690D01*
X143298665Y-86394087D01*
X143233595Y-86650298D01*
X143233127Y-86654949D01*
X143233126Y-86654953D01*
X143228486Y-86701034D01*
X143207111Y-86913313D01*
X143207335Y-86917979D01*
X143207335Y-86917984D01*
X143211468Y-87004017D01*
X143219794Y-87177354D01*
X143271365Y-87436620D01*
X143360692Y-87685415D01*
X143385200Y-87731026D01*
X143430290Y-87814943D01*
X143485811Y-87918274D01*
X143488606Y-87922017D01*
X143488608Y-87922020D01*
X143641183Y-88126343D01*
X143641188Y-88126349D01*
X143643975Y-88130081D01*
X143647290Y-88133367D01*
X143749726Y-88234914D01*
X143784023Y-88297077D01*
X143779266Y-88367914D01*
X143736968Y-88424935D01*
X143670008Y-88450076D01*
X143646921Y-88451727D01*
X143581140Y-88471042D01*
X143515330Y-88490365D01*
X143515328Y-88490366D01*
X143506684Y-88492904D01*
X143499105Y-88497775D01*
X143391309Y-88567051D01*
X143391306Y-88567053D01*
X143383729Y-88571923D01*
X143377828Y-88578733D01*
X143293918Y-88675569D01*
X143293916Y-88675572D01*
X143288016Y-88682381D01*
X143284272Y-88690579D01*
X143283730Y-88691767D01*
X143227300Y-88815330D01*
X143226018Y-88824245D01*
X143226018Y-88824246D01*
X143207139Y-88955552D01*
X143207138Y-88955559D01*
X143206500Y-88960000D01*
X143206500Y-91500000D01*
X143211727Y-91573079D01*
X143214610Y-91582896D01*
X143249134Y-91700475D01*
X143252904Y-91713316D01*
X143271656Y-91742494D01*
X143327051Y-91828691D01*
X143327053Y-91828694D01*
X143331923Y-91836271D01*
X143363225Y-91863394D01*
X143367174Y-91866816D01*
X143405557Y-91926543D01*
X143405556Y-91997540D01*
X143367171Y-92057265D01*
X143306734Y-92086033D01*
X143301913Y-92086455D01*
X143296605Y-92087877D01*
X143296601Y-92087878D01*
X143086067Y-92144291D01*
X143086065Y-92144292D01*
X143080757Y-92145714D01*
X143075776Y-92148036D01*
X143075775Y-92148037D01*
X142878237Y-92240150D01*
X142878232Y-92240153D01*
X142873250Y-92242476D01*
X142868743Y-92245632D01*
X142868741Y-92245633D01*
X142690209Y-92370642D01*
X142690206Y-92370644D01*
X142685698Y-92373801D01*
X142523801Y-92535698D01*
X142520644Y-92540206D01*
X142520642Y-92540209D01*
X142400480Y-92711819D01*
X142392476Y-92723250D01*
X142390153Y-92728232D01*
X142390150Y-92728237D01*
X142298037Y-92925775D01*
X142295714Y-92930757D01*
X142294292Y-92936065D01*
X142294291Y-92936067D01*
X142237879Y-93146598D01*
X142236455Y-93151913D01*
X142216500Y-93380000D01*
X142236455Y-93608087D01*
X142237879Y-93613400D01*
X142237879Y-93613402D01*
X142247615Y-93649735D01*
X142295714Y-93829243D01*
X142298036Y-93834224D01*
X142298037Y-93834225D01*
X142390150Y-94031763D01*
X142390153Y-94031768D01*
X142392476Y-94036750D01*
X142395632Y-94041257D01*
X142395633Y-94041259D01*
X142520642Y-94219790D01*
X142523801Y-94224302D01*
X142685698Y-94386199D01*
X142690206Y-94389356D01*
X142690209Y-94389358D01*
X142868741Y-94514367D01*
X142873250Y-94517524D01*
X142878232Y-94519847D01*
X142878237Y-94519850D01*
X143031345Y-94591245D01*
X143080757Y-94614286D01*
X143086065Y-94615708D01*
X143086067Y-94615709D01*
X143296598Y-94672121D01*
X143296600Y-94672121D01*
X143301913Y-94673545D01*
X143530000Y-94693500D01*
X143758087Y-94673545D01*
X143763400Y-94672121D01*
X143763402Y-94672121D01*
X143973933Y-94615709D01*
X143973935Y-94615708D01*
X143979243Y-94614286D01*
X144028655Y-94591245D01*
X144181763Y-94519850D01*
X144181768Y-94519847D01*
X144186750Y-94517524D01*
X144191259Y-94514367D01*
X144369791Y-94389358D01*
X144369794Y-94389356D01*
X144374302Y-94386199D01*
X144536199Y-94224302D01*
X144600668Y-94132230D01*
X144656125Y-94087901D01*
X144703881Y-94078500D01*
X147588482Y-94078500D01*
X147656603Y-94098502D01*
X147677578Y-94115405D01*
X148097125Y-94534953D01*
X148131150Y-94597265D01*
X148132088Y-94644551D01*
X148131455Y-94646913D01*
X148130977Y-94652378D01*
X148130976Y-94652383D01*
X148115813Y-94825706D01*
X148111500Y-94875000D01*
X148131455Y-95103087D01*
X148132879Y-95108400D01*
X148132879Y-95108402D01*
X148154150Y-95187784D01*
X148190714Y-95324243D01*
X148193036Y-95329224D01*
X148193037Y-95329225D01*
X148285150Y-95526763D01*
X148285153Y-95526768D01*
X148287476Y-95531750D01*
X148290632Y-95536257D01*
X148290633Y-95536259D01*
X148381962Y-95666690D01*
X148418801Y-95719302D01*
X148580698Y-95881199D01*
X148585206Y-95884356D01*
X148585209Y-95884358D01*
X148707169Y-95969755D01*
X148768250Y-96012524D01*
X148773232Y-96014847D01*
X148773237Y-96014850D01*
X148873500Y-96061603D01*
X148975757Y-96109286D01*
X148981065Y-96110708D01*
X148981067Y-96110709D01*
X149191598Y-96167121D01*
X149191600Y-96167121D01*
X149196913Y-96168545D01*
X149425000Y-96188500D01*
X149653087Y-96168545D01*
X149655115Y-96168002D01*
X149724627Y-96175751D01*
X149765045Y-96202873D01*
X151115644Y-97553471D01*
X152282075Y-98719902D01*
X152316101Y-98782214D01*
X152318501Y-98819979D01*
X152311500Y-98900000D01*
X152331455Y-99128087D01*
X152332879Y-99133400D01*
X152332879Y-99133402D01*
X152382875Y-99319986D01*
X152390714Y-99349243D01*
X152393036Y-99354224D01*
X152393037Y-99354225D01*
X152485150Y-99551763D01*
X152485153Y-99551768D01*
X152487476Y-99556750D01*
X152490632Y-99561257D01*
X152490633Y-99561259D01*
X152612125Y-99734767D01*
X152618801Y-99744302D01*
X152780698Y-99906199D01*
X152785206Y-99909356D01*
X152785209Y-99909358D01*
X152963741Y-100034367D01*
X152968250Y-100037524D01*
X152973232Y-100039847D01*
X152973237Y-100039850D01*
X153170775Y-100131963D01*
X153175757Y-100134286D01*
X153181065Y-100135708D01*
X153181067Y-100135709D01*
X153391598Y-100192121D01*
X153391600Y-100192121D01*
X153396913Y-100193545D01*
X153402393Y-100194024D01*
X153405175Y-100194515D01*
X153468787Y-100226043D01*
X153505256Y-100286958D01*
X153503003Y-100357918D01*
X153462743Y-100416396D01*
X153397258Y-100443825D01*
X153383294Y-100444601D01*
X150158557Y-100444601D01*
X150149988Y-100444309D01*
X150102656Y-100441082D01*
X150102652Y-100441082D01*
X150095080Y-100440566D01*
X150087604Y-100441871D01*
X150087601Y-100441871D01*
X150033107Y-100451382D01*
X150026581Y-100452345D01*
X149971642Y-100458993D01*
X149971632Y-100458996D01*
X149964091Y-100459908D01*
X149956983Y-100462594D01*
X149953461Y-100463459D01*
X149939532Y-100467270D01*
X149936049Y-100468322D01*
X149928564Y-100469628D01*
X149889560Y-100486750D01*
X149870955Y-100494917D01*
X149864846Y-100497410D01*
X149813075Y-100516972D01*
X149813073Y-100516973D01*
X149805970Y-100519657D01*
X149799710Y-100523960D01*
X149796507Y-100525634D01*
X149783891Y-100532655D01*
X149780742Y-100534518D01*
X149773788Y-100537570D01*
X149723860Y-100575882D01*
X149718540Y-100579746D01*
X149666666Y-100615398D01*
X149661616Y-100621066D01*
X149661615Y-100621067D01*
X149627329Y-100659549D01*
X149622365Y-100664807D01*
X148676331Y-101610842D01*
X148614020Y-101644866D01*
X148569306Y-101646464D01*
X148506569Y-101637444D01*
X148441988Y-101607951D01*
X148403604Y-101548225D01*
X148398500Y-101512726D01*
X148398500Y-100226658D01*
X148398792Y-100218089D01*
X148402019Y-100170757D01*
X148402019Y-100170753D01*
X148402535Y-100163181D01*
X148391715Y-100101187D01*
X148390753Y-100094666D01*
X148384106Y-100039736D01*
X148384106Y-100039734D01*
X148383193Y-100032193D01*
X148380508Y-100025088D01*
X148379647Y-100021581D01*
X148375824Y-100007606D01*
X148374778Y-100004141D01*
X148373473Y-99996665D01*
X148348181Y-99939049D01*
X148345690Y-99932945D01*
X148326129Y-99881176D01*
X148326128Y-99881174D01*
X148323444Y-99874071D01*
X148319141Y-99867811D01*
X148317467Y-99864608D01*
X148310451Y-99852002D01*
X148308586Y-99848849D01*
X148305531Y-99841889D01*
X148267207Y-99791943D01*
X148263350Y-99786634D01*
X148232005Y-99741026D01*
X148232004Y-99741024D01*
X148227703Y-99734767D01*
X148183561Y-99695438D01*
X148178285Y-99690456D01*
X148062605Y-99574776D01*
X148028579Y-99512464D01*
X148033644Y-99441649D01*
X148076191Y-99384813D01*
X148135689Y-99360703D01*
X148204917Y-99351834D01*
X148242312Y-99347044D01*
X148242315Y-99347043D01*
X148247439Y-99346387D01*
X148479543Y-99276752D01*
X148484182Y-99274479D01*
X148484188Y-99274477D01*
X148692520Y-99172416D01*
X148697158Y-99170144D01*
X148806678Y-99092024D01*
X148890226Y-99032430D01*
X148890231Y-99032426D01*
X148894438Y-99029425D01*
X149066087Y-98858375D01*
X149095781Y-98817052D01*
X149204475Y-98665787D01*
X149207493Y-98661587D01*
X149240050Y-98595714D01*
X149269574Y-98535976D01*
X149314860Y-98444346D01*
X149381901Y-98223691D01*
X149383801Y-98217438D01*
X149383802Y-98217432D01*
X149385305Y-98212486D01*
X149416935Y-97972234D01*
X149418700Y-97900000D01*
X149398844Y-97658490D01*
X149339810Y-97423466D01*
X149272776Y-97269299D01*
X149245243Y-97205976D01*
X149245241Y-97205973D01*
X149243183Y-97201239D01*
X149111559Y-96997778D01*
X149101766Y-96987015D01*
X148951949Y-96822369D01*
X148951947Y-96822368D01*
X148948471Y-96818547D01*
X148944420Y-96815348D01*
X148944416Y-96815344D01*
X148762355Y-96671561D01*
X148762351Y-96671559D01*
X148758300Y-96668359D01*
X148546153Y-96551248D01*
X148541284Y-96549524D01*
X148541280Y-96549522D01*
X148322603Y-96472084D01*
X148322599Y-96472083D01*
X148317728Y-96470358D01*
X148312638Y-96469451D01*
X148312633Y-96469450D01*
X148182999Y-96446360D01*
X148079158Y-96427863D01*
X147988181Y-96426751D01*
X147842021Y-96424965D01*
X147842019Y-96424965D01*
X147836851Y-96424902D01*
X147597314Y-96461556D01*
X147589509Y-96464107D01*
X147588277Y-96464144D01*
X147587368Y-96464361D01*
X147587323Y-96464173D01*
X147518547Y-96466260D01*
X147461267Y-96433439D01*
X146997582Y-95969755D01*
X146991728Y-95963489D01*
X146989772Y-95961247D01*
X146955532Y-95921997D01*
X146904046Y-95885812D01*
X146898750Y-95881879D01*
X146855205Y-95847735D01*
X146855204Y-95847734D01*
X146849231Y-95843051D01*
X146842307Y-95839925D01*
X146839211Y-95838050D01*
X146826643Y-95830881D01*
X146823455Y-95829171D01*
X146817238Y-95824802D01*
X146810163Y-95822043D01*
X146810160Y-95822042D01*
X146758598Y-95801939D01*
X146752518Y-95799383D01*
X146746392Y-95796617D01*
X146695173Y-95773491D01*
X146687704Y-95772107D01*
X146684234Y-95771019D01*
X146670335Y-95767060D01*
X146666827Y-95766159D01*
X146659752Y-95763401D01*
X146597357Y-95755187D01*
X146590841Y-95754155D01*
X146536438Y-95744072D01*
X146528971Y-95742688D01*
X146521391Y-95743125D01*
X146521390Y-95743125D01*
X146469969Y-95746090D01*
X146462716Y-95746299D01*
X137506859Y-95746299D01*
X137498290Y-95746007D01*
X137450958Y-95742780D01*
X137450954Y-95742780D01*
X137443382Y-95742264D01*
X137435905Y-95743569D01*
X137435902Y-95743569D01*
X137381394Y-95753082D01*
X137374870Y-95754045D01*
X137319934Y-95760693D01*
X137319931Y-95760694D01*
X137312393Y-95761606D01*
X137305288Y-95764291D01*
X137301741Y-95765162D01*
X137287865Y-95768958D01*
X137284353Y-95770019D01*
X137276867Y-95771325D01*
X137219234Y-95796625D01*
X137213143Y-95799110D01*
X137161377Y-95818670D01*
X137161375Y-95818671D01*
X137154272Y-95821355D01*
X137148012Y-95825658D01*
X137144809Y-95827332D01*
X137132193Y-95834353D01*
X137129044Y-95836216D01*
X137122090Y-95839268D01*
X137072162Y-95877580D01*
X137066842Y-95881444D01*
X137025904Y-95909580D01*
X137014968Y-95917096D01*
X137009918Y-95922764D01*
X137009917Y-95922765D01*
X136975631Y-95961247D01*
X136970649Y-95966523D01*
X136603603Y-96333569D01*
X136541291Y-96367595D01*
X136492415Y-96368521D01*
X136264158Y-96327863D01*
X136173181Y-96326751D01*
X136027021Y-96324965D01*
X136027019Y-96324965D01*
X136021851Y-96324902D01*
X135782314Y-96361556D01*
X135551981Y-96436841D01*
X135547393Y-96439229D01*
X135547389Y-96439231D01*
X135433479Y-96498529D01*
X135337036Y-96548734D01*
X135332903Y-96551837D01*
X135332900Y-96551839D01*
X135198206Y-96652970D01*
X135131721Y-96677876D01*
X135062325Y-96662884D01*
X135016555Y-96620331D01*
X134943149Y-96506109D01*
X134943147Y-96506106D01*
X134938277Y-96498529D01*
X134905766Y-96470358D01*
X134834631Y-96408718D01*
X134834628Y-96408716D01*
X134827819Y-96402816D01*
X134745375Y-96365165D01*
X134703064Y-96345842D01*
X134703063Y-96345842D01*
X134694870Y-96342100D01*
X134685955Y-96340818D01*
X134685954Y-96340818D01*
X134554648Y-96321939D01*
X134554641Y-96321938D01*
X134550200Y-96321300D01*
X134409500Y-96321300D01*
X134341379Y-96301298D01*
X134294886Y-96247642D01*
X134283500Y-96195300D01*
X134283500Y-92511658D01*
X134283792Y-92503089D01*
X134287019Y-92455757D01*
X134287019Y-92455753D01*
X134287535Y-92448181D01*
X134286230Y-92440705D01*
X134286230Y-92440700D01*
X134276717Y-92386191D01*
X134275754Y-92379668D01*
X134272169Y-92350047D01*
X134268193Y-92317192D01*
X134265506Y-92310081D01*
X134264637Y-92306544D01*
X134260834Y-92292644D01*
X134259781Y-92289157D01*
X134258474Y-92281665D01*
X134233182Y-92224048D01*
X134230691Y-92217942D01*
X134210864Y-92165473D01*
X134205495Y-92094680D01*
X134239252Y-92032222D01*
X134301417Y-91997930D01*
X134315011Y-91995683D01*
X134342247Y-91992700D01*
X134425017Y-91983635D01*
X134487837Y-91967096D01*
X134676131Y-91917522D01*
X134680651Y-91916332D01*
X134684947Y-91914486D01*
X134689365Y-91912965D01*
X134689723Y-91914005D01*
X134755124Y-91906110D01*
X134823466Y-91941294D01*
X135072269Y-92190097D01*
X135106295Y-92252409D01*
X135101230Y-92323224D01*
X135065592Y-92373695D01*
X135065698Y-92373801D01*
X134903801Y-92535698D01*
X134900644Y-92540206D01*
X134900642Y-92540209D01*
X134780480Y-92711819D01*
X134772476Y-92723250D01*
X134770153Y-92728232D01*
X134770150Y-92728237D01*
X134678037Y-92925775D01*
X134675714Y-92930757D01*
X134674292Y-92936065D01*
X134674291Y-92936067D01*
X134617879Y-93146598D01*
X134616455Y-93151913D01*
X134596500Y-93380000D01*
X134616455Y-93608087D01*
X134617879Y-93613400D01*
X134617879Y-93613402D01*
X134627615Y-93649735D01*
X134675714Y-93829243D01*
X134678036Y-93834224D01*
X134678037Y-93834225D01*
X134770150Y-94031763D01*
X134770153Y-94031768D01*
X134772476Y-94036750D01*
X134775632Y-94041257D01*
X134775633Y-94041259D01*
X134900642Y-94219790D01*
X134903801Y-94224302D01*
X135065698Y-94386199D01*
X135070206Y-94389356D01*
X135070209Y-94389358D01*
X135248741Y-94514367D01*
X135253250Y-94517524D01*
X135258232Y-94519847D01*
X135258237Y-94519850D01*
X135411345Y-94591245D01*
X135460757Y-94614286D01*
X135466065Y-94615708D01*
X135466067Y-94615709D01*
X135676598Y-94672121D01*
X135676600Y-94672121D01*
X135681913Y-94673545D01*
X135910000Y-94693500D01*
X136138087Y-94673545D01*
X136143400Y-94672121D01*
X136143402Y-94672121D01*
X136353933Y-94615709D01*
X136353935Y-94615708D01*
X136359243Y-94614286D01*
X136408655Y-94591245D01*
X136561763Y-94519850D01*
X136561768Y-94519847D01*
X136566750Y-94517524D01*
X136571259Y-94514367D01*
X136749791Y-94389358D01*
X136749794Y-94389356D01*
X136754302Y-94386199D01*
X136916199Y-94224302D01*
X136919359Y-94219790D01*
X137044367Y-94041259D01*
X137044368Y-94041257D01*
X137047524Y-94036750D01*
X137049847Y-94031768D01*
X137049850Y-94031763D01*
X137141963Y-93834225D01*
X137141964Y-93834224D01*
X137144286Y-93829243D01*
X137192386Y-93649735D01*
X137202121Y-93613402D01*
X137202121Y-93613400D01*
X137203545Y-93608087D01*
X137223500Y-93380000D01*
X137203545Y-93151913D01*
X137202121Y-93146598D01*
X137145709Y-92936067D01*
X137145708Y-92936065D01*
X137144286Y-92930757D01*
X137141963Y-92925775D01*
X137049850Y-92728237D01*
X137049847Y-92728232D01*
X137047524Y-92723250D01*
X137039520Y-92711819D01*
X136919358Y-92540209D01*
X136919356Y-92540206D01*
X136916199Y-92535698D01*
X136754302Y-92373801D01*
X136662230Y-92309332D01*
X136617901Y-92253875D01*
X136608500Y-92206119D01*
X136608500Y-92066658D01*
X136608792Y-92058089D01*
X136612019Y-92010757D01*
X136612019Y-92010753D01*
X136612535Y-92003181D01*
X136611227Y-91995683D01*
X136601717Y-91941193D01*
X136600754Y-91934669D01*
X136594106Y-91879733D01*
X136594105Y-91879730D01*
X136593193Y-91872192D01*
X136590508Y-91865087D01*
X136589636Y-91861536D01*
X136585841Y-91847664D01*
X136584780Y-91844152D01*
X136583474Y-91836666D01*
X136558174Y-91779033D01*
X136555689Y-91772942D01*
X136536129Y-91721176D01*
X136536128Y-91721174D01*
X136533444Y-91714071D01*
X136529141Y-91707811D01*
X136527467Y-91704608D01*
X136520446Y-91691992D01*
X136518583Y-91688843D01*
X136515531Y-91681889D01*
X136477219Y-91631961D01*
X136473355Y-91626641D01*
X136442005Y-91581026D01*
X136442003Y-91581024D01*
X136437703Y-91574767D01*
X136393552Y-91535430D01*
X136388276Y-91530448D01*
X135810976Y-90953148D01*
X135776950Y-90890836D01*
X135778802Y-90829851D01*
X135790042Y-90790000D01*
X135817265Y-90693471D01*
X135846426Y-90590077D01*
X135846427Y-90590074D01*
X135847696Y-90585573D01*
X135857002Y-90512424D01*
X135880658Y-90326472D01*
X135880658Y-90326466D01*
X135881056Y-90323341D01*
X135883500Y-90230000D01*
X135863910Y-89966382D01*
X135805570Y-89708555D01*
X135803877Y-89704201D01*
X135711454Y-89466536D01*
X135711453Y-89466534D01*
X135709761Y-89462183D01*
X135707380Y-89458016D01*
X135580908Y-89236737D01*
X135578589Y-89232679D01*
X135414934Y-89025085D01*
X135342444Y-88956893D01*
X135306532Y-88895648D01*
X135309432Y-88824711D01*
X135350223Y-88766603D01*
X135419787Y-88739439D01*
X135436270Y-88738260D01*
X135449491Y-88735874D01*
X135574458Y-88699181D01*
X135590692Y-88691767D01*
X135698360Y-88622574D01*
X135711847Y-88610888D01*
X135795662Y-88514160D01*
X135805307Y-88499152D01*
X135858477Y-88382725D01*
X135863502Y-88365612D01*
X135882361Y-88234446D01*
X135883000Y-88225503D01*
X135883000Y-87232115D01*
X135878525Y-87216876D01*
X135877135Y-87215671D01*
X135869452Y-87214000D01*
X133972000Y-87213999D01*
X133903879Y-87193997D01*
X133857386Y-87140341D01*
X133846000Y-87087999D01*
X133846001Y-86832000D01*
X133866003Y-86763879D01*
X133919659Y-86717386D01*
X133972001Y-86706000D01*
X135864885Y-86706001D01*
X135880124Y-86701526D01*
X135881329Y-86700136D01*
X135883000Y-86692453D01*
X135883000Y-85692257D01*
X135882839Y-85687750D01*
X135878260Y-85623731D01*
X135875875Y-85610512D01*
X135866912Y-85579988D01*
X135866912Y-85508992D01*
X135905295Y-85449265D01*
X135969875Y-85419772D01*
X135987808Y-85418489D01*
X136665300Y-85418489D01*
X136733421Y-85438491D01*
X136779914Y-85492147D01*
X136791300Y-85544489D01*
X136791300Y-86595200D01*
X136796527Y-86668279D01*
X136837704Y-86808516D01*
X136842575Y-86816095D01*
X136911851Y-86923891D01*
X136911853Y-86923894D01*
X136916723Y-86931471D01*
X136923533Y-86937372D01*
X137020369Y-87021282D01*
X137020372Y-87021284D01*
X137027181Y-87027184D01*
X137035379Y-87030928D01*
X137130596Y-87074412D01*
X137160130Y-87087900D01*
X137169045Y-87089182D01*
X137169046Y-87089182D01*
X137300352Y-87108061D01*
X137300359Y-87108062D01*
X137304800Y-87108700D01*
X138708683Y-87108700D01*
X138776804Y-87128702D01*
X138797778Y-87145605D01*
X140094595Y-88442423D01*
X140128621Y-88504735D01*
X140131500Y-88531518D01*
X140131501Y-89021885D01*
X140131501Y-89495468D01*
X140111499Y-89563589D01*
X140070866Y-89603187D01*
X140001735Y-89645136D01*
X140001731Y-89645139D01*
X139997171Y-89647906D01*
X139867612Y-89760332D01*
X139803054Y-89789871D01*
X139732773Y-89779817D01*
X139679084Y-89733363D01*
X139664137Y-89700664D01*
X139659635Y-89685330D01*
X139659634Y-89685328D01*
X139657096Y-89676684D01*
X139586216Y-89566393D01*
X139582949Y-89561309D01*
X139582947Y-89561306D01*
X139578077Y-89553729D01*
X139552424Y-89531500D01*
X139474431Y-89463918D01*
X139474428Y-89463916D01*
X139467619Y-89458016D01*
X139385050Y-89420308D01*
X139342864Y-89401042D01*
X139342863Y-89401042D01*
X139334670Y-89397300D01*
X139325755Y-89396018D01*
X139325754Y-89396018D01*
X139194448Y-89377139D01*
X139194441Y-89377138D01*
X139190000Y-89376500D01*
X137390000Y-89376500D01*
X137316921Y-89381727D01*
X137263884Y-89397300D01*
X137185330Y-89420365D01*
X137185328Y-89420366D01*
X137176684Y-89422904D01*
X137169105Y-89427775D01*
X137061309Y-89497051D01*
X137061306Y-89497053D01*
X137053729Y-89501923D01*
X137047828Y-89508733D01*
X136963918Y-89605569D01*
X136963916Y-89605572D01*
X136958016Y-89612381D01*
X136954272Y-89620579D01*
X136901923Y-89735208D01*
X136897300Y-89745330D01*
X136896018Y-89754245D01*
X136896018Y-89754246D01*
X136877139Y-89885552D01*
X136877138Y-89885559D01*
X136876500Y-89890000D01*
X136876500Y-91690000D01*
X136881727Y-91763079D01*
X136900992Y-91828691D01*
X136916327Y-91880915D01*
X136922904Y-91903316D01*
X136930083Y-91914486D01*
X136997051Y-92018691D01*
X136997053Y-92018694D01*
X137001923Y-92026271D01*
X137008733Y-92032172D01*
X137105569Y-92116082D01*
X137105572Y-92116084D01*
X137112381Y-92121984D01*
X137120579Y-92125728D01*
X137232188Y-92176698D01*
X137245330Y-92182700D01*
X137254245Y-92183982D01*
X137254246Y-92183982D01*
X137385552Y-92202861D01*
X137385559Y-92202862D01*
X137390000Y-92203500D01*
X139190000Y-92203500D01*
X139263079Y-92198273D01*
X139357397Y-92170579D01*
X139394670Y-92159635D01*
X139394672Y-92159634D01*
X139403316Y-92157096D01*
X139467135Y-92116082D01*
X139518691Y-92082949D01*
X139518694Y-92082947D01*
X139526271Y-92078077D01*
X139555981Y-92043790D01*
X139616082Y-91974431D01*
X139616084Y-91974428D01*
X139621984Y-91967619D01*
X139670430Y-91861536D01*
X139716923Y-91807881D01*
X139785044Y-91787879D01*
X139853165Y-91807881D01*
X139869428Y-91820310D01*
X139975399Y-91915895D01*
X139979912Y-91918754D01*
X139979914Y-91918755D01*
X140033552Y-91952729D01*
X140177318Y-92043790D01*
X140279563Y-92086455D01*
X140364707Y-92121984D01*
X140397900Y-92135835D01*
X140526246Y-92165348D01*
X140625629Y-92188201D01*
X140625633Y-92188202D01*
X140630836Y-92189398D01*
X140636169Y-92189701D01*
X140636170Y-92189701D01*
X140750152Y-92196174D01*
X140869467Y-92202949D01*
X140874774Y-92202349D01*
X140874776Y-92202349D01*
X141008280Y-92187256D01*
X141106970Y-92176099D01*
X141112085Y-92174618D01*
X141112089Y-92174617D01*
X141331430Y-92111100D01*
X141331435Y-92111098D01*
X141336553Y-92109616D01*
X141551652Y-92005401D01*
X141672901Y-91918755D01*
X141741771Y-91869540D01*
X141741773Y-91869538D01*
X141746117Y-91866434D01*
X141914388Y-91696689D01*
X141924770Y-91681889D01*
X142048588Y-91505387D01*
X142048589Y-91505385D01*
X142051652Y-91501019D01*
X142062064Y-91479043D01*
X142151701Y-91289841D01*
X142153986Y-91285018D01*
X142218463Y-91054863D01*
X142229549Y-90948502D01*
X142242933Y-90820083D01*
X142242933Y-90820080D01*
X142243240Y-90817136D01*
X142243500Y-90790000D01*
X142223292Y-90551840D01*
X142220896Y-90542607D01*
X142164586Y-90325655D01*
X142164584Y-90325650D01*
X142163245Y-90320490D01*
X142065077Y-90102565D01*
X141931594Y-89904296D01*
X141922246Y-89894496D01*
X141794258Y-89760331D01*
X141766613Y-89731351D01*
X141762340Y-89728172D01*
X141762330Y-89728163D01*
X141579288Y-89591977D01*
X141536574Y-89535267D01*
X141528500Y-89490888D01*
X141528500Y-88216658D01*
X141528792Y-88208089D01*
X141532019Y-88160757D01*
X141532019Y-88160753D01*
X141532535Y-88153181D01*
X141531230Y-88145705D01*
X141531230Y-88145700D01*
X141521717Y-88091191D01*
X141520754Y-88084668D01*
X141514106Y-88029738D01*
X141513193Y-88022192D01*
X141510506Y-88015081D01*
X141509637Y-88011544D01*
X141505834Y-87997644D01*
X141504781Y-87994157D01*
X141503474Y-87986665D01*
X141478182Y-87929048D01*
X141475690Y-87922942D01*
X141456129Y-87871175D01*
X141456127Y-87871171D01*
X141453444Y-87864071D01*
X141449141Y-87857810D01*
X141447460Y-87854595D01*
X141440446Y-87841992D01*
X141438583Y-87838843D01*
X141435531Y-87831889D01*
X141397219Y-87781961D01*
X141393355Y-87776641D01*
X141362005Y-87731026D01*
X141362003Y-87731024D01*
X141357703Y-87724767D01*
X141313535Y-87685415D01*
X141308287Y-87680459D01*
X140932159Y-87304331D01*
X140898133Y-87242019D01*
X140903198Y-87171204D01*
X140945745Y-87114368D01*
X141005244Y-87090257D01*
X141112204Y-87076555D01*
X141122290Y-87074412D01*
X141344418Y-87007770D01*
X141353995Y-87004017D01*
X141562264Y-86901987D01*
X141571109Y-86896714D01*
X141759904Y-86762048D01*
X141767779Y-86755392D01*
X141932045Y-86591699D01*
X141938722Y-86583854D01*
X142074047Y-86395528D01*
X142079358Y-86386690D01*
X142182102Y-86178804D01*
X142185900Y-86169211D01*
X142253313Y-85947326D01*
X142255491Y-85937253D01*
X142260138Y-85901960D01*
X142257926Y-85887778D01*
X142244769Y-85884000D01*
X140682000Y-85884000D01*
X140613879Y-85863998D01*
X140567386Y-85810342D01*
X140556000Y-85758000D01*
X140556000Y-85502000D01*
X140576002Y-85433879D01*
X140629658Y-85387386D01*
X140682000Y-85376000D01*
X142247078Y-85376000D01*
X142260609Y-85372027D01*
X142261914Y-85362947D01*
X142210596Y-85158638D01*
X142207278Y-85148891D01*
X142114803Y-84936212D01*
X142109936Y-84927137D01*
X141983973Y-84732426D01*
X141977682Y-84724257D01*
X141881723Y-84618800D01*
X141850671Y-84554954D01*
X141859066Y-84484455D01*
X141904242Y-84429687D01*
X141974916Y-84408000D01*
X156516000Y-84408000D01*
X156584121Y-84428002D01*
G37*
%TD.AperFunction*%
%TD*%
M02*
