%TF.GenerationSoftware,KiCad,Pcbnew,6.0.0+dfsg1-2*%
%TF.CreationDate,2022-01-11T21:34:28+02:00*%
%TF.ProjectId,sesenta-y-nueve,73657365-6e74-4612-9d79-2d6e75657665,rev?*%
%TF.SameCoordinates,Original*%
%TF.FileFunction,Copper,L2,Bot*%
%TF.FilePolarity,Positive*%
%FSLAX46Y46*%
G04 Gerber Fmt 4.6, Leading zero omitted, Abs format (unit mm)*
G04 Created by KiCad (PCBNEW 6.0.0+dfsg1-2) date 2022-01-11 21:34:28*
%MOMM*%
%LPD*%
G01*
G04 APERTURE LIST*
%TA.AperFunction,ComponentPad*%
%ADD10R,2.540000X2.540000*%
%TD*%
%TA.AperFunction,ComponentPad*%
%ADD11O,2.540000X2.540000*%
%TD*%
%TA.AperFunction,ComponentPad*%
%ADD12R,1.930400X1.930400*%
%TD*%
%TA.AperFunction,ComponentPad*%
%ADD13O,1.930400X1.930400*%
%TD*%
%TA.AperFunction,ComponentPad*%
%ADD14C,1.600000*%
%TD*%
%TA.AperFunction,ComponentPad*%
%ADD15O,1.600000X1.600000*%
%TD*%
%TA.AperFunction,ComponentPad*%
%ADD16R,2.200000X2.200000*%
%TD*%
%TA.AperFunction,ComponentPad*%
%ADD17O,2.200000X2.200000*%
%TD*%
%TA.AperFunction,ComponentPad*%
%ADD18R,1.600000X1.600000*%
%TD*%
%TA.AperFunction,ComponentPad*%
%ADD19R,1.800000X1.800000*%
%TD*%
%TA.AperFunction,ComponentPad*%
%ADD20C,1.800000*%
%TD*%
%TA.AperFunction,ViaPad*%
%ADD21C,0.800000*%
%TD*%
%TA.AperFunction,Conductor*%
%ADD22C,0.380000*%
%TD*%
G04 APERTURE END LIST*
D10*
%TO.P,RV5,1,1*%
%TO.N,GND*%
X155150000Y-86960000D03*
D11*
%TO.P,RV5,2,2*%
%TO.N,OUT*%
X150070000Y-86960000D03*
%TO.P,RV5,3,3*%
%TO.N,Net-(C4-Pad2)*%
X144990000Y-86960000D03*
%TD*%
D12*
%TO.P,J2,1,Pin_1*%
%TO.N,+9V*%
X123200000Y-113770000D03*
D13*
%TO.P,J2,2,Pin_2*%
%TO.N,GND*%
X123200000Y-111230000D03*
%TD*%
D14*
%TO.P,R4,1*%
%TO.N,LED-*%
X129850000Y-102225000D03*
D15*
%TO.P,R4,2*%
%TO.N,Net-(D2-Pad1)*%
X137470000Y-102225000D03*
%TD*%
D10*
%TO.P,RV2,1,1*%
%TO.N,GND*%
X134100000Y-86960000D03*
D11*
%TO.P,RV2,2,2*%
%TO.N,Net-(C3-Pad1)*%
X129020000Y-86960000D03*
%TO.P,RV2,3,3*%
%TO.N,Net-(Q2-Pad1)*%
X123940000Y-86960000D03*
%TD*%
D12*
%TO.P,J1,1,Pin_1*%
%TO.N,IN*%
X135790000Y-113200000D03*
D13*
%TO.P,J1,2,Pin_2*%
%TO.N,GND*%
X138330000Y-113200000D03*
%TO.P,J1,3,Pin_3*%
%TO.N,LED-*%
X140870000Y-113200000D03*
%TO.P,J1,4,Pin_4*%
%TO.N,OUT*%
X143410000Y-113200000D03*
%TD*%
D10*
%TO.P,RV1,1,1*%
%TO.N,IN*%
X144990000Y-90230000D03*
D11*
%TO.P,RV1,2,2*%
X150070000Y-90230000D03*
%TO.P,RV1,3,3*%
%TO.N,Net-(C1-Pad2)*%
X155150000Y-90230000D03*
%TD*%
D12*
%TO.P,J3,1,Pin_1*%
%TO.N,+9V*%
X138270000Y-85630000D03*
D13*
%TO.P,J3,2,Pin_2*%
%TO.N,GND*%
X140810000Y-85630000D03*
%TD*%
D14*
%TO.P,R7,1*%
%TO.N,OUT*%
X145925000Y-112200000D03*
D15*
%TO.P,R7,2*%
%TO.N,GND*%
X153545000Y-112200000D03*
%TD*%
D16*
%TO.P,D1,1,K*%
%TO.N,VCC*%
X123710000Y-98350000D03*
D17*
%TO.P,D1,2,A*%
%TO.N,+9V*%
X123710000Y-108510000D03*
%TD*%
D14*
%TO.P,R5,1*%
%TO.N,Net-(C4-Pad1)*%
X153625000Y-98900000D03*
D15*
%TO.P,R5,2*%
%TO.N,Net-(R5-Pad2)*%
X153625000Y-106520000D03*
%TD*%
D14*
%TO.P,R2,1*%
%TO.N,Net-(Q1-Pad2)*%
X137475000Y-105275000D03*
D15*
%TO.P,R2,2*%
%TO.N,Net-(Q2-Pad1)*%
X129855000Y-105275000D03*
%TD*%
D18*
%TO.P,C3,1*%
%TO.N,Net-(C3-Pad1)*%
X129150000Y-95900000D03*
D14*
%TO.P,C3,2*%
%TO.N,GND*%
X126650000Y-95900000D03*
%TD*%
D10*
%TO.P,RV4,1,1*%
%TO.N,VCC*%
X123940000Y-90230000D03*
D11*
%TO.P,RV4,2,2*%
X129020000Y-90230000D03*
%TO.P,RV4,3,3*%
%TO.N,Net-(R6-Pad1)*%
X134100000Y-90230000D03*
%TD*%
D13*
%TO.P,RV3,1,1*%
%TO.N,Net-(Q2-Pad3)*%
X139885000Y-104075000D03*
%TO.P,RV3,2,2*%
X142425000Y-101535000D03*
%TO.P,RV3,3,3*%
%TO.N,Net-(R5-Pad2)*%
X144965000Y-104075000D03*
%TD*%
D18*
%TO.P,C1,1*%
%TO.N,Net-(Q1-Pad2)*%
X147700000Y-102950000D03*
D14*
%TO.P,C1,2*%
%TO.N,Net-(C1-Pad2)*%
X150200000Y-102950000D03*
%TD*%
D18*
%TO.P,C2,1*%
%TO.N,VCC*%
X128775000Y-111675000D03*
D14*
%TO.P,C2,2*%
%TO.N,GND*%
X131275000Y-111675000D03*
%TD*%
%TO.P,R1,1*%
%TO.N,IN*%
X145925000Y-109150000D03*
D15*
%TO.P,R1,2*%
%TO.N,GND*%
X153545000Y-109150000D03*
%TD*%
D14*
%TO.P,R3,1*%
%TO.N,VCC*%
X127075000Y-107450000D03*
D15*
%TO.P,R3,2*%
%TO.N,Net-(Q1-Pad3)*%
X127075000Y-99830000D03*
%TD*%
D12*
%TO.P,Q1,1,E*%
%TO.N,GND*%
X142860000Y-97900000D03*
D13*
%TO.P,Q1,2,B*%
%TO.N,Net-(Q1-Pad2)*%
X145400000Y-97900000D03*
%TO.P,Q1,3,C*%
%TO.N,Net-(Q1-Pad3)*%
X147940000Y-97900000D03*
%TD*%
D14*
%TO.P,C4,1*%
%TO.N,Net-(C4-Pad1)*%
X149425000Y-94875000D03*
%TO.P,C4,2*%
%TO.N,Net-(C4-Pad2)*%
X154425000Y-94875000D03*
%TD*%
%TO.P,R6,1*%
%TO.N,Net-(R6-Pad1)*%
X135910000Y-93380000D03*
D15*
%TO.P,R6,2*%
%TO.N,Net-(C4-Pad1)*%
X143530000Y-93380000D03*
%TD*%
D12*
%TO.P,Q2,1,E*%
%TO.N,Net-(Q2-Pad1)*%
X133585000Y-97800000D03*
D13*
%TO.P,Q2,2,B*%
%TO.N,Net-(Q1-Pad3)*%
X136125000Y-97800000D03*
%TO.P,Q2,3,C*%
%TO.N,Net-(Q2-Pad3)*%
X138665000Y-97800000D03*
%TD*%
D19*
%TO.P,D2,1,K*%
%TO.N,Net-(D2-Pad1)*%
X138290000Y-90790000D03*
D20*
%TO.P,D2,2,A*%
%TO.N,+9V*%
X140830000Y-90790000D03*
%TD*%
D21*
%TO.N,GND*%
X135375000Y-108625000D03*
X155050000Y-114050000D03*
%TD*%
D22*
%TO.N,Net-(C1-Pad2)*%
X150200000Y-102950000D02*
X150375000Y-102775000D01*
X156360000Y-100340000D02*
X156360000Y-91440000D01*
X150200000Y-102950000D02*
X153750000Y-102950000D01*
X153750000Y-102950000D02*
X156175000Y-100525000D01*
X156360000Y-91440000D02*
X155150000Y-90230000D01*
X156175000Y-100525000D02*
X156360000Y-100340000D01*
%TO.N,Net-(C4-Pad2)*%
X146650001Y-88620001D02*
X144990000Y-86960000D01*
X154425000Y-94875000D02*
X152258198Y-94875000D01*
X146650001Y-89266803D02*
X146650001Y-88620001D01*
X152258198Y-94875000D02*
X146650001Y-89266803D01*
%TO.N,Net-(D2-Pad1)*%
X137470000Y-102225000D02*
X140020201Y-99674799D01*
X140020201Y-99674799D02*
X140020201Y-92520201D01*
X140020201Y-92520201D02*
X138290000Y-90790000D01*
%TO.N,Net-(Q1-Pad3)*%
X134769790Y-96444790D02*
X136125000Y-97800000D01*
X127075000Y-99830000D02*
X127371558Y-99830000D01*
X130756768Y-96444790D02*
X133205210Y-96444790D01*
X133205210Y-96444790D02*
X134769790Y-96444790D01*
X127371558Y-99830000D02*
X130756768Y-96444790D01*
%TO.N,Net-(R5-Pad2)*%
X153625000Y-106520000D02*
X147410000Y-106520000D01*
X147410000Y-106520000D02*
X144965000Y-104075000D01*
%TD*%
%TA.AperFunction,Conductor*%
%TO.N,GND*%
G36*
X136747548Y-84428002D02*
G01*
X136794041Y-84481658D01*
X136804108Y-84551675D01*
X136803055Y-84554484D01*
X136796300Y-84616666D01*
X136796300Y-86643334D01*
X136803055Y-86705516D01*
X136854185Y-86841905D01*
X136941539Y-86958461D01*
X137058095Y-87045815D01*
X137194484Y-87096945D01*
X137256666Y-87103700D01*
X139283334Y-87103700D01*
X139345516Y-87096945D01*
X139481905Y-87045815D01*
X139598461Y-86958461D01*
X139685815Y-86841905D01*
X139688967Y-86833497D01*
X139688970Y-86833492D01*
X139689504Y-86832067D01*
X139690411Y-86830860D01*
X139693277Y-86825625D01*
X139694033Y-86826039D01*
X139732147Y-86775304D01*
X139798710Y-86750607D01*
X139868058Y-86765817D01*
X139887969Y-86779357D01*
X139958131Y-86837606D01*
X139966578Y-86843521D01*
X140166809Y-86960526D01*
X140176096Y-86964976D01*
X140392751Y-87047708D01*
X140402653Y-87050585D01*
X140538248Y-87078172D01*
X140552300Y-87076977D01*
X140556000Y-87066632D01*
X140556000Y-87064665D01*
X141064000Y-87064665D01*
X141068064Y-87078507D01*
X141081478Y-87080541D01*
X141112216Y-87076603D01*
X141122297Y-87074460D01*
X141344426Y-87007818D01*
X141354024Y-87004056D01*
X141562289Y-86902029D01*
X141571134Y-86896756D01*
X141759935Y-86762086D01*
X141767810Y-86755430D01*
X141932083Y-86591730D01*
X141938761Y-86583883D01*
X142074089Y-86395556D01*
X142079398Y-86386719D01*
X142182147Y-86178821D01*
X142185946Y-86169226D01*
X142253360Y-85947343D01*
X142255539Y-85937262D01*
X142260186Y-85901961D01*
X142257975Y-85887779D01*
X142244817Y-85884000D01*
X141082115Y-85884000D01*
X141066876Y-85888475D01*
X141065671Y-85889865D01*
X141064000Y-85897548D01*
X141064000Y-87064665D01*
X140556000Y-87064665D01*
X140556000Y-85502000D01*
X140576002Y-85433879D01*
X140629658Y-85387386D01*
X140682000Y-85376000D01*
X142247128Y-85376000D01*
X142260659Y-85372027D01*
X142261964Y-85362947D01*
X142210642Y-85158622D01*
X142207324Y-85148874D01*
X142114846Y-84936189D01*
X142109980Y-84927114D01*
X141984012Y-84732398D01*
X141977719Y-84724227D01*
X141881787Y-84618799D01*
X141850735Y-84554953D01*
X141859131Y-84484455D01*
X141904308Y-84429687D01*
X141974981Y-84408000D01*
X156516000Y-84408000D01*
X156584121Y-84428002D01*
X156630614Y-84481658D01*
X156642000Y-84534000D01*
X156642000Y-85060463D01*
X156621998Y-85128584D01*
X156568342Y-85175077D01*
X156502394Y-85185726D01*
X156471491Y-85182369D01*
X156464672Y-85182000D01*
X155422115Y-85182000D01*
X155406876Y-85186475D01*
X155405671Y-85187865D01*
X155404000Y-85195548D01*
X155404000Y-87088000D01*
X155383998Y-87156121D01*
X155330342Y-87202614D01*
X155278000Y-87214000D01*
X153390116Y-87214000D01*
X153374877Y-87218475D01*
X153373672Y-87219865D01*
X153372001Y-87227548D01*
X153372001Y-88274669D01*
X153372371Y-88281490D01*
X153377895Y-88332352D01*
X153381521Y-88347604D01*
X153426676Y-88468054D01*
X153435214Y-88483649D01*
X153511715Y-88585724D01*
X153524276Y-88598285D01*
X153626351Y-88674786D01*
X153641946Y-88683324D01*
X153762394Y-88728478D01*
X153777649Y-88732105D01*
X153831911Y-88738000D01*
X153831799Y-88739028D01*
X153894666Y-88761253D01*
X153938183Y-88817350D01*
X153944463Y-88888068D01*
X153911514Y-88950956D01*
X153904814Y-88957396D01*
X153867067Y-88991086D01*
X153698036Y-89194324D01*
X153560901Y-89420314D01*
X153559095Y-89424622D01*
X153559094Y-89424623D01*
X153463871Y-89651705D01*
X153458677Y-89664091D01*
X153457526Y-89668623D01*
X153457525Y-89668626D01*
X153447375Y-89708592D01*
X153393608Y-89920301D01*
X153367124Y-90183314D01*
X153367348Y-90187980D01*
X153367348Y-90187985D01*
X153369518Y-90233160D01*
X153379807Y-90447352D01*
X153431378Y-90706616D01*
X153432957Y-90711014D01*
X153432959Y-90711021D01*
X153484901Y-90855691D01*
X153520704Y-90955410D01*
X153522921Y-90959536D01*
X153590301Y-91084936D01*
X153645822Y-91188267D01*
X153648617Y-91192011D01*
X153648619Y-91192013D01*
X153731743Y-91303329D01*
X153803985Y-91400073D01*
X153807292Y-91403351D01*
X153807297Y-91403357D01*
X153922862Y-91517917D01*
X153991718Y-91586174D01*
X154204896Y-91742483D01*
X154209031Y-91744659D01*
X154209035Y-91744661D01*
X154299886Y-91792460D01*
X154438836Y-91865565D01*
X154578891Y-91914474D01*
X154682384Y-91950615D01*
X154688400Y-91952716D01*
X154692993Y-91953588D01*
X154943515Y-92001151D01*
X154943518Y-92001151D01*
X154948104Y-92002022D01*
X155080173Y-92007211D01*
X155207575Y-92012218D01*
X155207581Y-92012218D01*
X155212243Y-92012401D01*
X155475015Y-91983622D01*
X155479533Y-91982433D01*
X155479536Y-91982432D01*
X155503422Y-91976144D01*
X155574390Y-91978144D01*
X155633011Y-92018195D01*
X155660673Y-92083581D01*
X155661500Y-92097992D01*
X155661500Y-93959984D01*
X155641498Y-94028105D01*
X155587842Y-94074598D01*
X155517568Y-94084702D01*
X155452988Y-94055208D01*
X155438381Y-94039014D01*
X155437892Y-94039424D01*
X155434357Y-94035211D01*
X155431198Y-94030700D01*
X155269300Y-93868802D01*
X155264792Y-93865645D01*
X155264789Y-93865643D01*
X155186611Y-93810902D01*
X155081749Y-93737477D01*
X155076767Y-93735154D01*
X155076762Y-93735151D01*
X154879225Y-93643039D01*
X154879224Y-93643039D01*
X154874243Y-93640716D01*
X154868935Y-93639294D01*
X154868933Y-93639293D01*
X154658402Y-93582881D01*
X154658400Y-93582881D01*
X154653087Y-93581457D01*
X154425000Y-93561502D01*
X154196913Y-93581457D01*
X154191600Y-93582881D01*
X154191598Y-93582881D01*
X153981067Y-93639293D01*
X153981065Y-93639294D01*
X153975757Y-93640716D01*
X153970776Y-93643039D01*
X153970775Y-93643039D01*
X153773238Y-93735151D01*
X153773233Y-93735154D01*
X153768251Y-93737477D01*
X153663389Y-93810902D01*
X153585211Y-93865643D01*
X153585208Y-93865645D01*
X153580700Y-93868802D01*
X153418802Y-94030700D01*
X153415645Y-94035209D01*
X153415643Y-94035211D01*
X153354333Y-94122771D01*
X153298876Y-94167099D01*
X153251120Y-94176500D01*
X152599716Y-94176500D01*
X152531595Y-94156498D01*
X152510621Y-94139595D01*
X150518159Y-92147133D01*
X150484133Y-92084821D01*
X150489198Y-92014006D01*
X150531745Y-91957170D01*
X150575175Y-91936190D01*
X150575563Y-91936088D01*
X150581499Y-91934525D01*
X150646121Y-91917512D01*
X150646126Y-91917510D01*
X150650647Y-91916320D01*
X150749671Y-91873776D01*
X150889229Y-91813817D01*
X150889231Y-91813816D01*
X150893523Y-91811972D01*
X151064763Y-91706005D01*
X151114332Y-91675331D01*
X151114334Y-91675330D01*
X151118307Y-91672871D01*
X151183460Y-91617715D01*
X151316496Y-91505093D01*
X151316498Y-91505091D01*
X151320063Y-91502073D01*
X151494356Y-91303329D01*
X151568367Y-91188267D01*
X151634831Y-91084936D01*
X151637359Y-91081006D01*
X151745930Y-90839988D01*
X151817683Y-90585570D01*
X151851043Y-90323340D01*
X151853487Y-90230000D01*
X151833897Y-89966384D01*
X151775557Y-89708559D01*
X151760028Y-89668626D01*
X151681442Y-89466542D01*
X151681441Y-89466540D01*
X151679749Y-89462189D01*
X151666716Y-89439385D01*
X151550897Y-89236745D01*
X151548578Y-89232687D01*
X151384925Y-89025094D01*
X151192385Y-88843970D01*
X151188542Y-88841304D01*
X150979301Y-88696149D01*
X150934730Y-88640886D01*
X150927113Y-88570299D01*
X150958867Y-88506799D01*
X150984815Y-88485479D01*
X151083467Y-88424431D01*
X151114332Y-88405331D01*
X151114334Y-88405330D01*
X151118307Y-88402871D01*
X151183589Y-88347606D01*
X151316496Y-88235093D01*
X151316498Y-88235091D01*
X151320063Y-88232073D01*
X151494356Y-88033329D01*
X151568367Y-87918267D01*
X151634831Y-87814936D01*
X151637359Y-87811006D01*
X151745930Y-87569988D01*
X151817683Y-87315570D01*
X151837968Y-87156121D01*
X151850645Y-87056471D01*
X151850645Y-87056465D01*
X151851043Y-87053340D01*
X151851191Y-87047708D01*
X151852415Y-87000943D01*
X151853487Y-86960000D01*
X151839057Y-86765817D01*
X151834243Y-86701036D01*
X151834242Y-86701032D01*
X151833897Y-86696384D01*
X151831974Y-86687885D01*
X153372000Y-86687885D01*
X153376475Y-86703124D01*
X153377865Y-86704329D01*
X153385548Y-86706000D01*
X154877885Y-86706000D01*
X154893124Y-86701525D01*
X154894329Y-86700135D01*
X154896000Y-86692452D01*
X154896000Y-85200116D01*
X154891525Y-85184877D01*
X154890135Y-85183672D01*
X154882452Y-85182001D01*
X153835331Y-85182001D01*
X153828510Y-85182371D01*
X153777648Y-85187895D01*
X153762396Y-85191521D01*
X153641946Y-85236676D01*
X153626351Y-85245214D01*
X153524276Y-85321715D01*
X153511715Y-85334276D01*
X153435214Y-85436351D01*
X153426676Y-85451946D01*
X153381522Y-85572394D01*
X153377895Y-85587649D01*
X153372369Y-85638514D01*
X153372000Y-85645328D01*
X153372000Y-86687885D01*
X151831974Y-86687885D01*
X151775557Y-86438559D01*
X151758834Y-86395556D01*
X151681442Y-86196542D01*
X151681441Y-86196540D01*
X151679749Y-86192189D01*
X151675080Y-86184019D01*
X151550897Y-85966745D01*
X151548578Y-85962687D01*
X151384925Y-85755094D01*
X151192385Y-85573970D01*
X151155212Y-85548182D01*
X150979026Y-85425958D01*
X150979021Y-85425955D01*
X150975188Y-85423296D01*
X150970997Y-85421229D01*
X150742294Y-85308445D01*
X150742291Y-85308444D01*
X150738106Y-85306380D01*
X150681150Y-85288148D01*
X150547024Y-85245214D01*
X150486347Y-85225791D01*
X150300647Y-85195548D01*
X150230053Y-85184051D01*
X150230052Y-85184051D01*
X150225441Y-85183300D01*
X150093281Y-85181570D01*
X149965798Y-85179901D01*
X149965795Y-85179901D01*
X149961121Y-85179840D01*
X149699192Y-85215486D01*
X149694702Y-85216795D01*
X149694696Y-85216796D01*
X149597200Y-85245214D01*
X149445410Y-85289457D01*
X149441163Y-85291415D01*
X149441160Y-85291416D01*
X149375437Y-85321715D01*
X149205348Y-85400127D01*
X149201439Y-85402690D01*
X148988195Y-85542499D01*
X148988190Y-85542503D01*
X148984282Y-85545065D01*
X148787067Y-85721086D01*
X148618036Y-85924324D01*
X148480901Y-86150314D01*
X148479095Y-86154622D01*
X148479094Y-86154623D01*
X148472971Y-86169226D01*
X148378677Y-86394091D01*
X148377526Y-86398623D01*
X148377525Y-86398626D01*
X148366226Y-86443116D01*
X148313608Y-86650301D01*
X148287124Y-86913314D01*
X148287348Y-86917980D01*
X148287348Y-86917985D01*
X148291483Y-87004056D01*
X148299807Y-87177352D01*
X148351378Y-87436616D01*
X148352957Y-87441014D01*
X148352959Y-87441021D01*
X148417516Y-87620825D01*
X148440704Y-87685410D01*
X148442921Y-87689536D01*
X148532037Y-87855389D01*
X148565822Y-87918267D01*
X148568617Y-87922011D01*
X148568619Y-87922013D01*
X148651743Y-88033329D01*
X148723985Y-88130073D01*
X148727292Y-88133351D01*
X148727297Y-88133357D01*
X148896528Y-88301116D01*
X148911718Y-88316174D01*
X148915485Y-88318936D01*
X148915486Y-88318937D01*
X149107472Y-88459707D01*
X149124896Y-88472483D01*
X149129031Y-88474659D01*
X149129035Y-88474661D01*
X149147474Y-88484362D01*
X149198446Y-88533782D01*
X149214609Y-88602914D01*
X149190830Y-88669810D01*
X149157893Y-88701240D01*
X149062240Y-88763953D01*
X148988195Y-88812499D01*
X148988190Y-88812503D01*
X148984282Y-88815065D01*
X148902489Y-88888068D01*
X148827178Y-88955286D01*
X148787067Y-88991086D01*
X148618036Y-89194324D01*
X148480901Y-89420314D01*
X148479095Y-89424622D01*
X148479094Y-89424623D01*
X148383871Y-89651705D01*
X148378677Y-89664091D01*
X148377526Y-89668623D01*
X148377524Y-89668629D01*
X148363637Y-89723312D01*
X148327483Y-89784414D01*
X148264034Y-89816269D01*
X148193435Y-89808764D01*
X148152419Y-89781393D01*
X147385406Y-89014380D01*
X147351380Y-88952068D01*
X147348501Y-88925285D01*
X147348501Y-88648560D01*
X147348793Y-88639991D01*
X147352150Y-88590752D01*
X147352150Y-88590748D01*
X147352666Y-88583176D01*
X147348527Y-88559457D01*
X147341843Y-88521163D01*
X147340880Y-88514637D01*
X147340245Y-88509385D01*
X147333320Y-88452162D01*
X147330635Y-88445056D01*
X147329766Y-88441519D01*
X147325956Y-88427593D01*
X147324907Y-88424118D01*
X147323600Y-88416629D01*
X147298298Y-88358989D01*
X147295806Y-88352883D01*
X147276245Y-88301116D01*
X147276243Y-88301112D01*
X147273560Y-88294012D01*
X147269258Y-88287752D01*
X147267573Y-88284530D01*
X147260531Y-88271878D01*
X147258696Y-88268775D01*
X147255645Y-88261825D01*
X147251023Y-88255802D01*
X147251021Y-88255798D01*
X147217329Y-88211889D01*
X147213452Y-88206553D01*
X147182105Y-88160942D01*
X147182102Y-88160938D01*
X147177802Y-88154682D01*
X147131974Y-88113851D01*
X147126698Y-88108869D01*
X146700966Y-87683137D01*
X146666940Y-87620825D01*
X146668792Y-87559841D01*
X146703545Y-87436616D01*
X146737683Y-87315570D01*
X146757968Y-87156121D01*
X146770645Y-87056471D01*
X146770645Y-87056465D01*
X146771043Y-87053340D01*
X146771191Y-87047708D01*
X146772415Y-87000943D01*
X146773487Y-86960000D01*
X146759057Y-86765817D01*
X146754243Y-86701036D01*
X146754242Y-86701032D01*
X146753897Y-86696384D01*
X146695557Y-86438559D01*
X146678834Y-86395556D01*
X146601442Y-86196542D01*
X146601441Y-86196540D01*
X146599749Y-86192189D01*
X146595080Y-86184019D01*
X146470897Y-85966745D01*
X146468578Y-85962687D01*
X146304925Y-85755094D01*
X146112385Y-85573970D01*
X146075212Y-85548182D01*
X145899026Y-85425958D01*
X145899021Y-85425955D01*
X145895188Y-85423296D01*
X145890997Y-85421229D01*
X145662294Y-85308445D01*
X145662291Y-85308444D01*
X145658106Y-85306380D01*
X145601150Y-85288148D01*
X145467024Y-85245214D01*
X145406347Y-85225791D01*
X145220647Y-85195548D01*
X145150053Y-85184051D01*
X145150052Y-85184051D01*
X145145441Y-85183300D01*
X145013281Y-85181570D01*
X144885798Y-85179901D01*
X144885795Y-85179901D01*
X144881121Y-85179840D01*
X144619192Y-85215486D01*
X144614702Y-85216795D01*
X144614696Y-85216796D01*
X144517200Y-85245214D01*
X144365410Y-85289457D01*
X144361163Y-85291415D01*
X144361160Y-85291416D01*
X144295437Y-85321715D01*
X144125348Y-85400127D01*
X144121439Y-85402690D01*
X143908195Y-85542499D01*
X143908190Y-85542503D01*
X143904282Y-85545065D01*
X143707067Y-85721086D01*
X143538036Y-85924324D01*
X143400901Y-86150314D01*
X143399095Y-86154622D01*
X143399094Y-86154623D01*
X143392971Y-86169226D01*
X143298677Y-86394091D01*
X143297526Y-86398623D01*
X143297525Y-86398626D01*
X143286226Y-86443116D01*
X143233608Y-86650301D01*
X143207124Y-86913314D01*
X143207348Y-86917980D01*
X143207348Y-86917985D01*
X143211483Y-87004056D01*
X143219807Y-87177352D01*
X143271378Y-87436616D01*
X143272957Y-87441014D01*
X143272959Y-87441021D01*
X143337516Y-87620825D01*
X143360704Y-87685410D01*
X143362921Y-87689536D01*
X143452037Y-87855389D01*
X143485822Y-87918267D01*
X143488617Y-87922011D01*
X143488619Y-87922013D01*
X143571743Y-88033329D01*
X143643985Y-88130073D01*
X143647298Y-88133357D01*
X143647304Y-88133364D01*
X143751360Y-88236516D01*
X143785656Y-88298679D01*
X143780901Y-88369516D01*
X143738602Y-88426537D01*
X143671807Y-88450959D01*
X143671866Y-88451500D01*
X143609684Y-88458255D01*
X143473295Y-88509385D01*
X143356739Y-88596739D01*
X143269385Y-88713295D01*
X143218255Y-88849684D01*
X143211500Y-88911866D01*
X143211500Y-91548134D01*
X143218255Y-91610316D01*
X143269385Y-91746705D01*
X143356739Y-91863261D01*
X143363919Y-91868642D01*
X143369053Y-91873776D01*
X143403079Y-91936088D01*
X143398014Y-92006903D01*
X143355467Y-92063739D01*
X143303266Y-92086339D01*
X143301913Y-92086457D01*
X143167325Y-92122520D01*
X143086067Y-92144293D01*
X143086065Y-92144294D01*
X143080757Y-92145716D01*
X143075776Y-92148039D01*
X143075775Y-92148039D01*
X142878238Y-92240151D01*
X142878233Y-92240154D01*
X142873251Y-92242477D01*
X142813122Y-92284580D01*
X142690211Y-92370643D01*
X142690208Y-92370645D01*
X142685700Y-92373802D01*
X142523802Y-92535700D01*
X142520645Y-92540208D01*
X142520643Y-92540211D01*
X142514649Y-92548772D01*
X142392477Y-92723251D01*
X142390154Y-92728233D01*
X142390151Y-92728238D01*
X142298039Y-92925775D01*
X142295716Y-92930757D01*
X142236457Y-93151913D01*
X142216502Y-93380000D01*
X142236457Y-93608087D01*
X142295716Y-93829243D01*
X142298039Y-93834224D01*
X142298039Y-93834225D01*
X142390151Y-94031762D01*
X142390154Y-94031767D01*
X142392477Y-94036749D01*
X142523802Y-94224300D01*
X142685700Y-94386198D01*
X142690208Y-94389355D01*
X142690211Y-94389357D01*
X142735081Y-94420775D01*
X142873251Y-94517523D01*
X142878233Y-94519846D01*
X142878238Y-94519849D01*
X143044553Y-94597402D01*
X143080757Y-94614284D01*
X143086065Y-94615706D01*
X143086067Y-94615707D01*
X143296598Y-94672119D01*
X143296600Y-94672119D01*
X143301913Y-94673543D01*
X143530000Y-94693498D01*
X143758087Y-94673543D01*
X143763400Y-94672119D01*
X143763402Y-94672119D01*
X143973933Y-94615707D01*
X143973935Y-94615706D01*
X143979243Y-94614284D01*
X144015447Y-94597402D01*
X144181762Y-94519849D01*
X144181767Y-94519846D01*
X144186749Y-94517523D01*
X144324919Y-94420775D01*
X144369789Y-94389357D01*
X144369792Y-94389355D01*
X144374300Y-94386198D01*
X144536198Y-94224300D01*
X144667523Y-94036749D01*
X144669846Y-94031767D01*
X144669849Y-94031762D01*
X144761961Y-93834225D01*
X144761961Y-93834224D01*
X144764284Y-93829243D01*
X144823543Y-93608087D01*
X144843498Y-93380000D01*
X144823543Y-93151913D01*
X144764284Y-92930757D01*
X144761961Y-92925775D01*
X144669849Y-92728238D01*
X144669846Y-92728233D01*
X144667523Y-92723251D01*
X144545351Y-92548772D01*
X144539357Y-92540211D01*
X144539355Y-92540208D01*
X144536198Y-92535700D01*
X144374300Y-92373802D01*
X144369792Y-92370645D01*
X144369789Y-92370643D01*
X144191258Y-92245634D01*
X144191256Y-92245633D01*
X144186749Y-92242477D01*
X144186621Y-92242417D01*
X144138774Y-92192234D01*
X144125340Y-92122520D01*
X144151728Y-92056609D01*
X144209561Y-92015429D01*
X144250769Y-92008500D01*
X146308134Y-92008500D01*
X146370316Y-92001745D01*
X146506705Y-91950615D01*
X146623261Y-91863261D01*
X146710615Y-91746705D01*
X146761745Y-91610316D01*
X146768500Y-91548134D01*
X146768500Y-90677321D01*
X146788502Y-90609200D01*
X146842158Y-90562707D01*
X146912432Y-90552603D01*
X146977012Y-90582097D01*
X146983595Y-90588226D01*
X149764147Y-93368778D01*
X149798173Y-93431090D01*
X149793108Y-93501905D01*
X149750561Y-93558741D01*
X149684041Y-93583552D01*
X149655384Y-93582072D01*
X149653087Y-93581457D01*
X149425000Y-93561502D01*
X149196913Y-93581457D01*
X149191600Y-93582881D01*
X149191598Y-93582881D01*
X148981067Y-93639293D01*
X148981065Y-93639294D01*
X148975757Y-93640716D01*
X148970776Y-93643039D01*
X148970775Y-93643039D01*
X148773238Y-93735151D01*
X148773233Y-93735154D01*
X148768251Y-93737477D01*
X148663389Y-93810902D01*
X148585211Y-93865643D01*
X148585208Y-93865645D01*
X148580700Y-93868802D01*
X148418802Y-94030700D01*
X148287477Y-94218251D01*
X148285154Y-94223233D01*
X148285151Y-94223238D01*
X148207689Y-94389357D01*
X148190716Y-94425757D01*
X148189294Y-94431065D01*
X148189293Y-94431067D01*
X148144495Y-94598255D01*
X148131457Y-94646913D01*
X148111502Y-94875000D01*
X148131457Y-95103087D01*
X148132881Y-95108400D01*
X148132881Y-95108402D01*
X148170418Y-95248489D01*
X148190716Y-95324243D01*
X148193039Y-95329224D01*
X148193039Y-95329225D01*
X148285151Y-95526762D01*
X148285154Y-95526767D01*
X148287477Y-95531749D01*
X148316858Y-95573709D01*
X148381963Y-95666688D01*
X148418802Y-95719300D01*
X148580700Y-95881198D01*
X148585208Y-95884355D01*
X148585211Y-95884357D01*
X148663389Y-95939098D01*
X148768251Y-96012523D01*
X148773233Y-96014846D01*
X148773238Y-96014849D01*
X148970775Y-96106961D01*
X148975757Y-96109284D01*
X148981065Y-96110706D01*
X148981067Y-96110707D01*
X149191598Y-96167119D01*
X149191600Y-96167119D01*
X149196913Y-96168543D01*
X149425000Y-96188498D01*
X149653087Y-96168543D01*
X149658400Y-96167119D01*
X149658402Y-96167119D01*
X149868933Y-96110707D01*
X149868935Y-96110706D01*
X149874243Y-96109284D01*
X149879225Y-96106961D01*
X150076762Y-96014849D01*
X150076767Y-96014846D01*
X150081749Y-96012523D01*
X150186611Y-95939098D01*
X150264789Y-95884357D01*
X150264792Y-95884355D01*
X150269300Y-95881198D01*
X150431198Y-95719300D01*
X150468038Y-95666688D01*
X150533142Y-95573709D01*
X150562523Y-95531749D01*
X150564846Y-95526767D01*
X150564849Y-95526762D01*
X150656961Y-95329225D01*
X150656961Y-95329224D01*
X150659284Y-95324243D01*
X150679583Y-95248489D01*
X150717119Y-95108402D01*
X150717119Y-95108400D01*
X150718543Y-95103087D01*
X150738498Y-94875000D01*
X150718543Y-94646913D01*
X150718183Y-94645569D01*
X150725909Y-94576273D01*
X150770674Y-94521167D01*
X150838125Y-94499012D01*
X150906847Y-94516840D01*
X150931222Y-94535853D01*
X151744077Y-95348708D01*
X151749931Y-95354973D01*
X151787378Y-95397899D01*
X151838883Y-95434098D01*
X151844150Y-95438010D01*
X151887717Y-95472171D01*
X151887726Y-95472176D01*
X151893698Y-95476859D01*
X151900619Y-95479984D01*
X151903720Y-95481862D01*
X151916316Y-95489046D01*
X151919479Y-95490742D01*
X151925697Y-95495112D01*
X151932777Y-95497872D01*
X151932780Y-95497874D01*
X151984345Y-95517978D01*
X151990416Y-95520529D01*
X152047784Y-95546432D01*
X152055246Y-95547815D01*
X152058685Y-95548893D01*
X152072603Y-95552857D01*
X152076127Y-95553762D01*
X152083212Y-95556524D01*
X152090747Y-95557516D01*
X152145607Y-95564739D01*
X152152121Y-95565771D01*
X152206548Y-95575858D01*
X152206549Y-95575858D01*
X152214016Y-95577242D01*
X152221596Y-95576805D01*
X152221597Y-95576805D01*
X152275284Y-95573709D01*
X152282538Y-95573500D01*
X153251120Y-95573500D01*
X153319241Y-95593502D01*
X153354332Y-95627228D01*
X153418802Y-95719300D01*
X153580700Y-95881198D01*
X153585208Y-95884355D01*
X153585211Y-95884357D01*
X153663389Y-95939098D01*
X153768251Y-96012523D01*
X153773233Y-96014846D01*
X153773238Y-96014849D01*
X153970775Y-96106961D01*
X153975757Y-96109284D01*
X153981065Y-96110706D01*
X153981067Y-96110707D01*
X154191598Y-96167119D01*
X154191600Y-96167119D01*
X154196913Y-96168543D01*
X154425000Y-96188498D01*
X154653087Y-96168543D01*
X154658400Y-96167119D01*
X154658402Y-96167119D01*
X154868933Y-96110707D01*
X154868935Y-96110706D01*
X154874243Y-96109284D01*
X154879225Y-96106961D01*
X155076762Y-96014849D01*
X155076767Y-96014846D01*
X155081749Y-96012523D01*
X155186611Y-95939098D01*
X155264789Y-95884357D01*
X155264792Y-95884355D01*
X155269300Y-95881198D01*
X155431198Y-95719300D01*
X155434357Y-95714789D01*
X155437892Y-95710576D01*
X155439531Y-95711952D01*
X155487753Y-95673413D01*
X155558373Y-95666109D01*
X155621731Y-95698145D01*
X155657711Y-95759349D01*
X155661500Y-95790016D01*
X155661500Y-99998481D01*
X155641498Y-100066602D01*
X155624595Y-100087576D01*
X153497577Y-102214595D01*
X153435265Y-102248620D01*
X153408482Y-102251500D01*
X151373880Y-102251500D01*
X151305759Y-102231498D01*
X151270667Y-102197771D01*
X151270092Y-102196949D01*
X151243228Y-102158584D01*
X151209357Y-102110211D01*
X151209355Y-102110209D01*
X151206198Y-102105700D01*
X151044300Y-101943802D01*
X151039792Y-101940645D01*
X151039789Y-101940643D01*
X150960258Y-101884955D01*
X150856749Y-101812477D01*
X150851767Y-101810154D01*
X150851762Y-101810151D01*
X150654225Y-101718039D01*
X150654224Y-101718039D01*
X150649243Y-101715716D01*
X150643935Y-101714294D01*
X150643933Y-101714293D01*
X150433402Y-101657881D01*
X150433400Y-101657881D01*
X150428087Y-101656457D01*
X150200000Y-101636502D01*
X149971913Y-101656457D01*
X149966600Y-101657881D01*
X149966598Y-101657881D01*
X149756067Y-101714293D01*
X149756065Y-101714294D01*
X149750757Y-101715716D01*
X149745776Y-101718039D01*
X149745775Y-101718039D01*
X149548238Y-101810151D01*
X149548233Y-101810154D01*
X149543251Y-101812477D01*
X149439742Y-101884955D01*
X149360211Y-101940643D01*
X149360208Y-101940645D01*
X149355700Y-101943802D01*
X149210000Y-102089502D01*
X149147688Y-102123528D01*
X149076873Y-102118463D01*
X149020037Y-102075916D01*
X149002868Y-102039263D01*
X149001745Y-102039684D01*
X148953767Y-101911703D01*
X148950615Y-101903295D01*
X148863261Y-101786739D01*
X148746705Y-101699385D01*
X148610316Y-101648255D01*
X148548134Y-101641500D01*
X146851866Y-101641500D01*
X146789684Y-101648255D01*
X146653295Y-101699385D01*
X146536739Y-101786739D01*
X146449385Y-101903295D01*
X146398255Y-102039684D01*
X146391500Y-102101866D01*
X146391500Y-103140028D01*
X146371498Y-103208149D01*
X146317842Y-103254642D01*
X146247568Y-103264746D01*
X146182988Y-103235252D01*
X146159708Y-103208468D01*
X146139407Y-103177087D01*
X146139405Y-103177084D01*
X146136599Y-103172747D01*
X145973506Y-102993510D01*
X145783328Y-102843317D01*
X145571174Y-102726201D01*
X145435662Y-102678214D01*
X145347613Y-102647034D01*
X145347610Y-102647033D01*
X145342741Y-102645309D01*
X145337652Y-102644402D01*
X145337650Y-102644402D01*
X145264394Y-102631353D01*
X145104163Y-102602812D01*
X145013635Y-102601706D01*
X144867018Y-102599914D01*
X144867016Y-102599914D01*
X144861848Y-102599851D01*
X144622303Y-102636507D01*
X144391961Y-102711794D01*
X144177009Y-102823691D01*
X144172876Y-102826794D01*
X144172873Y-102826796D01*
X144000700Y-102956067D01*
X143983218Y-102969193D01*
X143815795Y-103144392D01*
X143812881Y-103148664D01*
X143812880Y-103148665D01*
X143740588Y-103254642D01*
X143679234Y-103344583D01*
X143577203Y-103564390D01*
X143575821Y-103569372D01*
X143575821Y-103569373D01*
X143538344Y-103704512D01*
X143512442Y-103797910D01*
X143511893Y-103803047D01*
X143492674Y-103982881D01*
X143486690Y-104038871D01*
X143486987Y-104044023D01*
X143486987Y-104044027D01*
X143495706Y-104195229D01*
X143500640Y-104280802D01*
X143501777Y-104285848D01*
X143501778Y-104285854D01*
X143523529Y-104382368D01*
X143553916Y-104517207D01*
X143555858Y-104521989D01*
X143555859Y-104521993D01*
X143643144Y-104736949D01*
X143645088Y-104741736D01*
X143771707Y-104948359D01*
X143930372Y-105131527D01*
X144116823Y-105286322D01*
X144326053Y-105408586D01*
X144330873Y-105410426D01*
X144330878Y-105410429D01*
X144439220Y-105451800D01*
X144552442Y-105495035D01*
X144557510Y-105496066D01*
X144557513Y-105496067D01*
X144663838Y-105517699D01*
X144789910Y-105543349D01*
X144795085Y-105543539D01*
X144795087Y-105543539D01*
X145026917Y-105552040D01*
X145026921Y-105552040D01*
X145032081Y-105552229D01*
X145037201Y-105551573D01*
X145037203Y-105551573D01*
X145267322Y-105522094D01*
X145267323Y-105522094D01*
X145272450Y-105521437D01*
X145277401Y-105519952D01*
X145277404Y-105519951D01*
X145316640Y-105508180D01*
X145387636Y-105507764D01*
X145441942Y-105539771D01*
X146895879Y-106993708D01*
X146901733Y-106999973D01*
X146939180Y-107042899D01*
X146990685Y-107079098D01*
X146995952Y-107083010D01*
X147039519Y-107117171D01*
X147039528Y-107117176D01*
X147045500Y-107121859D01*
X147052421Y-107124984D01*
X147055522Y-107126862D01*
X147068118Y-107134046D01*
X147071281Y-107135742D01*
X147077499Y-107140112D01*
X147084579Y-107142872D01*
X147084582Y-107142874D01*
X147136147Y-107162978D01*
X147142218Y-107165529D01*
X147199586Y-107191432D01*
X147207048Y-107192815D01*
X147210487Y-107193893D01*
X147224405Y-107197857D01*
X147227929Y-107198762D01*
X147235014Y-107201524D01*
X147242549Y-107202516D01*
X147297409Y-107209739D01*
X147303923Y-107210771D01*
X147358350Y-107220858D01*
X147358351Y-107220858D01*
X147365818Y-107222242D01*
X147373398Y-107221805D01*
X147373399Y-107221805D01*
X147427086Y-107218709D01*
X147434340Y-107218500D01*
X152451120Y-107218500D01*
X152519241Y-107238502D01*
X152554332Y-107272228D01*
X152618802Y-107364300D01*
X152780700Y-107526198D01*
X152785208Y-107529355D01*
X152785211Y-107529357D01*
X152837324Y-107565847D01*
X152968251Y-107657523D01*
X152973236Y-107659847D01*
X152973242Y-107659851D01*
X153064551Y-107702428D01*
X153117837Y-107749344D01*
X153137298Y-107817622D01*
X153116757Y-107885582D01*
X153064552Y-107930818D01*
X152893489Y-108010586D01*
X152883993Y-108016069D01*
X152705533Y-108141028D01*
X152697125Y-108148084D01*
X152543084Y-108302125D01*
X152536028Y-108310533D01*
X152411069Y-108488993D01*
X152405586Y-108498489D01*
X152313510Y-108695947D01*
X152309764Y-108706239D01*
X152263606Y-108878503D01*
X152263942Y-108892599D01*
X152271884Y-108896000D01*
X154812967Y-108896000D01*
X154826498Y-108892027D01*
X154827727Y-108883478D01*
X154780236Y-108706239D01*
X154776490Y-108695947D01*
X154684414Y-108498489D01*
X154678931Y-108488993D01*
X154553972Y-108310533D01*
X154546916Y-108302125D01*
X154392875Y-108148084D01*
X154384467Y-108141028D01*
X154206007Y-108016069D01*
X154196511Y-108010586D01*
X154105448Y-107968123D01*
X154052163Y-107921206D01*
X154032702Y-107852928D01*
X154053244Y-107784968D01*
X154105448Y-107739733D01*
X154276762Y-107659849D01*
X154276767Y-107659846D01*
X154281749Y-107657523D01*
X154412676Y-107565847D01*
X154464789Y-107529357D01*
X154464792Y-107529355D01*
X154469300Y-107526198D01*
X154631198Y-107364300D01*
X154762523Y-107176749D01*
X154764846Y-107171767D01*
X154764849Y-107171762D01*
X154856961Y-106974225D01*
X154856961Y-106974224D01*
X154859284Y-106969243D01*
X154918543Y-106748087D01*
X154938498Y-106520000D01*
X154918543Y-106291913D01*
X154917119Y-106286598D01*
X154860707Y-106076067D01*
X154860706Y-106076065D01*
X154859284Y-106070757D01*
X154794464Y-105931749D01*
X154764849Y-105868238D01*
X154764846Y-105868233D01*
X154762523Y-105863251D01*
X154631198Y-105675700D01*
X154469300Y-105513802D01*
X154464792Y-105510645D01*
X154464789Y-105510643D01*
X154315313Y-105405979D01*
X154281749Y-105382477D01*
X154276767Y-105380154D01*
X154276762Y-105380151D01*
X154079225Y-105288039D01*
X154079224Y-105288039D01*
X154074243Y-105285716D01*
X154068935Y-105284294D01*
X154068933Y-105284293D01*
X153858402Y-105227881D01*
X153858400Y-105227881D01*
X153853087Y-105226457D01*
X153625000Y-105206502D01*
X153396913Y-105226457D01*
X153391600Y-105227881D01*
X153391598Y-105227881D01*
X153181067Y-105284293D01*
X153181065Y-105284294D01*
X153175757Y-105285716D01*
X153170776Y-105288039D01*
X153170775Y-105288039D01*
X152973238Y-105380151D01*
X152973233Y-105380154D01*
X152968251Y-105382477D01*
X152934687Y-105405979D01*
X152785211Y-105510643D01*
X152785208Y-105510645D01*
X152780700Y-105513802D01*
X152618802Y-105675700D01*
X152615645Y-105680209D01*
X152615643Y-105680211D01*
X152554333Y-105767771D01*
X152498876Y-105812099D01*
X152451120Y-105821500D01*
X147751518Y-105821500D01*
X147683397Y-105801498D01*
X147662423Y-105784595D01*
X146429987Y-104552159D01*
X146395961Y-104489847D01*
X146398524Y-104426437D01*
X146410355Y-104387497D01*
X146426451Y-104265240D01*
X146455172Y-104200314D01*
X146514437Y-104161222D01*
X146585429Y-104160377D01*
X146626936Y-104180860D01*
X146646109Y-104195230D01*
X146646112Y-104195232D01*
X146653295Y-104200615D01*
X146789684Y-104251745D01*
X146851866Y-104258500D01*
X148548134Y-104258500D01*
X148610316Y-104251745D01*
X148746705Y-104200615D01*
X148863261Y-104113261D01*
X148950615Y-103996705D01*
X149001745Y-103860316D01*
X149003691Y-103861046D01*
X149033545Y-103808795D01*
X149096503Y-103775979D01*
X149167207Y-103782409D01*
X149210000Y-103810498D01*
X149355700Y-103956198D01*
X149360208Y-103959355D01*
X149360211Y-103959357D01*
X149391089Y-103980978D01*
X149543251Y-104087523D01*
X149548233Y-104089846D01*
X149548238Y-104089849D01*
X149701300Y-104161222D01*
X149750757Y-104184284D01*
X149756065Y-104185706D01*
X149756067Y-104185707D01*
X149966598Y-104242119D01*
X149966600Y-104242119D01*
X149971913Y-104243543D01*
X150200000Y-104263498D01*
X150428087Y-104243543D01*
X150433400Y-104242119D01*
X150433402Y-104242119D01*
X150643933Y-104185707D01*
X150643935Y-104185706D01*
X150649243Y-104184284D01*
X150698700Y-104161222D01*
X150851762Y-104089849D01*
X150851767Y-104089846D01*
X150856749Y-104087523D01*
X151008911Y-103980978D01*
X151039789Y-103959357D01*
X151039792Y-103959355D01*
X151044300Y-103956198D01*
X151206198Y-103794300D01*
X151214525Y-103782409D01*
X151243228Y-103741416D01*
X151270668Y-103702228D01*
X151326124Y-103657901D01*
X151373880Y-103648500D01*
X153721441Y-103648500D01*
X153730010Y-103648792D01*
X153779249Y-103652149D01*
X153779253Y-103652149D01*
X153786825Y-103652665D01*
X153794302Y-103651360D01*
X153794304Y-103651360D01*
X153832940Y-103644617D01*
X153848842Y-103641841D01*
X153855360Y-103640880D01*
X153917839Y-103633319D01*
X153924945Y-103630634D01*
X153928482Y-103629765D01*
X153942408Y-103625955D01*
X153945883Y-103624906D01*
X153953372Y-103623599D01*
X154011012Y-103598297D01*
X154017118Y-103595805D01*
X154068885Y-103576244D01*
X154068889Y-103576242D01*
X154075989Y-103573559D01*
X154082249Y-103569257D01*
X154085471Y-103567572D01*
X154098123Y-103560530D01*
X154101226Y-103558695D01*
X154108176Y-103555644D01*
X154114199Y-103551022D01*
X154114203Y-103551020D01*
X154158112Y-103517328D01*
X154163448Y-103513451D01*
X154209059Y-103482104D01*
X154209063Y-103482101D01*
X154215319Y-103477801D01*
X154256150Y-103431973D01*
X154261132Y-103426697D01*
X155283871Y-102403958D01*
X156426905Y-101260923D01*
X156489217Y-101226898D01*
X156560032Y-101231962D01*
X156616868Y-101274509D01*
X156641679Y-101341029D01*
X156642000Y-101350018D01*
X156642000Y-114616000D01*
X156621998Y-114684121D01*
X156568342Y-114730614D01*
X156516000Y-114742000D01*
X144155947Y-114742000D01*
X144087826Y-114721998D01*
X144041333Y-114668342D01*
X144031229Y-114598068D01*
X144060723Y-114533488D01*
X144100513Y-114502850D01*
X144167184Y-114470188D01*
X144171394Y-114467185D01*
X144171399Y-114467182D01*
X144360259Y-114332469D01*
X144360264Y-114332465D01*
X144364471Y-114329464D01*
X144536126Y-114158408D01*
X144576725Y-114101909D01*
X144674519Y-113965813D01*
X144677537Y-113961613D01*
X144682311Y-113951955D01*
X144782614Y-113749006D01*
X144784908Y-113744365D01*
X144815946Y-113642207D01*
X144853851Y-113517449D01*
X144853852Y-113517443D01*
X144855355Y-113512497D01*
X144884194Y-113293445D01*
X144912917Y-113228518D01*
X144972182Y-113189427D01*
X145043173Y-113188582D01*
X145081387Y-113206679D01*
X145268251Y-113337523D01*
X145273233Y-113339846D01*
X145273238Y-113339849D01*
X145469765Y-113431490D01*
X145475757Y-113434284D01*
X145481065Y-113435706D01*
X145481067Y-113435707D01*
X145691598Y-113492119D01*
X145691600Y-113492119D01*
X145696913Y-113493543D01*
X145925000Y-113513498D01*
X146153087Y-113493543D01*
X146158400Y-113492119D01*
X146158402Y-113492119D01*
X146368933Y-113435707D01*
X146368935Y-113435706D01*
X146374243Y-113434284D01*
X146380235Y-113431490D01*
X146576762Y-113339849D01*
X146576767Y-113339846D01*
X146581749Y-113337523D01*
X146737424Y-113228518D01*
X146764789Y-113209357D01*
X146764792Y-113209355D01*
X146769300Y-113206198D01*
X146931198Y-113044300D01*
X147062523Y-112856749D01*
X147064846Y-112851767D01*
X147064849Y-112851762D01*
X147156961Y-112654225D01*
X147156961Y-112654224D01*
X147159284Y-112649243D01*
X147178519Y-112577460D01*
X147208245Y-112466522D01*
X152262273Y-112466522D01*
X152309764Y-112643761D01*
X152313510Y-112654053D01*
X152405586Y-112851511D01*
X152411069Y-112861007D01*
X152536028Y-113039467D01*
X152543084Y-113047875D01*
X152697125Y-113201916D01*
X152705533Y-113208972D01*
X152883993Y-113333931D01*
X152893489Y-113339414D01*
X153090947Y-113431490D01*
X153101239Y-113435236D01*
X153273503Y-113481394D01*
X153287599Y-113481058D01*
X153291000Y-113473116D01*
X153291000Y-113467967D01*
X153799000Y-113467967D01*
X153802973Y-113481498D01*
X153811522Y-113482727D01*
X153988761Y-113435236D01*
X153999053Y-113431490D01*
X154196511Y-113339414D01*
X154206007Y-113333931D01*
X154384467Y-113208972D01*
X154392875Y-113201916D01*
X154546916Y-113047875D01*
X154553972Y-113039467D01*
X154678931Y-112861007D01*
X154684414Y-112851511D01*
X154776490Y-112654053D01*
X154780236Y-112643761D01*
X154826394Y-112471497D01*
X154826058Y-112457401D01*
X154818116Y-112454000D01*
X153817115Y-112454000D01*
X153801876Y-112458475D01*
X153800671Y-112459865D01*
X153799000Y-112467548D01*
X153799000Y-113467967D01*
X153291000Y-113467967D01*
X153291000Y-112472115D01*
X153286525Y-112456876D01*
X153285135Y-112455671D01*
X153277452Y-112454000D01*
X152277033Y-112454000D01*
X152263502Y-112457973D01*
X152262273Y-112466522D01*
X147208245Y-112466522D01*
X147217119Y-112433402D01*
X147217119Y-112433400D01*
X147218543Y-112428087D01*
X147238498Y-112200000D01*
X147218543Y-111971913D01*
X147212321Y-111948691D01*
X147206912Y-111928503D01*
X152263606Y-111928503D01*
X152263942Y-111942599D01*
X152271884Y-111946000D01*
X153272885Y-111946000D01*
X153288124Y-111941525D01*
X153289329Y-111940135D01*
X153291000Y-111932452D01*
X153291000Y-111927885D01*
X153799000Y-111927885D01*
X153803475Y-111943124D01*
X153804865Y-111944329D01*
X153812548Y-111946000D01*
X154812967Y-111946000D01*
X154826498Y-111942027D01*
X154827727Y-111933478D01*
X154780236Y-111756239D01*
X154776490Y-111745947D01*
X154684414Y-111548489D01*
X154678931Y-111538993D01*
X154553972Y-111360533D01*
X154546916Y-111352125D01*
X154392875Y-111198084D01*
X154384467Y-111191028D01*
X154206007Y-111066069D01*
X154196511Y-111060586D01*
X153999053Y-110968510D01*
X153988761Y-110964764D01*
X153816497Y-110918606D01*
X153802401Y-110918942D01*
X153799000Y-110926884D01*
X153799000Y-111927885D01*
X153291000Y-111927885D01*
X153291000Y-110932033D01*
X153287027Y-110918502D01*
X153278478Y-110917273D01*
X153101239Y-110964764D01*
X153090947Y-110968510D01*
X152893489Y-111060586D01*
X152883993Y-111066069D01*
X152705533Y-111191028D01*
X152697125Y-111198084D01*
X152543084Y-111352125D01*
X152536028Y-111360533D01*
X152411069Y-111538993D01*
X152405586Y-111548489D01*
X152313510Y-111745947D01*
X152309764Y-111756239D01*
X152263606Y-111928503D01*
X147206912Y-111928503D01*
X147160707Y-111756067D01*
X147160706Y-111756065D01*
X147159284Y-111750757D01*
X147152323Y-111735829D01*
X147064849Y-111548238D01*
X147064846Y-111548233D01*
X147062523Y-111543251D01*
X146931198Y-111355700D01*
X146769300Y-111193802D01*
X146764792Y-111190645D01*
X146764789Y-111190643D01*
X146686611Y-111135902D01*
X146581749Y-111062477D01*
X146576767Y-111060154D01*
X146576762Y-111060151D01*
X146379225Y-110968039D01*
X146379224Y-110968039D01*
X146374243Y-110965716D01*
X146368935Y-110964294D01*
X146368933Y-110964293D01*
X146158402Y-110907881D01*
X146158400Y-110907881D01*
X146153087Y-110906457D01*
X145925000Y-110886502D01*
X145696913Y-110906457D01*
X145691600Y-110907881D01*
X145691598Y-110907881D01*
X145481067Y-110964293D01*
X145481065Y-110964294D01*
X145475757Y-110965716D01*
X145470776Y-110968039D01*
X145470775Y-110968039D01*
X145273238Y-111060151D01*
X145273233Y-111060154D01*
X145268251Y-111062477D01*
X145163389Y-111135902D01*
X145085211Y-111190643D01*
X145085208Y-111190645D01*
X145080700Y-111193802D01*
X144918802Y-111355700D01*
X144787477Y-111543251D01*
X144785154Y-111548233D01*
X144785151Y-111548238D01*
X144697677Y-111735829D01*
X144690716Y-111750757D01*
X144689294Y-111756065D01*
X144689293Y-111756067D01*
X144637679Y-111948691D01*
X144631457Y-111971913D01*
X144630978Y-111977389D01*
X144630977Y-111977394D01*
X144626005Y-112034232D01*
X144600142Y-112100350D01*
X144542638Y-112141990D01*
X144471751Y-112145931D01*
X144419059Y-112117810D01*
X144418506Y-112118510D01*
X144414620Y-112115441D01*
X144228328Y-111968317D01*
X144119630Y-111908312D01*
X144020705Y-111853702D01*
X144020702Y-111853701D01*
X144016174Y-111851201D01*
X143880662Y-111803214D01*
X143792613Y-111772034D01*
X143792610Y-111772033D01*
X143787741Y-111770309D01*
X143782652Y-111769402D01*
X143782650Y-111769402D01*
X143677976Y-111750757D01*
X143549163Y-111727812D01*
X143455625Y-111726669D01*
X143312018Y-111724914D01*
X143312016Y-111724914D01*
X143306848Y-111724851D01*
X143067303Y-111761507D01*
X142836961Y-111836794D01*
X142804481Y-111853702D01*
X142633712Y-111942599D01*
X142622009Y-111948691D01*
X142617876Y-111951794D01*
X142617873Y-111951796D01*
X142448875Y-112078683D01*
X142428218Y-112094193D01*
X142260795Y-112269392D01*
X142245234Y-112292204D01*
X142190324Y-112337205D01*
X142119799Y-112345376D01*
X142056052Y-112314122D01*
X142042987Y-112299893D01*
X142041599Y-112297747D01*
X142036555Y-112292203D01*
X141881981Y-112122329D01*
X141878506Y-112118510D01*
X141688328Y-111968317D01*
X141579630Y-111908312D01*
X141480705Y-111853702D01*
X141480702Y-111853701D01*
X141476174Y-111851201D01*
X141340662Y-111803214D01*
X141252613Y-111772034D01*
X141252610Y-111772033D01*
X141247741Y-111770309D01*
X141242652Y-111769402D01*
X141242650Y-111769402D01*
X141137976Y-111750757D01*
X141009163Y-111727812D01*
X140915625Y-111726669D01*
X140772018Y-111724914D01*
X140772016Y-111724914D01*
X140766848Y-111724851D01*
X140527303Y-111761507D01*
X140296961Y-111836794D01*
X140264481Y-111853702D01*
X140093712Y-111942599D01*
X140082009Y-111948691D01*
X140077876Y-111951794D01*
X140077873Y-111951796D01*
X139908875Y-112078683D01*
X139888218Y-112094193D01*
X139720795Y-112269392D01*
X139717884Y-112273660D01*
X139717878Y-112273667D01*
X139704935Y-112292640D01*
X139650023Y-112337642D01*
X139579498Y-112345812D01*
X139515751Y-112314556D01*
X139501021Y-112298515D01*
X139497718Y-112294227D01*
X139341641Y-112122700D01*
X139334108Y-112115674D01*
X139152104Y-111971936D01*
X139143532Y-111966240D01*
X138940492Y-111854156D01*
X138931095Y-111849933D01*
X138712480Y-111772518D01*
X138702530Y-111769889D01*
X138601836Y-111751953D01*
X138588540Y-111753412D01*
X138584000Y-111767968D01*
X138584000Y-113328000D01*
X138563998Y-113396121D01*
X138510342Y-113442614D01*
X138458000Y-113454000D01*
X138202000Y-113454000D01*
X138133879Y-113433998D01*
X138087386Y-113380342D01*
X138076000Y-113328000D01*
X138076000Y-111766555D01*
X138072082Y-111753211D01*
X138057806Y-111751224D01*
X137992532Y-111761213D01*
X137982504Y-111763602D01*
X137762073Y-111835650D01*
X137752564Y-111839647D01*
X137546865Y-111946727D01*
X137538140Y-111952221D01*
X137402881Y-112053777D01*
X137336396Y-112078683D01*
X137267001Y-112063691D01*
X137216727Y-112013560D01*
X137209246Y-111997247D01*
X137208967Y-111996503D01*
X137205815Y-111988095D01*
X137118461Y-111871539D01*
X137001905Y-111784185D01*
X136865516Y-111733055D01*
X136803334Y-111726300D01*
X134776666Y-111726300D01*
X134714484Y-111733055D01*
X134578095Y-111784185D01*
X134461539Y-111871539D01*
X134374185Y-111988095D01*
X134323055Y-112124484D01*
X134316300Y-112186666D01*
X134316300Y-114213334D01*
X134323055Y-114275516D01*
X134374185Y-114411905D01*
X134461539Y-114528461D01*
X134463389Y-114529847D01*
X134495808Y-114589217D01*
X134490743Y-114660032D01*
X134448196Y-114716868D01*
X134381676Y-114741679D01*
X134372687Y-114742000D01*
X124799700Y-114742000D01*
X124731579Y-114721998D01*
X124685086Y-114668342D01*
X124673700Y-114616000D01*
X124673700Y-112756666D01*
X124666945Y-112694484D01*
X124615815Y-112558095D01*
X124589613Y-112523134D01*
X127466500Y-112523134D01*
X127473255Y-112585316D01*
X127524385Y-112721705D01*
X127611739Y-112838261D01*
X127728295Y-112925615D01*
X127864684Y-112976745D01*
X127926866Y-112983500D01*
X129623134Y-112983500D01*
X129685316Y-112976745D01*
X129821705Y-112925615D01*
X129938261Y-112838261D01*
X129996119Y-112761062D01*
X130553493Y-112761062D01*
X130562789Y-112773077D01*
X130613994Y-112808931D01*
X130623489Y-112814414D01*
X130820947Y-112906490D01*
X130831239Y-112910236D01*
X131041688Y-112966625D01*
X131052481Y-112968528D01*
X131269525Y-112987517D01*
X131280475Y-112987517D01*
X131497519Y-112968528D01*
X131508312Y-112966625D01*
X131718761Y-112910236D01*
X131729053Y-112906490D01*
X131926511Y-112814414D01*
X131936006Y-112808931D01*
X131988048Y-112772491D01*
X131996424Y-112762012D01*
X131989356Y-112748566D01*
X131287812Y-112047022D01*
X131273868Y-112039408D01*
X131272035Y-112039539D01*
X131265420Y-112043790D01*
X130559923Y-112749287D01*
X130553493Y-112761062D01*
X129996119Y-112761062D01*
X130025615Y-112721705D01*
X130076745Y-112585316D01*
X130083500Y-112523134D01*
X130083500Y-112519815D01*
X130107153Y-112452890D01*
X130153156Y-112417196D01*
X130152141Y-112415266D01*
X130163000Y-112409558D01*
X130163245Y-112409368D01*
X130163403Y-112409347D01*
X130201434Y-112389356D01*
X130902978Y-111687812D01*
X130909356Y-111676132D01*
X131639408Y-111676132D01*
X131639539Y-111677965D01*
X131643790Y-111684580D01*
X132349287Y-112390077D01*
X132361062Y-112396507D01*
X132373077Y-112387211D01*
X132408931Y-112336006D01*
X132414414Y-112326511D01*
X132506490Y-112129053D01*
X132510236Y-112118761D01*
X132566625Y-111908312D01*
X132568528Y-111897519D01*
X132587517Y-111680475D01*
X132587517Y-111669525D01*
X132568528Y-111452481D01*
X132566625Y-111441688D01*
X132510236Y-111231239D01*
X132506490Y-111220947D01*
X132414414Y-111023489D01*
X132408931Y-111013994D01*
X132372491Y-110961952D01*
X132362012Y-110953576D01*
X132348566Y-110960644D01*
X131647022Y-111662188D01*
X131639408Y-111676132D01*
X130909356Y-111676132D01*
X130910592Y-111673868D01*
X130910461Y-111672035D01*
X130906210Y-111665420D01*
X130200713Y-110959923D01*
X130158971Y-110937129D01*
X130148971Y-110934953D01*
X130098773Y-110884747D01*
X130083549Y-110831186D01*
X130083500Y-110830281D01*
X130083500Y-110826866D01*
X130076745Y-110764684D01*
X130025615Y-110628295D01*
X129995407Y-110587988D01*
X130553576Y-110587988D01*
X130560644Y-110601434D01*
X131262188Y-111302978D01*
X131276132Y-111310592D01*
X131277965Y-111310461D01*
X131284580Y-111306210D01*
X131990077Y-110600713D01*
X131996507Y-110588938D01*
X131987211Y-110576923D01*
X131936006Y-110541069D01*
X131926511Y-110535586D01*
X131729053Y-110443510D01*
X131718761Y-110439764D01*
X131508312Y-110383375D01*
X131497519Y-110381472D01*
X131280475Y-110362483D01*
X131269525Y-110362483D01*
X131052481Y-110381472D01*
X131041688Y-110383375D01*
X130831239Y-110439764D01*
X130820947Y-110443510D01*
X130623489Y-110535586D01*
X130613994Y-110541069D01*
X130561952Y-110577509D01*
X130553576Y-110587988D01*
X129995407Y-110587988D01*
X129938261Y-110511739D01*
X129821705Y-110424385D01*
X129685316Y-110373255D01*
X129623134Y-110366500D01*
X127926866Y-110366500D01*
X127864684Y-110373255D01*
X127728295Y-110424385D01*
X127611739Y-110511739D01*
X127524385Y-110628295D01*
X127473255Y-110764684D01*
X127466500Y-110826866D01*
X127466500Y-112523134D01*
X124589613Y-112523134D01*
X124528461Y-112441539D01*
X124411905Y-112354185D01*
X124403497Y-112351033D01*
X124395625Y-112346723D01*
X124396346Y-112345406D01*
X124347412Y-112308648D01*
X124322710Y-112242087D01*
X124337916Y-112172738D01*
X124346081Y-112159779D01*
X124464094Y-111995547D01*
X124469398Y-111986719D01*
X124572147Y-111778821D01*
X124575946Y-111769226D01*
X124643360Y-111547343D01*
X124645539Y-111537262D01*
X124650186Y-111501961D01*
X124647975Y-111487779D01*
X124634817Y-111484000D01*
X123072000Y-111484000D01*
X123003879Y-111463998D01*
X122957386Y-111410342D01*
X122946000Y-111358000D01*
X122946000Y-111102000D01*
X122966002Y-111033879D01*
X123019658Y-110987386D01*
X123072000Y-110976000D01*
X124637128Y-110976000D01*
X124650659Y-110972027D01*
X124651964Y-110962947D01*
X124600642Y-110758622D01*
X124597324Y-110748874D01*
X124504846Y-110536189D01*
X124499980Y-110527114D01*
X124374012Y-110332398D01*
X124367719Y-110324227D01*
X124259963Y-110205804D01*
X124228911Y-110141958D01*
X124237307Y-110071460D01*
X124282484Y-110016692D01*
X124304936Y-110004598D01*
X124372222Y-109976727D01*
X124437928Y-109949511D01*
X124437932Y-109949509D01*
X124442502Y-109947616D01*
X124658376Y-109815328D01*
X124850898Y-109650898D01*
X125015328Y-109458376D01*
X125147616Y-109242502D01*
X125185932Y-109150000D01*
X144611502Y-109150000D01*
X144631457Y-109378087D01*
X144632881Y-109383400D01*
X144632881Y-109383402D01*
X144652971Y-109458376D01*
X144690716Y-109599243D01*
X144693039Y-109604224D01*
X144693039Y-109604225D01*
X144785151Y-109801762D01*
X144785154Y-109801767D01*
X144787477Y-109806749D01*
X144918802Y-109994300D01*
X145080700Y-110156198D01*
X145085208Y-110159355D01*
X145085211Y-110159357D01*
X145163389Y-110214098D01*
X145268251Y-110287523D01*
X145273233Y-110289846D01*
X145273238Y-110289849D01*
X145469765Y-110381490D01*
X145475757Y-110384284D01*
X145481065Y-110385706D01*
X145481067Y-110385707D01*
X145691598Y-110442119D01*
X145691600Y-110442119D01*
X145696913Y-110443543D01*
X145925000Y-110463498D01*
X146153087Y-110443543D01*
X146158400Y-110442119D01*
X146158402Y-110442119D01*
X146368933Y-110385707D01*
X146368935Y-110385706D01*
X146374243Y-110384284D01*
X146380235Y-110381490D01*
X146576762Y-110289849D01*
X146576767Y-110289846D01*
X146581749Y-110287523D01*
X146686611Y-110214098D01*
X146764789Y-110159357D01*
X146764792Y-110159355D01*
X146769300Y-110156198D01*
X146931198Y-109994300D01*
X147062523Y-109806749D01*
X147064846Y-109801767D01*
X147064849Y-109801762D01*
X147156961Y-109604225D01*
X147156961Y-109604224D01*
X147159284Y-109599243D01*
X147197030Y-109458376D01*
X147208245Y-109416522D01*
X152262273Y-109416522D01*
X152309764Y-109593761D01*
X152313510Y-109604053D01*
X152405586Y-109801511D01*
X152411069Y-109811007D01*
X152536028Y-109989467D01*
X152543084Y-109997875D01*
X152697125Y-110151916D01*
X152705533Y-110158972D01*
X152883993Y-110283931D01*
X152893489Y-110289414D01*
X153090947Y-110381490D01*
X153101239Y-110385236D01*
X153273503Y-110431394D01*
X153287599Y-110431058D01*
X153291000Y-110423116D01*
X153291000Y-110417967D01*
X153799000Y-110417967D01*
X153802973Y-110431498D01*
X153811522Y-110432727D01*
X153988761Y-110385236D01*
X153999053Y-110381490D01*
X154196511Y-110289414D01*
X154206007Y-110283931D01*
X154384467Y-110158972D01*
X154392875Y-110151916D01*
X154546916Y-109997875D01*
X154553972Y-109989467D01*
X154678931Y-109811007D01*
X154684414Y-109801511D01*
X154776490Y-109604053D01*
X154780236Y-109593761D01*
X154826394Y-109421497D01*
X154826058Y-109407401D01*
X154818116Y-109404000D01*
X153817115Y-109404000D01*
X153801876Y-109408475D01*
X153800671Y-109409865D01*
X153799000Y-109417548D01*
X153799000Y-110417967D01*
X153291000Y-110417967D01*
X153291000Y-109422115D01*
X153286525Y-109406876D01*
X153285135Y-109405671D01*
X153277452Y-109404000D01*
X152277033Y-109404000D01*
X152263502Y-109407973D01*
X152262273Y-109416522D01*
X147208245Y-109416522D01*
X147217119Y-109383402D01*
X147217119Y-109383400D01*
X147218543Y-109378087D01*
X147238498Y-109150000D01*
X147218543Y-108921913D01*
X147159284Y-108700757D01*
X147107567Y-108589849D01*
X147064849Y-108498238D01*
X147064846Y-108498233D01*
X147062523Y-108493251D01*
X146931198Y-108305700D01*
X146769300Y-108143802D01*
X146764792Y-108140645D01*
X146764789Y-108140643D01*
X146686611Y-108085902D01*
X146581749Y-108012477D01*
X146576767Y-108010154D01*
X146576762Y-108010151D01*
X146379225Y-107918039D01*
X146379224Y-107918039D01*
X146374243Y-107915716D01*
X146368935Y-107914294D01*
X146368933Y-107914293D01*
X146158402Y-107857881D01*
X146158400Y-107857881D01*
X146153087Y-107856457D01*
X145925000Y-107836502D01*
X145696913Y-107856457D01*
X145691600Y-107857881D01*
X145691598Y-107857881D01*
X145481067Y-107914293D01*
X145481065Y-107914294D01*
X145475757Y-107915716D01*
X145470776Y-107918039D01*
X145470775Y-107918039D01*
X145273238Y-108010151D01*
X145273233Y-108010154D01*
X145268251Y-108012477D01*
X145163389Y-108085902D01*
X145085211Y-108140643D01*
X145085208Y-108140645D01*
X145080700Y-108143802D01*
X144918802Y-108305700D01*
X144787477Y-108493251D01*
X144785154Y-108498233D01*
X144785151Y-108498238D01*
X144742433Y-108589849D01*
X144690716Y-108700757D01*
X144631457Y-108921913D01*
X144611502Y-109150000D01*
X125185932Y-109150000D01*
X125188200Y-109144525D01*
X125242611Y-109013164D01*
X125242612Y-109013162D01*
X125244505Y-109008591D01*
X125266590Y-108916598D01*
X125302454Y-108767216D01*
X125302455Y-108767210D01*
X125303609Y-108762403D01*
X125323474Y-108510000D01*
X125303609Y-108257597D01*
X125277318Y-108148084D01*
X125245660Y-108016221D01*
X125244505Y-108011409D01*
X125242611Y-108006836D01*
X125149511Y-107782072D01*
X125149509Y-107782068D01*
X125147616Y-107777498D01*
X125015328Y-107561624D01*
X124919992Y-107450000D01*
X125761502Y-107450000D01*
X125781457Y-107678087D01*
X125782881Y-107683400D01*
X125782881Y-107683402D01*
X125837056Y-107885582D01*
X125840716Y-107899243D01*
X125843039Y-107904224D01*
X125843039Y-107904225D01*
X125935151Y-108101762D01*
X125935154Y-108101767D01*
X125937477Y-108106749D01*
X126068802Y-108294300D01*
X126230700Y-108456198D01*
X126235208Y-108459355D01*
X126235211Y-108459357D01*
X126300496Y-108505070D01*
X126418251Y-108587523D01*
X126423233Y-108589846D01*
X126423238Y-108589849D01*
X126620775Y-108681961D01*
X126625757Y-108684284D01*
X126631065Y-108685706D01*
X126631067Y-108685707D01*
X126841598Y-108742119D01*
X126841600Y-108742119D01*
X126846913Y-108743543D01*
X127075000Y-108763498D01*
X127303087Y-108743543D01*
X127308400Y-108742119D01*
X127308402Y-108742119D01*
X127518933Y-108685707D01*
X127518935Y-108685706D01*
X127524243Y-108684284D01*
X127529225Y-108681961D01*
X127726762Y-108589849D01*
X127726767Y-108589846D01*
X127731749Y-108587523D01*
X127849504Y-108505070D01*
X127914789Y-108459357D01*
X127914792Y-108459355D01*
X127919300Y-108456198D01*
X128081198Y-108294300D01*
X128212523Y-108106749D01*
X128214846Y-108101767D01*
X128214849Y-108101762D01*
X128306961Y-107904225D01*
X128306961Y-107904224D01*
X128309284Y-107899243D01*
X128312945Y-107885582D01*
X128367119Y-107683402D01*
X128367119Y-107683400D01*
X128368543Y-107678087D01*
X128388498Y-107450000D01*
X128368543Y-107221913D01*
X128367119Y-107216598D01*
X128310707Y-107006067D01*
X128310706Y-107006065D01*
X128309284Y-107000757D01*
X128305997Y-106993708D01*
X128214849Y-106798238D01*
X128214846Y-106798233D01*
X128212523Y-106793251D01*
X128081198Y-106605700D01*
X127919300Y-106443802D01*
X127914792Y-106440645D01*
X127914789Y-106440643D01*
X127836611Y-106385902D01*
X127731749Y-106312477D01*
X127726767Y-106310154D01*
X127726762Y-106310151D01*
X127529225Y-106218039D01*
X127529224Y-106218039D01*
X127524243Y-106215716D01*
X127518935Y-106214294D01*
X127518933Y-106214293D01*
X127308402Y-106157881D01*
X127308400Y-106157881D01*
X127303087Y-106156457D01*
X127075000Y-106136502D01*
X126846913Y-106156457D01*
X126841600Y-106157881D01*
X126841598Y-106157881D01*
X126631067Y-106214293D01*
X126631065Y-106214294D01*
X126625757Y-106215716D01*
X126620776Y-106218039D01*
X126620775Y-106218039D01*
X126423238Y-106310151D01*
X126423233Y-106310154D01*
X126418251Y-106312477D01*
X126313389Y-106385902D01*
X126235211Y-106440643D01*
X126235208Y-106440645D01*
X126230700Y-106443802D01*
X126068802Y-106605700D01*
X125937477Y-106793251D01*
X125935154Y-106798233D01*
X125935151Y-106798238D01*
X125844003Y-106993708D01*
X125840716Y-107000757D01*
X125839294Y-107006065D01*
X125839293Y-107006067D01*
X125782881Y-107216598D01*
X125781457Y-107221913D01*
X125761502Y-107450000D01*
X124919992Y-107450000D01*
X124850898Y-107369102D01*
X124658376Y-107204672D01*
X124442502Y-107072384D01*
X124437932Y-107070491D01*
X124437928Y-107070489D01*
X124213164Y-106977389D01*
X124213162Y-106977388D01*
X124208591Y-106975495D01*
X124123968Y-106955179D01*
X123967216Y-106917546D01*
X123967210Y-106917545D01*
X123962403Y-106916391D01*
X123710000Y-106896526D01*
X123457597Y-106916391D01*
X123452790Y-106917545D01*
X123452784Y-106917546D01*
X123296032Y-106955179D01*
X123211409Y-106975495D01*
X123206838Y-106977388D01*
X123206836Y-106977389D01*
X122982072Y-107070489D01*
X122982068Y-107070491D01*
X122977498Y-107072384D01*
X122761624Y-107204672D01*
X122569102Y-107369102D01*
X122404672Y-107561624D01*
X122402090Y-107565837D01*
X122402083Y-107565847D01*
X122366432Y-107624024D01*
X122313785Y-107671655D01*
X122243743Y-107683262D01*
X122178546Y-107655159D01*
X122138892Y-107596268D01*
X122133000Y-107558189D01*
X122133000Y-105275000D01*
X128541502Y-105275000D01*
X128561457Y-105503087D01*
X128562881Y-105508400D01*
X128562881Y-105508402D01*
X128608918Y-105680211D01*
X128620716Y-105724243D01*
X128623039Y-105729224D01*
X128623039Y-105729225D01*
X128715151Y-105926762D01*
X128715154Y-105926767D01*
X128717477Y-105931749D01*
X128848802Y-106119300D01*
X129010700Y-106281198D01*
X129015208Y-106284355D01*
X129015211Y-106284357D01*
X129093389Y-106339098D01*
X129198251Y-106412523D01*
X129203233Y-106414846D01*
X129203238Y-106414849D01*
X129400775Y-106506961D01*
X129405757Y-106509284D01*
X129411065Y-106510706D01*
X129411067Y-106510707D01*
X129621598Y-106567119D01*
X129621600Y-106567119D01*
X129626913Y-106568543D01*
X129855000Y-106588498D01*
X130083087Y-106568543D01*
X130088400Y-106567119D01*
X130088402Y-106567119D01*
X130298933Y-106510707D01*
X130298935Y-106510706D01*
X130304243Y-106509284D01*
X130309225Y-106506961D01*
X130506762Y-106414849D01*
X130506767Y-106414846D01*
X130511749Y-106412523D01*
X130616611Y-106339098D01*
X130694789Y-106284357D01*
X130694792Y-106284355D01*
X130699300Y-106281198D01*
X130861198Y-106119300D01*
X130992523Y-105931749D01*
X130994846Y-105926767D01*
X130994849Y-105926762D01*
X131086961Y-105729225D01*
X131086961Y-105729224D01*
X131089284Y-105724243D01*
X131101083Y-105680211D01*
X131147119Y-105508402D01*
X131147119Y-105508400D01*
X131148543Y-105503087D01*
X131168498Y-105275000D01*
X136161502Y-105275000D01*
X136181457Y-105503087D01*
X136182881Y-105508400D01*
X136182881Y-105508402D01*
X136228918Y-105680211D01*
X136240716Y-105724243D01*
X136243039Y-105729224D01*
X136243039Y-105729225D01*
X136335151Y-105926762D01*
X136335154Y-105926767D01*
X136337477Y-105931749D01*
X136468802Y-106119300D01*
X136630700Y-106281198D01*
X136635208Y-106284355D01*
X136635211Y-106284357D01*
X136713389Y-106339098D01*
X136818251Y-106412523D01*
X136823233Y-106414846D01*
X136823238Y-106414849D01*
X137020775Y-106506961D01*
X137025757Y-106509284D01*
X137031065Y-106510706D01*
X137031067Y-106510707D01*
X137241598Y-106567119D01*
X137241600Y-106567119D01*
X137246913Y-106568543D01*
X137475000Y-106588498D01*
X137703087Y-106568543D01*
X137708400Y-106567119D01*
X137708402Y-106567119D01*
X137918933Y-106510707D01*
X137918935Y-106510706D01*
X137924243Y-106509284D01*
X137929225Y-106506961D01*
X138126762Y-106414849D01*
X138126767Y-106414846D01*
X138131749Y-106412523D01*
X138236611Y-106339098D01*
X138314789Y-106284357D01*
X138314792Y-106284355D01*
X138319300Y-106281198D01*
X138481198Y-106119300D01*
X138612523Y-105931749D01*
X138614846Y-105926767D01*
X138614849Y-105926762D01*
X138706961Y-105729225D01*
X138706961Y-105729224D01*
X138709284Y-105724243D01*
X138721083Y-105680211D01*
X138767119Y-105508402D01*
X138767119Y-105508400D01*
X138768543Y-105503087D01*
X138783429Y-105332941D01*
X138809293Y-105266823D01*
X138866796Y-105225184D01*
X138937683Y-105221243D01*
X138989432Y-105246977D01*
X139036823Y-105286322D01*
X139246053Y-105408586D01*
X139250873Y-105410426D01*
X139250878Y-105410429D01*
X139359220Y-105451800D01*
X139472442Y-105495035D01*
X139477510Y-105496066D01*
X139477513Y-105496067D01*
X139583838Y-105517699D01*
X139709910Y-105543349D01*
X139715085Y-105543539D01*
X139715087Y-105543539D01*
X139946917Y-105552040D01*
X139946921Y-105552040D01*
X139952081Y-105552229D01*
X139957201Y-105551573D01*
X139957203Y-105551573D01*
X140049331Y-105539771D01*
X140192450Y-105521437D01*
X140197401Y-105519952D01*
X140197404Y-105519951D01*
X140419612Y-105453285D01*
X140419611Y-105453285D01*
X140424562Y-105451800D01*
X140570816Y-105380151D01*
X140637533Y-105347467D01*
X140637538Y-105347464D01*
X140642184Y-105345188D01*
X140646394Y-105342185D01*
X140646399Y-105342182D01*
X140835259Y-105207469D01*
X140835264Y-105207465D01*
X140839471Y-105204464D01*
X141011126Y-105033408D01*
X141152537Y-104836613D01*
X141157903Y-104825757D01*
X141257614Y-104624006D01*
X141259908Y-104619365D01*
X141292478Y-104512165D01*
X141328851Y-104392449D01*
X141328853Y-104392441D01*
X141330355Y-104387497D01*
X141349307Y-104243543D01*
X141361549Y-104150558D01*
X141361549Y-104150554D01*
X141361986Y-104147237D01*
X141362147Y-104140634D01*
X141363669Y-104078365D01*
X141363669Y-104078361D01*
X141363751Y-104075000D01*
X141343895Y-103833482D01*
X141284859Y-103598449D01*
X141188228Y-103376215D01*
X141094413Y-103231198D01*
X141059407Y-103177087D01*
X141059405Y-103177084D01*
X141056599Y-103172747D01*
X140893506Y-102993510D01*
X140703328Y-102843317D01*
X140491174Y-102726201D01*
X140355662Y-102678214D01*
X140267613Y-102647034D01*
X140267610Y-102647033D01*
X140262741Y-102645309D01*
X140257652Y-102644402D01*
X140257650Y-102644402D01*
X140184394Y-102631353D01*
X140024163Y-102602812D01*
X139933635Y-102601706D01*
X139787018Y-102599914D01*
X139787016Y-102599914D01*
X139781848Y-102599851D01*
X139542303Y-102636507D01*
X139311961Y-102711794D01*
X139097009Y-102823691D01*
X139092876Y-102826794D01*
X139092873Y-102826796D01*
X138920700Y-102956067D01*
X138903218Y-102969193D01*
X138735795Y-103144392D01*
X138732881Y-103148664D01*
X138732880Y-103148665D01*
X138660588Y-103254642D01*
X138599234Y-103344583D01*
X138497203Y-103564390D01*
X138495821Y-103569372D01*
X138495821Y-103569373D01*
X138458344Y-103704512D01*
X138432442Y-103797910D01*
X138431893Y-103803047D01*
X138412674Y-103982881D01*
X138406690Y-104038871D01*
X138406987Y-104044023D01*
X138406987Y-104044027D01*
X138409212Y-104082608D01*
X138393165Y-104151767D01*
X138342274Y-104201271D01*
X138272699Y-104215404D01*
X138211151Y-104193074D01*
X138136263Y-104140637D01*
X138136257Y-104140633D01*
X138131749Y-104137477D01*
X138126767Y-104135154D01*
X138126762Y-104135151D01*
X137929225Y-104043039D01*
X137929224Y-104043039D01*
X137924243Y-104040716D01*
X137918935Y-104039294D01*
X137918933Y-104039293D01*
X137708402Y-103982881D01*
X137708400Y-103982881D01*
X137703087Y-103981457D01*
X137475000Y-103961502D01*
X137246913Y-103981457D01*
X137241600Y-103982881D01*
X137241598Y-103982881D01*
X137031067Y-104039293D01*
X137031065Y-104039294D01*
X137025757Y-104040716D01*
X137020776Y-104043039D01*
X137020775Y-104043039D01*
X136823238Y-104135151D01*
X136823233Y-104135154D01*
X136818251Y-104137477D01*
X136728511Y-104200314D01*
X136635211Y-104265643D01*
X136635208Y-104265645D01*
X136630700Y-104268802D01*
X136468802Y-104430700D01*
X136337477Y-104618251D01*
X136335154Y-104623233D01*
X136335151Y-104623238D01*
X136243039Y-104820775D01*
X136240716Y-104825757D01*
X136239294Y-104831065D01*
X136239293Y-104831067D01*
X136206819Y-104952262D01*
X136181457Y-105046913D01*
X136161502Y-105275000D01*
X131168498Y-105275000D01*
X131148543Y-105046913D01*
X131123181Y-104952262D01*
X131090707Y-104831067D01*
X131090706Y-104831065D01*
X131089284Y-104825757D01*
X131086961Y-104820775D01*
X130994849Y-104623238D01*
X130994846Y-104623233D01*
X130992523Y-104618251D01*
X130861198Y-104430700D01*
X130699300Y-104268802D01*
X130694792Y-104265645D01*
X130694789Y-104265643D01*
X130601489Y-104200314D01*
X130511749Y-104137477D01*
X130506767Y-104135154D01*
X130506762Y-104135151D01*
X130309225Y-104043039D01*
X130309224Y-104043039D01*
X130304243Y-104040716D01*
X130298935Y-104039294D01*
X130298933Y-104039293D01*
X130088402Y-103982881D01*
X130088400Y-103982881D01*
X130083087Y-103981457D01*
X129855000Y-103961502D01*
X129626913Y-103981457D01*
X129621600Y-103982881D01*
X129621598Y-103982881D01*
X129411067Y-104039293D01*
X129411065Y-104039294D01*
X129405757Y-104040716D01*
X129400776Y-104043039D01*
X129400775Y-104043039D01*
X129203238Y-104135151D01*
X129203233Y-104135154D01*
X129198251Y-104137477D01*
X129108511Y-104200314D01*
X129015211Y-104265643D01*
X129015208Y-104265645D01*
X129010700Y-104268802D01*
X128848802Y-104430700D01*
X128717477Y-104618251D01*
X128715154Y-104623233D01*
X128715151Y-104623238D01*
X128623039Y-104820775D01*
X128620716Y-104825757D01*
X128619294Y-104831065D01*
X128619293Y-104831067D01*
X128586819Y-104952262D01*
X128561457Y-105046913D01*
X128541502Y-105275000D01*
X122133000Y-105275000D01*
X122133000Y-102225000D01*
X128536502Y-102225000D01*
X128556457Y-102453087D01*
X128557881Y-102458400D01*
X128557881Y-102458402D01*
X128605605Y-102636507D01*
X128615716Y-102674243D01*
X128618039Y-102679224D01*
X128618039Y-102679225D01*
X128710151Y-102876762D01*
X128710154Y-102876767D01*
X128712477Y-102881749D01*
X128782740Y-102982094D01*
X128797756Y-103003539D01*
X128843802Y-103069300D01*
X129005700Y-103231198D01*
X129010208Y-103234355D01*
X129010211Y-103234357D01*
X129039181Y-103254642D01*
X129193251Y-103362523D01*
X129198233Y-103364846D01*
X129198238Y-103364849D01*
X129395775Y-103456961D01*
X129400757Y-103459284D01*
X129406065Y-103460706D01*
X129406067Y-103460707D01*
X129616598Y-103517119D01*
X129616600Y-103517119D01*
X129621913Y-103518543D01*
X129850000Y-103538498D01*
X130078087Y-103518543D01*
X130083400Y-103517119D01*
X130083402Y-103517119D01*
X130293933Y-103460707D01*
X130293935Y-103460706D01*
X130299243Y-103459284D01*
X130304225Y-103456961D01*
X130501762Y-103364849D01*
X130501767Y-103364846D01*
X130506749Y-103362523D01*
X130660819Y-103254642D01*
X130689789Y-103234357D01*
X130689792Y-103234355D01*
X130694300Y-103231198D01*
X130856198Y-103069300D01*
X130902245Y-103003539D01*
X130917260Y-102982094D01*
X130987523Y-102881749D01*
X130989846Y-102876767D01*
X130989849Y-102876762D01*
X131081961Y-102679225D01*
X131081961Y-102679224D01*
X131084284Y-102674243D01*
X131094396Y-102636507D01*
X131142119Y-102458402D01*
X131142119Y-102458400D01*
X131143543Y-102453087D01*
X131163498Y-102225000D01*
X131143543Y-101996913D01*
X131129312Y-101943802D01*
X131085707Y-101781067D01*
X131085706Y-101781065D01*
X131084284Y-101775757D01*
X131070340Y-101745854D01*
X130989849Y-101573238D01*
X130989846Y-101573233D01*
X130987523Y-101568251D01*
X130856198Y-101380700D01*
X130694300Y-101218802D01*
X130689792Y-101215645D01*
X130689789Y-101215643D01*
X130586071Y-101143019D01*
X130506749Y-101087477D01*
X130501767Y-101085154D01*
X130501762Y-101085151D01*
X130304225Y-100993039D01*
X130304224Y-100993039D01*
X130299243Y-100990716D01*
X130293935Y-100989294D01*
X130293933Y-100989293D01*
X130083402Y-100932881D01*
X130083400Y-100932881D01*
X130078087Y-100931457D01*
X129850000Y-100911502D01*
X129621913Y-100931457D01*
X129616600Y-100932881D01*
X129616598Y-100932881D01*
X129406067Y-100989293D01*
X129406065Y-100989294D01*
X129400757Y-100990716D01*
X129395776Y-100993039D01*
X129395775Y-100993039D01*
X129198238Y-101085151D01*
X129198233Y-101085154D01*
X129193251Y-101087477D01*
X129113929Y-101143019D01*
X129010211Y-101215643D01*
X129010208Y-101215645D01*
X129005700Y-101218802D01*
X128843802Y-101380700D01*
X128712477Y-101568251D01*
X128710154Y-101573233D01*
X128710151Y-101573238D01*
X128629660Y-101745854D01*
X128615716Y-101775757D01*
X128614294Y-101781065D01*
X128614293Y-101781067D01*
X128570688Y-101943802D01*
X128556457Y-101996913D01*
X128536502Y-102225000D01*
X122133000Y-102225000D01*
X122133000Y-99979909D01*
X122153002Y-99911788D01*
X122206658Y-99865295D01*
X122276932Y-99855191D01*
X122334565Y-99879083D01*
X122363295Y-99900615D01*
X122499684Y-99951745D01*
X122561866Y-99958500D01*
X124858134Y-99958500D01*
X124920316Y-99951745D01*
X125056705Y-99900615D01*
X125150926Y-99830000D01*
X125761502Y-99830000D01*
X125781457Y-100058087D01*
X125782881Y-100063400D01*
X125782881Y-100063402D01*
X125823100Y-100213498D01*
X125840716Y-100279243D01*
X125843039Y-100284224D01*
X125843039Y-100284225D01*
X125935151Y-100481762D01*
X125935154Y-100481767D01*
X125937477Y-100486749D01*
X126068802Y-100674300D01*
X126230700Y-100836198D01*
X126235208Y-100839355D01*
X126235211Y-100839357D01*
X126313389Y-100894098D01*
X126418251Y-100967523D01*
X126423233Y-100969846D01*
X126423238Y-100969849D01*
X126620775Y-101061961D01*
X126625757Y-101064284D01*
X126631065Y-101065706D01*
X126631067Y-101065707D01*
X126841598Y-101122119D01*
X126841600Y-101122119D01*
X126846913Y-101123543D01*
X127075000Y-101143498D01*
X127303087Y-101123543D01*
X127308400Y-101122119D01*
X127308402Y-101122119D01*
X127518933Y-101065707D01*
X127518935Y-101065706D01*
X127524243Y-101064284D01*
X127529225Y-101061961D01*
X127726762Y-100969849D01*
X127726767Y-100969846D01*
X127731749Y-100967523D01*
X127836611Y-100894098D01*
X127914789Y-100839357D01*
X127914792Y-100839355D01*
X127919300Y-100836198D01*
X128081198Y-100674300D01*
X128212523Y-100486749D01*
X128214846Y-100481767D01*
X128214849Y-100481762D01*
X128306961Y-100284225D01*
X128306961Y-100284224D01*
X128309284Y-100279243D01*
X128326901Y-100213498D01*
X128367119Y-100063402D01*
X128367119Y-100063400D01*
X128368543Y-100058087D01*
X128369022Y-100052611D01*
X128369023Y-100052606D01*
X128387292Y-99843783D01*
X128413155Y-99777664D01*
X128423718Y-99765669D01*
X131009191Y-97180195D01*
X131071503Y-97146170D01*
X131098286Y-97143290D01*
X131985300Y-97143290D01*
X132053421Y-97163292D01*
X132099914Y-97216948D01*
X132111300Y-97269290D01*
X132111300Y-98813334D01*
X132118055Y-98875516D01*
X132169185Y-99011905D01*
X132256539Y-99128461D01*
X132373095Y-99215815D01*
X132509484Y-99266945D01*
X132571666Y-99273700D01*
X134598334Y-99273700D01*
X134660516Y-99266945D01*
X134796905Y-99215815D01*
X134913461Y-99128461D01*
X135000815Y-99011905D01*
X135003967Y-99003497D01*
X135003968Y-99003496D01*
X135004317Y-99002564D01*
X135004910Y-99001774D01*
X135008277Y-98995625D01*
X135009165Y-98996111D01*
X135046961Y-98945801D01*
X135113523Y-98921103D01*
X135182871Y-98936312D01*
X135202783Y-98949853D01*
X135267398Y-99003497D01*
X135276823Y-99011322D01*
X135486053Y-99133586D01*
X135490873Y-99135426D01*
X135490878Y-99135429D01*
X135603109Y-99178285D01*
X135712442Y-99220035D01*
X135717510Y-99221066D01*
X135717513Y-99221067D01*
X135834780Y-99244925D01*
X135949910Y-99268349D01*
X135955085Y-99268539D01*
X135955087Y-99268539D01*
X136186917Y-99277040D01*
X136186921Y-99277040D01*
X136192081Y-99277229D01*
X136197201Y-99276573D01*
X136197203Y-99276573D01*
X136272360Y-99266945D01*
X136432450Y-99246437D01*
X136437401Y-99244952D01*
X136437404Y-99244951D01*
X136659612Y-99178285D01*
X136659611Y-99178285D01*
X136664562Y-99176800D01*
X136782855Y-99118849D01*
X136877533Y-99072467D01*
X136877538Y-99072464D01*
X136882184Y-99070188D01*
X136886394Y-99067185D01*
X136886399Y-99067182D01*
X137075259Y-98932469D01*
X137075264Y-98932465D01*
X137079471Y-98929464D01*
X137251126Y-98758408D01*
X137291445Y-98702299D01*
X137347439Y-98658651D01*
X137418142Y-98652205D01*
X137481106Y-98685007D01*
X137489001Y-98693324D01*
X137630372Y-98856527D01*
X137634347Y-98859827D01*
X137634350Y-98859830D01*
X137653244Y-98875516D01*
X137816823Y-99011322D01*
X138026053Y-99133586D01*
X138030873Y-99135426D01*
X138030878Y-99135429D01*
X138143109Y-99178285D01*
X138252442Y-99220035D01*
X138257510Y-99221066D01*
X138257513Y-99221067D01*
X138374780Y-99244925D01*
X138489910Y-99268349D01*
X138495085Y-99268539D01*
X138495087Y-99268539D01*
X138726917Y-99277040D01*
X138726921Y-99277040D01*
X138732081Y-99277229D01*
X138737201Y-99276573D01*
X138737203Y-99276573D01*
X138812360Y-99266945D01*
X138972450Y-99246437D01*
X138977401Y-99244952D01*
X138977404Y-99244951D01*
X139159494Y-99190321D01*
X139230489Y-99189905D01*
X139290439Y-99227937D01*
X139320311Y-99292343D01*
X139321701Y-99311007D01*
X139321701Y-99333281D01*
X139301699Y-99401402D01*
X139284796Y-99422376D01*
X137810045Y-100897127D01*
X137747733Y-100931153D01*
X137700444Y-100932089D01*
X137698087Y-100931457D01*
X137470000Y-100911502D01*
X137241913Y-100931457D01*
X137236600Y-100932881D01*
X137236598Y-100932881D01*
X137026067Y-100989293D01*
X137026065Y-100989294D01*
X137020757Y-100990716D01*
X137015776Y-100993039D01*
X137015775Y-100993039D01*
X136818238Y-101085151D01*
X136818233Y-101085154D01*
X136813251Y-101087477D01*
X136733929Y-101143019D01*
X136630211Y-101215643D01*
X136630208Y-101215645D01*
X136625700Y-101218802D01*
X136463802Y-101380700D01*
X136332477Y-101568251D01*
X136330154Y-101573233D01*
X136330151Y-101573238D01*
X136249660Y-101745854D01*
X136235716Y-101775757D01*
X136234294Y-101781065D01*
X136234293Y-101781067D01*
X136190688Y-101943802D01*
X136176457Y-101996913D01*
X136156502Y-102225000D01*
X136176457Y-102453087D01*
X136177881Y-102458400D01*
X136177881Y-102458402D01*
X136225605Y-102636507D01*
X136235716Y-102674243D01*
X136238039Y-102679224D01*
X136238039Y-102679225D01*
X136330151Y-102876762D01*
X136330154Y-102876767D01*
X136332477Y-102881749D01*
X136402740Y-102982094D01*
X136417756Y-103003539D01*
X136463802Y-103069300D01*
X136625700Y-103231198D01*
X136630208Y-103234355D01*
X136630211Y-103234357D01*
X136659181Y-103254642D01*
X136813251Y-103362523D01*
X136818233Y-103364846D01*
X136818238Y-103364849D01*
X137015775Y-103456961D01*
X137020757Y-103459284D01*
X137026065Y-103460706D01*
X137026067Y-103460707D01*
X137236598Y-103517119D01*
X137236600Y-103517119D01*
X137241913Y-103518543D01*
X137470000Y-103538498D01*
X137698087Y-103518543D01*
X137703400Y-103517119D01*
X137703402Y-103517119D01*
X137913933Y-103460707D01*
X137913935Y-103460706D01*
X137919243Y-103459284D01*
X137924225Y-103456961D01*
X138121762Y-103364849D01*
X138121767Y-103364846D01*
X138126749Y-103362523D01*
X138280819Y-103254642D01*
X138309789Y-103234357D01*
X138309792Y-103234355D01*
X138314300Y-103231198D01*
X138476198Y-103069300D01*
X138522245Y-103003539D01*
X138537260Y-102982094D01*
X138607523Y-102881749D01*
X138609846Y-102876767D01*
X138609849Y-102876762D01*
X138701961Y-102679225D01*
X138701961Y-102679224D01*
X138704284Y-102674243D01*
X138714396Y-102636507D01*
X138762119Y-102458402D01*
X138762119Y-102458400D01*
X138763543Y-102453087D01*
X138783498Y-102225000D01*
X138763543Y-101996913D01*
X138763001Y-101994890D01*
X138770747Y-101925381D01*
X138797873Y-101884955D01*
X139183957Y-101498871D01*
X140946690Y-101498871D01*
X140946987Y-101504023D01*
X140946987Y-101504027D01*
X140954914Y-101641500D01*
X140960640Y-101740802D01*
X140961777Y-101745848D01*
X140961778Y-101745854D01*
X140977504Y-101815634D01*
X141013916Y-101977207D01*
X141015858Y-101981989D01*
X141015859Y-101981993D01*
X141067923Y-102110211D01*
X141105088Y-102201736D01*
X141231707Y-102408359D01*
X141390372Y-102591527D01*
X141394347Y-102594827D01*
X141394350Y-102594830D01*
X141446486Y-102638114D01*
X141576823Y-102746322D01*
X141786053Y-102868586D01*
X141790873Y-102870426D01*
X141790878Y-102870429D01*
X141899220Y-102911800D01*
X142012442Y-102955035D01*
X142017510Y-102956066D01*
X142017513Y-102956067D01*
X142134780Y-102979925D01*
X142249910Y-103003349D01*
X142255085Y-103003539D01*
X142255087Y-103003539D01*
X142486917Y-103012040D01*
X142486921Y-103012040D01*
X142492081Y-103012229D01*
X142497201Y-103011573D01*
X142497203Y-103011573D01*
X142572315Y-103001951D01*
X142732450Y-102981437D01*
X142737401Y-102979952D01*
X142737404Y-102979951D01*
X142959612Y-102913285D01*
X142959611Y-102913285D01*
X142964562Y-102911800D01*
X143104353Y-102843317D01*
X143177533Y-102807467D01*
X143177538Y-102807464D01*
X143182184Y-102805188D01*
X143186394Y-102802185D01*
X143186399Y-102802182D01*
X143375259Y-102667469D01*
X143375264Y-102667465D01*
X143379471Y-102664464D01*
X143551126Y-102493408D01*
X143580100Y-102453087D01*
X143689519Y-102300813D01*
X143692537Y-102296613D01*
X143727931Y-102225000D01*
X143778081Y-102123528D01*
X143799908Y-102079365D01*
X143824959Y-101996913D01*
X143868851Y-101852449D01*
X143868852Y-101852443D01*
X143870355Y-101847497D01*
X143901986Y-101607237D01*
X143903751Y-101535000D01*
X143883895Y-101293482D01*
X143824859Y-101058449D01*
X143728228Y-100836215D01*
X143623481Y-100674300D01*
X143599407Y-100637087D01*
X143599405Y-100637084D01*
X143596599Y-100632747D01*
X143433506Y-100453510D01*
X143243328Y-100303317D01*
X143080622Y-100213498D01*
X143035705Y-100188702D01*
X143035702Y-100188701D01*
X143031174Y-100186201D01*
X142878004Y-100131961D01*
X142807613Y-100107034D01*
X142807610Y-100107033D01*
X142802741Y-100105309D01*
X142797652Y-100104402D01*
X142797650Y-100104402D01*
X142703188Y-100087576D01*
X142564163Y-100062812D01*
X142473635Y-100061706D01*
X142327018Y-100059914D01*
X142327016Y-100059914D01*
X142321848Y-100059851D01*
X142082303Y-100096507D01*
X141851961Y-100171794D01*
X141772769Y-100213019D01*
X141645554Y-100279243D01*
X141637009Y-100283691D01*
X141632876Y-100286794D01*
X141632873Y-100286796D01*
X141447353Y-100426088D01*
X141443218Y-100429193D01*
X141275795Y-100604392D01*
X141272881Y-100608664D01*
X141272880Y-100608665D01*
X141253492Y-100637087D01*
X141139234Y-100804583D01*
X141037203Y-101024390D01*
X141035821Y-101029372D01*
X141035821Y-101029373D01*
X140983288Y-101218802D01*
X140972442Y-101257910D01*
X140971893Y-101263047D01*
X140959736Y-101376803D01*
X140946690Y-101498871D01*
X139183957Y-101498871D01*
X140493901Y-100188927D01*
X140500166Y-100183073D01*
X140500958Y-100182382D01*
X140543100Y-100145619D01*
X140579295Y-100094118D01*
X140583227Y-100088824D01*
X140584206Y-100087576D01*
X140622061Y-100039298D01*
X140625186Y-100032376D01*
X140627067Y-100029271D01*
X140634228Y-100016716D01*
X140635943Y-100013518D01*
X140640313Y-100007300D01*
X140663190Y-99948623D01*
X140665730Y-99942581D01*
X140691633Y-99885213D01*
X140693017Y-99877745D01*
X140694107Y-99874267D01*
X140698063Y-99860380D01*
X140698968Y-99856857D01*
X140701725Y-99849785D01*
X140709940Y-99787382D01*
X140710971Y-99780874D01*
X140713790Y-99765669D01*
X140722443Y-99718980D01*
X140721159Y-99696705D01*
X140718910Y-99657713D01*
X140718701Y-99650459D01*
X140718701Y-98909869D01*
X141386801Y-98909869D01*
X141387171Y-98916690D01*
X141392695Y-98967552D01*
X141396321Y-98982804D01*
X141441476Y-99103254D01*
X141450014Y-99118849D01*
X141526515Y-99220924D01*
X141539076Y-99233485D01*
X141641151Y-99309986D01*
X141656746Y-99318524D01*
X141777194Y-99363678D01*
X141792449Y-99367305D01*
X141843314Y-99372831D01*
X141850128Y-99373200D01*
X142587885Y-99373200D01*
X142603124Y-99368725D01*
X142604329Y-99367335D01*
X142606000Y-99359652D01*
X142606000Y-99355084D01*
X143114000Y-99355084D01*
X143118475Y-99370323D01*
X143119865Y-99371528D01*
X143127548Y-99373199D01*
X143869869Y-99373199D01*
X143876690Y-99372829D01*
X143927552Y-99367305D01*
X143942804Y-99363679D01*
X144063254Y-99318524D01*
X144078849Y-99309986D01*
X144180924Y-99233485D01*
X144193485Y-99220924D01*
X144269986Y-99118849D01*
X144278525Y-99103253D01*
X144278910Y-99102225D01*
X144279564Y-99101354D01*
X144282834Y-99095382D01*
X144283696Y-99095854D01*
X144321554Y-99045461D01*
X144388116Y-99020764D01*
X144457464Y-99035973D01*
X144477371Y-99049511D01*
X144502277Y-99070188D01*
X144540866Y-99102225D01*
X144551823Y-99111322D01*
X144761053Y-99233586D01*
X144765873Y-99235426D01*
X144765878Y-99235429D01*
X144875343Y-99277229D01*
X144987442Y-99320035D01*
X144992510Y-99321066D01*
X144992513Y-99321067D01*
X145052547Y-99333281D01*
X145224910Y-99368349D01*
X145230085Y-99368539D01*
X145230087Y-99368539D01*
X145461917Y-99377040D01*
X145461921Y-99377040D01*
X145467081Y-99377229D01*
X145472201Y-99376573D01*
X145472203Y-99376573D01*
X145572863Y-99363678D01*
X145707450Y-99346437D01*
X145712401Y-99344952D01*
X145712404Y-99344951D01*
X145934612Y-99278285D01*
X145934611Y-99278285D01*
X145939562Y-99276800D01*
X146075042Y-99210429D01*
X146152533Y-99172467D01*
X146152538Y-99172464D01*
X146157184Y-99170188D01*
X146161394Y-99167185D01*
X146161399Y-99167182D01*
X146350259Y-99032469D01*
X146350264Y-99032465D01*
X146354471Y-99029464D01*
X146526126Y-98858408D01*
X146566445Y-98802299D01*
X146622439Y-98758651D01*
X146693142Y-98752205D01*
X146756106Y-98785007D01*
X146764001Y-98793324D01*
X146905372Y-98956527D01*
X146909347Y-98959827D01*
X146909350Y-98959830D01*
X146940511Y-98985700D01*
X147091823Y-99111322D01*
X147301053Y-99233586D01*
X147305873Y-99235426D01*
X147305878Y-99235429D01*
X147415343Y-99277229D01*
X147527442Y-99320035D01*
X147532510Y-99321066D01*
X147532513Y-99321067D01*
X147592547Y-99333281D01*
X147764910Y-99368349D01*
X147770085Y-99368539D01*
X147770087Y-99368539D01*
X148001917Y-99377040D01*
X148001921Y-99377040D01*
X148007081Y-99377229D01*
X148012201Y-99376573D01*
X148012203Y-99376573D01*
X148112863Y-99363678D01*
X148247450Y-99346437D01*
X148252401Y-99344952D01*
X148252404Y-99344951D01*
X148474612Y-99278285D01*
X148474611Y-99278285D01*
X148479562Y-99276800D01*
X148615042Y-99210429D01*
X148692533Y-99172467D01*
X148692538Y-99172464D01*
X148697184Y-99170188D01*
X148701394Y-99167185D01*
X148701399Y-99167182D01*
X148890259Y-99032469D01*
X148890264Y-99032465D01*
X148894471Y-99029464D01*
X149024388Y-98900000D01*
X152311502Y-98900000D01*
X152331457Y-99128087D01*
X152332881Y-99133400D01*
X152332881Y-99133402D01*
X152380471Y-99311007D01*
X152390716Y-99349243D01*
X152393039Y-99354224D01*
X152393039Y-99354225D01*
X152485151Y-99551762D01*
X152485154Y-99551767D01*
X152487477Y-99556749D01*
X152553094Y-99650459D01*
X152606300Y-99726445D01*
X152618802Y-99744300D01*
X152780700Y-99906198D01*
X152785208Y-99909355D01*
X152785211Y-99909357D01*
X152788683Y-99911788D01*
X152968251Y-100037523D01*
X152973233Y-100039846D01*
X152973238Y-100039849D01*
X153170775Y-100131961D01*
X153175757Y-100134284D01*
X153181065Y-100135706D01*
X153181067Y-100135707D01*
X153391598Y-100192119D01*
X153391600Y-100192119D01*
X153396913Y-100193543D01*
X153625000Y-100213498D01*
X153853087Y-100193543D01*
X153858400Y-100192119D01*
X153858402Y-100192119D01*
X154068933Y-100135707D01*
X154068935Y-100135706D01*
X154074243Y-100134284D01*
X154079225Y-100131961D01*
X154276762Y-100039849D01*
X154276767Y-100039846D01*
X154281749Y-100037523D01*
X154461317Y-99911788D01*
X154464789Y-99909357D01*
X154464792Y-99909355D01*
X154469300Y-99906198D01*
X154631198Y-99744300D01*
X154643701Y-99726445D01*
X154696906Y-99650459D01*
X154762523Y-99556749D01*
X154764846Y-99551767D01*
X154764849Y-99551762D01*
X154856961Y-99354225D01*
X154856961Y-99354224D01*
X154859284Y-99349243D01*
X154869530Y-99311007D01*
X154917119Y-99133402D01*
X154917119Y-99133400D01*
X154918543Y-99128087D01*
X154938498Y-98900000D01*
X154918543Y-98671913D01*
X154917119Y-98666598D01*
X154860707Y-98456067D01*
X154860706Y-98456065D01*
X154859284Y-98450757D01*
X154856961Y-98445775D01*
X154764849Y-98248238D01*
X154764846Y-98248233D01*
X154762523Y-98243251D01*
X154631198Y-98055700D01*
X154469300Y-97893802D01*
X154464792Y-97890645D01*
X154464789Y-97890643D01*
X154386611Y-97835902D01*
X154281749Y-97762477D01*
X154276767Y-97760154D01*
X154276762Y-97760151D01*
X154079225Y-97668039D01*
X154079224Y-97668039D01*
X154074243Y-97665716D01*
X154068935Y-97664294D01*
X154068933Y-97664293D01*
X153858402Y-97607881D01*
X153858400Y-97607881D01*
X153853087Y-97606457D01*
X153625000Y-97586502D01*
X153396913Y-97606457D01*
X153391600Y-97607881D01*
X153391598Y-97607881D01*
X153181067Y-97664293D01*
X153181065Y-97664294D01*
X153175757Y-97665716D01*
X153170776Y-97668039D01*
X153170775Y-97668039D01*
X152973238Y-97760151D01*
X152973233Y-97760154D01*
X152968251Y-97762477D01*
X152863389Y-97835902D01*
X152785211Y-97890643D01*
X152785208Y-97890645D01*
X152780700Y-97893802D01*
X152618802Y-98055700D01*
X152487477Y-98243251D01*
X152485154Y-98248233D01*
X152485151Y-98248238D01*
X152393039Y-98445775D01*
X152390716Y-98450757D01*
X152389294Y-98456065D01*
X152389293Y-98456067D01*
X152332881Y-98666598D01*
X152331457Y-98671913D01*
X152311502Y-98900000D01*
X149024388Y-98900000D01*
X149066126Y-98858408D01*
X149207537Y-98661613D01*
X149212311Y-98651955D01*
X149279019Y-98516981D01*
X149314908Y-98444365D01*
X149374496Y-98248238D01*
X149383851Y-98217449D01*
X149383852Y-98217443D01*
X149385355Y-98212497D01*
X149416986Y-97972237D01*
X149418751Y-97900000D01*
X149398895Y-97658482D01*
X149339859Y-97423449D01*
X149243228Y-97201215D01*
X149144185Y-97048117D01*
X149114407Y-97002087D01*
X149114405Y-97002084D01*
X149111599Y-96997747D01*
X148948506Y-96818510D01*
X148758328Y-96668317D01*
X148673382Y-96621424D01*
X148550705Y-96553702D01*
X148550702Y-96553701D01*
X148546174Y-96551201D01*
X148410662Y-96503214D01*
X148322613Y-96472034D01*
X148322610Y-96472033D01*
X148317741Y-96470309D01*
X148312652Y-96469402D01*
X148312650Y-96469402D01*
X148224509Y-96453702D01*
X148079163Y-96427812D01*
X147988635Y-96426706D01*
X147842018Y-96424914D01*
X147842016Y-96424914D01*
X147836848Y-96424851D01*
X147597303Y-96461507D01*
X147366961Y-96536794D01*
X147334481Y-96553702D01*
X147220479Y-96613048D01*
X147152009Y-96648691D01*
X147147876Y-96651794D01*
X147147873Y-96651796D01*
X146962353Y-96791088D01*
X146958218Y-96794193D01*
X146790795Y-96969392D01*
X146775234Y-96992204D01*
X146720324Y-97037205D01*
X146649799Y-97045376D01*
X146586052Y-97014122D01*
X146572987Y-96999893D01*
X146571599Y-96997747D01*
X146566555Y-96992203D01*
X146411981Y-96822329D01*
X146408506Y-96818510D01*
X146218328Y-96668317D01*
X146133382Y-96621424D01*
X146010705Y-96553702D01*
X146010702Y-96553701D01*
X146006174Y-96551201D01*
X145870662Y-96503214D01*
X145782613Y-96472034D01*
X145782610Y-96472033D01*
X145777741Y-96470309D01*
X145772652Y-96469402D01*
X145772650Y-96469402D01*
X145684509Y-96453702D01*
X145539163Y-96427812D01*
X145448635Y-96426706D01*
X145302018Y-96424914D01*
X145302016Y-96424914D01*
X145296848Y-96424851D01*
X145057303Y-96461507D01*
X144826961Y-96536794D01*
X144794481Y-96553702D01*
X144680479Y-96613048D01*
X144612009Y-96648691D01*
X144472280Y-96753603D01*
X144405796Y-96778507D01*
X144336400Y-96763514D01*
X144286127Y-96713384D01*
X144278647Y-96697072D01*
X144278526Y-96696750D01*
X144269986Y-96681151D01*
X144193485Y-96579076D01*
X144180924Y-96566515D01*
X144078849Y-96490014D01*
X144063254Y-96481476D01*
X143942806Y-96436322D01*
X143927551Y-96432695D01*
X143876686Y-96427169D01*
X143869872Y-96426800D01*
X143132115Y-96426800D01*
X143116876Y-96431275D01*
X143115671Y-96432665D01*
X143114000Y-96440348D01*
X143114000Y-99355084D01*
X142606000Y-99355084D01*
X142606000Y-98172115D01*
X142601525Y-98156876D01*
X142600135Y-98155671D01*
X142592452Y-98154000D01*
X141404916Y-98154000D01*
X141389677Y-98158475D01*
X141388472Y-98159865D01*
X141386801Y-98167548D01*
X141386801Y-98909869D01*
X140718701Y-98909869D01*
X140718701Y-97627885D01*
X141386800Y-97627885D01*
X141391275Y-97643124D01*
X141392665Y-97644329D01*
X141400348Y-97646000D01*
X142587885Y-97646000D01*
X142603124Y-97641525D01*
X142604329Y-97640135D01*
X142606000Y-97632452D01*
X142606000Y-96444916D01*
X142601525Y-96429677D01*
X142600135Y-96428472D01*
X142592452Y-96426801D01*
X141850131Y-96426801D01*
X141843310Y-96427171D01*
X141792448Y-96432695D01*
X141777196Y-96436321D01*
X141656746Y-96481476D01*
X141641151Y-96490014D01*
X141539076Y-96566515D01*
X141526515Y-96579076D01*
X141450014Y-96681151D01*
X141441476Y-96696746D01*
X141396322Y-96817194D01*
X141392695Y-96832449D01*
X141387169Y-96883314D01*
X141386800Y-96890128D01*
X141386800Y-97627885D01*
X140718701Y-97627885D01*
X140718701Y-92548772D01*
X140718993Y-92540202D01*
X140722351Y-92490952D01*
X140722351Y-92490948D01*
X140722867Y-92483376D01*
X140712040Y-92421343D01*
X140711079Y-92414827D01*
X140704433Y-92359906D01*
X140704433Y-92359905D01*
X140703520Y-92352362D01*
X140703496Y-92352297D01*
X140706526Y-92284580D01*
X140747541Y-92226630D01*
X140813376Y-92200054D01*
X140830328Y-92199533D01*
X140857117Y-92200515D01*
X140888949Y-92201683D01*
X140888953Y-92201683D01*
X140894113Y-92201872D01*
X140899233Y-92201216D01*
X140899235Y-92201216D01*
X140973166Y-92191745D01*
X141123847Y-92172442D01*
X141128795Y-92170957D01*
X141128802Y-92170956D01*
X141340747Y-92107369D01*
X141345690Y-92105886D01*
X141385350Y-92086457D01*
X141549049Y-92006262D01*
X141549052Y-92006260D01*
X141553684Y-92003991D01*
X141742243Y-91869494D01*
X141906303Y-91706005D01*
X142041458Y-91517917D01*
X142051027Y-91498557D01*
X142141784Y-91314922D01*
X142141785Y-91314920D01*
X142144078Y-91310280D01*
X142211408Y-91088671D01*
X142241640Y-90859041D01*
X142243327Y-90790000D01*
X142234063Y-90677321D01*
X142224773Y-90564318D01*
X142224772Y-90564312D01*
X142224349Y-90559167D01*
X142167925Y-90334533D01*
X142163058Y-90323340D01*
X142077630Y-90126868D01*
X142077628Y-90126865D01*
X142075570Y-90122131D01*
X141949764Y-89927665D01*
X141943064Y-89920301D01*
X141868602Y-89838469D01*
X141793887Y-89756358D01*
X141789836Y-89753159D01*
X141789832Y-89753155D01*
X141616177Y-89616011D01*
X141616172Y-89616008D01*
X141612123Y-89612810D01*
X141607607Y-89610317D01*
X141607604Y-89610315D01*
X141413879Y-89503373D01*
X141413875Y-89503371D01*
X141409355Y-89500876D01*
X141404486Y-89499152D01*
X141404482Y-89499150D01*
X141195903Y-89425288D01*
X141195899Y-89425287D01*
X141191028Y-89423562D01*
X141185935Y-89422655D01*
X141185932Y-89422654D01*
X140968095Y-89383851D01*
X140968089Y-89383850D01*
X140963006Y-89382945D01*
X140890096Y-89382054D01*
X140736581Y-89380179D01*
X140736579Y-89380179D01*
X140731411Y-89380116D01*
X140502464Y-89415150D01*
X140282314Y-89487106D01*
X140277726Y-89489494D01*
X140277722Y-89489496D01*
X140081461Y-89591663D01*
X140076872Y-89594052D01*
X140072739Y-89597155D01*
X140072736Y-89597157D01*
X139904714Y-89723312D01*
X139891655Y-89733117D01*
X139874170Y-89751414D01*
X139812646Y-89786844D01*
X139741733Y-89783387D01*
X139683947Y-89742141D01*
X139665094Y-89708592D01*
X139643768Y-89651705D01*
X139643767Y-89651703D01*
X139640615Y-89643295D01*
X139553261Y-89526739D01*
X139436705Y-89439385D01*
X139300316Y-89388255D01*
X139238134Y-89381500D01*
X137341866Y-89381500D01*
X137279684Y-89388255D01*
X137143295Y-89439385D01*
X137026739Y-89526739D01*
X136939385Y-89643295D01*
X136888255Y-89779684D01*
X136881500Y-89841866D01*
X136881500Y-91738134D01*
X136888255Y-91800316D01*
X136939385Y-91936705D01*
X137026739Y-92053261D01*
X137143295Y-92140615D01*
X137279684Y-92191745D01*
X137341866Y-92198500D01*
X138658482Y-92198500D01*
X138726603Y-92218502D01*
X138747577Y-92235405D01*
X139284796Y-92772624D01*
X139318822Y-92834936D01*
X139321701Y-92861719D01*
X139321701Y-96290808D01*
X139301699Y-96358929D01*
X139248043Y-96405422D01*
X139177769Y-96415526D01*
X139153645Y-96409582D01*
X139042741Y-96370309D01*
X139037652Y-96369402D01*
X139037650Y-96369402D01*
X138951480Y-96354053D01*
X138804163Y-96327812D01*
X138713635Y-96326706D01*
X138567018Y-96324914D01*
X138567016Y-96324914D01*
X138561848Y-96324851D01*
X138322303Y-96361507D01*
X138091961Y-96436794D01*
X137877009Y-96548691D01*
X137872876Y-96551794D01*
X137872873Y-96551796D01*
X137687353Y-96691088D01*
X137683218Y-96694193D01*
X137515795Y-96869392D01*
X137500234Y-96892204D01*
X137445324Y-96937205D01*
X137374799Y-96945376D01*
X137311052Y-96914122D01*
X137297987Y-96899893D01*
X137296599Y-96897747D01*
X137291555Y-96892203D01*
X137136981Y-96722329D01*
X137133506Y-96718510D01*
X136943328Y-96568317D01*
X136764145Y-96469402D01*
X136735705Y-96453702D01*
X136735702Y-96453701D01*
X136731174Y-96451201D01*
X136552990Y-96388103D01*
X136507613Y-96372034D01*
X136507610Y-96372033D01*
X136502741Y-96370309D01*
X136497652Y-96369402D01*
X136497650Y-96369402D01*
X136411480Y-96354053D01*
X136264163Y-96327812D01*
X136173635Y-96326706D01*
X136027018Y-96324914D01*
X136027016Y-96324914D01*
X136021848Y-96324851D01*
X135782303Y-96361507D01*
X135777389Y-96363113D01*
X135777381Y-96363115D01*
X135774459Y-96364070D01*
X135773215Y-96364108D01*
X135772357Y-96364312D01*
X135772315Y-96364135D01*
X135703495Y-96366217D01*
X135646226Y-96333398D01*
X135283918Y-95971090D01*
X135278064Y-95964825D01*
X135245604Y-95927616D01*
X135240610Y-95921891D01*
X135189109Y-95885696D01*
X135183815Y-95881764D01*
X135140266Y-95847617D01*
X135134289Y-95842930D01*
X135127367Y-95839805D01*
X135124262Y-95837924D01*
X135111707Y-95830763D01*
X135108509Y-95829048D01*
X135102291Y-95824678D01*
X135043614Y-95801801D01*
X135037572Y-95799261D01*
X135034381Y-95797820D01*
X134980204Y-95773358D01*
X134972736Y-95771974D01*
X134969258Y-95770884D01*
X134955371Y-95766928D01*
X134951848Y-95766023D01*
X134944776Y-95763266D01*
X134882373Y-95755051D01*
X134875881Y-95754023D01*
X134813971Y-95742548D01*
X134806391Y-95742985D01*
X134806390Y-95742985D01*
X134752704Y-95746081D01*
X134745450Y-95746290D01*
X130785339Y-95746290D01*
X130776769Y-95745998D01*
X130727519Y-95742640D01*
X130727515Y-95742640D01*
X130719943Y-95742124D01*
X130712466Y-95743429D01*
X130712465Y-95743429D01*
X130697746Y-95745998D01*
X130657915Y-95752950D01*
X130651397Y-95753911D01*
X130641972Y-95755052D01*
X130599637Y-95760175D01*
X130529607Y-95748502D01*
X130477005Y-95700820D01*
X130458500Y-95635088D01*
X130458500Y-95051866D01*
X130451745Y-94989684D01*
X130400615Y-94853295D01*
X130313261Y-94736739D01*
X130196705Y-94649385D01*
X130060316Y-94598255D01*
X129998134Y-94591500D01*
X128301866Y-94591500D01*
X128239684Y-94598255D01*
X128103295Y-94649385D01*
X127986739Y-94736739D01*
X127899385Y-94853295D01*
X127848255Y-94989684D01*
X127841500Y-95051866D01*
X127841500Y-95055185D01*
X127817847Y-95122110D01*
X127771844Y-95157804D01*
X127772859Y-95159734D01*
X127762000Y-95165442D01*
X127761755Y-95165632D01*
X127761597Y-95165653D01*
X127723566Y-95185644D01*
X127022022Y-95887188D01*
X127014408Y-95901132D01*
X127014539Y-95902965D01*
X127018790Y-95909580D01*
X127724287Y-96615077D01*
X127766029Y-96637871D01*
X127776029Y-96640047D01*
X127826227Y-96690253D01*
X127841451Y-96743814D01*
X127841500Y-96744719D01*
X127841500Y-96748134D01*
X127848255Y-96810316D01*
X127899385Y-96946705D01*
X127986739Y-97063261D01*
X128103295Y-97150615D01*
X128239684Y-97201745D01*
X128301866Y-97208500D01*
X128701039Y-97208500D01*
X128769160Y-97228502D01*
X128815653Y-97282158D01*
X128825757Y-97352432D01*
X128796263Y-97417012D01*
X128790134Y-97423595D01*
X127649377Y-98564352D01*
X127587065Y-98598378D01*
X127524660Y-98594161D01*
X127524243Y-98595716D01*
X127308402Y-98537881D01*
X127308400Y-98537881D01*
X127303087Y-98536457D01*
X127075000Y-98516502D01*
X126846913Y-98536457D01*
X126841600Y-98537881D01*
X126841598Y-98537881D01*
X126631067Y-98594293D01*
X126631065Y-98594294D01*
X126625757Y-98595716D01*
X126620776Y-98598039D01*
X126620775Y-98598039D01*
X126423238Y-98690151D01*
X126423233Y-98690154D01*
X126418251Y-98692477D01*
X126404224Y-98702299D01*
X126235211Y-98820643D01*
X126235208Y-98820645D01*
X126230700Y-98823802D01*
X126068802Y-98985700D01*
X126065645Y-98990208D01*
X126065643Y-98990211D01*
X126045421Y-99019091D01*
X125937477Y-99173251D01*
X125935154Y-99178233D01*
X125935151Y-99178238D01*
X125844413Y-99372829D01*
X125840716Y-99380757D01*
X125781457Y-99601913D01*
X125761502Y-99830000D01*
X125150926Y-99830000D01*
X125173261Y-99813261D01*
X125260615Y-99696705D01*
X125311745Y-99560316D01*
X125318500Y-99498134D01*
X125318500Y-97201866D01*
X125311745Y-97139684D01*
X125260615Y-97003295D01*
X125247700Y-96986062D01*
X125928493Y-96986062D01*
X125937789Y-96998077D01*
X125988994Y-97033931D01*
X125998489Y-97039414D01*
X126195947Y-97131490D01*
X126206239Y-97135236D01*
X126416688Y-97191625D01*
X126427481Y-97193528D01*
X126644525Y-97212517D01*
X126655475Y-97212517D01*
X126872519Y-97193528D01*
X126883312Y-97191625D01*
X127093761Y-97135236D01*
X127104053Y-97131490D01*
X127301511Y-97039414D01*
X127311006Y-97033931D01*
X127363048Y-96997491D01*
X127371424Y-96987012D01*
X127364356Y-96973566D01*
X126662812Y-96272022D01*
X126648868Y-96264408D01*
X126647035Y-96264539D01*
X126640420Y-96268790D01*
X125934923Y-96974287D01*
X125928493Y-96986062D01*
X125247700Y-96986062D01*
X125173261Y-96886739D01*
X125056705Y-96799385D01*
X124920316Y-96748255D01*
X124858134Y-96741500D01*
X122561866Y-96741500D01*
X122499684Y-96748255D01*
X122363295Y-96799385D01*
X122337777Y-96818510D01*
X122334565Y-96820917D01*
X122268059Y-96845765D01*
X122198676Y-96830712D01*
X122148446Y-96780538D01*
X122133000Y-96720091D01*
X122133000Y-95905475D01*
X125337483Y-95905475D01*
X125356472Y-96122519D01*
X125358375Y-96133312D01*
X125414764Y-96343761D01*
X125418510Y-96354053D01*
X125510586Y-96551511D01*
X125516069Y-96561006D01*
X125552509Y-96613048D01*
X125562988Y-96621424D01*
X125576434Y-96614356D01*
X126277978Y-95912812D01*
X126285592Y-95898868D01*
X126285461Y-95897035D01*
X126281210Y-95890420D01*
X125575713Y-95184923D01*
X125563938Y-95178493D01*
X125551923Y-95187789D01*
X125516069Y-95238994D01*
X125510586Y-95248489D01*
X125418510Y-95445947D01*
X125414764Y-95456239D01*
X125358375Y-95666688D01*
X125356472Y-95677481D01*
X125337483Y-95894525D01*
X125337483Y-95905475D01*
X122133000Y-95905475D01*
X122133000Y-94812988D01*
X125928576Y-94812988D01*
X125935644Y-94826434D01*
X126637188Y-95527978D01*
X126651132Y-95535592D01*
X126652965Y-95535461D01*
X126659580Y-95531210D01*
X127365077Y-94825713D01*
X127371507Y-94813938D01*
X127362211Y-94801923D01*
X127311006Y-94766069D01*
X127301511Y-94760586D01*
X127104053Y-94668510D01*
X127093761Y-94664764D01*
X126883312Y-94608375D01*
X126872519Y-94606472D01*
X126655475Y-94587483D01*
X126644525Y-94587483D01*
X126427481Y-94606472D01*
X126416688Y-94608375D01*
X126206239Y-94664764D01*
X126195947Y-94668510D01*
X125998489Y-94760586D01*
X125988994Y-94766069D01*
X125936952Y-94802509D01*
X125928576Y-94812988D01*
X122133000Y-94812988D01*
X122133000Y-93380000D01*
X134596502Y-93380000D01*
X134616457Y-93608087D01*
X134675716Y-93829243D01*
X134678039Y-93834224D01*
X134678039Y-93834225D01*
X134770151Y-94031762D01*
X134770154Y-94031767D01*
X134772477Y-94036749D01*
X134903802Y-94224300D01*
X135065700Y-94386198D01*
X135070208Y-94389355D01*
X135070211Y-94389357D01*
X135115081Y-94420775D01*
X135253251Y-94517523D01*
X135258233Y-94519846D01*
X135258238Y-94519849D01*
X135424553Y-94597402D01*
X135460757Y-94614284D01*
X135466065Y-94615706D01*
X135466067Y-94615707D01*
X135676598Y-94672119D01*
X135676600Y-94672119D01*
X135681913Y-94673543D01*
X135910000Y-94693498D01*
X136138087Y-94673543D01*
X136143400Y-94672119D01*
X136143402Y-94672119D01*
X136353933Y-94615707D01*
X136353935Y-94615706D01*
X136359243Y-94614284D01*
X136395447Y-94597402D01*
X136561762Y-94519849D01*
X136561767Y-94519846D01*
X136566749Y-94517523D01*
X136704919Y-94420775D01*
X136749789Y-94389357D01*
X136749792Y-94389355D01*
X136754300Y-94386198D01*
X136916198Y-94224300D01*
X137047523Y-94036749D01*
X137049846Y-94031767D01*
X137049849Y-94031762D01*
X137141961Y-93834225D01*
X137141961Y-93834224D01*
X137144284Y-93829243D01*
X137203543Y-93608087D01*
X137223498Y-93380000D01*
X137203543Y-93151913D01*
X137144284Y-92930757D01*
X137141961Y-92925775D01*
X137049849Y-92728238D01*
X137049846Y-92728233D01*
X137047523Y-92723251D01*
X136925351Y-92548772D01*
X136919357Y-92540211D01*
X136919355Y-92540208D01*
X136916198Y-92535700D01*
X136754300Y-92373802D01*
X136749792Y-92370645D01*
X136749789Y-92370643D01*
X136626878Y-92284580D01*
X136566749Y-92242477D01*
X136561767Y-92240154D01*
X136561762Y-92240151D01*
X136364225Y-92148039D01*
X136364224Y-92148039D01*
X136359243Y-92145716D01*
X136353935Y-92144294D01*
X136353933Y-92144293D01*
X136143402Y-92087881D01*
X136143400Y-92087881D01*
X136138087Y-92086457D01*
X135910000Y-92066502D01*
X135681913Y-92086457D01*
X135676600Y-92087881D01*
X135676598Y-92087881D01*
X135466067Y-92144293D01*
X135466065Y-92144294D01*
X135460757Y-92145716D01*
X135455776Y-92148039D01*
X135455775Y-92148039D01*
X135258238Y-92240151D01*
X135258233Y-92240154D01*
X135253251Y-92242477D01*
X135193122Y-92284580D01*
X135070211Y-92370643D01*
X135070208Y-92370645D01*
X135065700Y-92373802D01*
X134903802Y-92535700D01*
X134900645Y-92540208D01*
X134900643Y-92540211D01*
X134894649Y-92548772D01*
X134772477Y-92723251D01*
X134770154Y-92728233D01*
X134770151Y-92728238D01*
X134678039Y-92925775D01*
X134675716Y-92930757D01*
X134616457Y-93151913D01*
X134596502Y-93380000D01*
X122133000Y-93380000D01*
X122133000Y-91984941D01*
X122153002Y-91916820D01*
X122206658Y-91870327D01*
X122276932Y-91860223D01*
X122334564Y-91884114D01*
X122423295Y-91950615D01*
X122559684Y-92001745D01*
X122621866Y-92008500D01*
X125258134Y-92008500D01*
X125320316Y-92001745D01*
X125456705Y-91950615D01*
X125573261Y-91863261D01*
X125660615Y-91746705D01*
X125711745Y-91610316D01*
X125718500Y-91548134D01*
X125718500Y-90183314D01*
X127237124Y-90183314D01*
X127237348Y-90187980D01*
X127237348Y-90187985D01*
X127239518Y-90233160D01*
X127249807Y-90447352D01*
X127301378Y-90706616D01*
X127302957Y-90711014D01*
X127302959Y-90711021D01*
X127354901Y-90855691D01*
X127390704Y-90955410D01*
X127392921Y-90959536D01*
X127460301Y-91084936D01*
X127515822Y-91188267D01*
X127518617Y-91192011D01*
X127518619Y-91192013D01*
X127601743Y-91303329D01*
X127673985Y-91400073D01*
X127677292Y-91403351D01*
X127677297Y-91403357D01*
X127792862Y-91517917D01*
X127861718Y-91586174D01*
X128074896Y-91742483D01*
X128079031Y-91744659D01*
X128079035Y-91744661D01*
X128169886Y-91792460D01*
X128308836Y-91865565D01*
X128448891Y-91914474D01*
X128552384Y-91950615D01*
X128558400Y-91952716D01*
X128562993Y-91953588D01*
X128813515Y-92001151D01*
X128813518Y-92001151D01*
X128818104Y-92002022D01*
X128950173Y-92007211D01*
X129077575Y-92012218D01*
X129077581Y-92012218D01*
X129082243Y-92012401D01*
X129345015Y-91983622D01*
X129349526Y-91982434D01*
X129349528Y-91982434D01*
X129596124Y-91917511D01*
X129596126Y-91917510D01*
X129600647Y-91916320D01*
X129699671Y-91873776D01*
X129839229Y-91813817D01*
X129839231Y-91813816D01*
X129843523Y-91811972D01*
X130014763Y-91706005D01*
X130064332Y-91675331D01*
X130064334Y-91675330D01*
X130068307Y-91672871D01*
X130133460Y-91617715D01*
X130266496Y-91505093D01*
X130266498Y-91505091D01*
X130270063Y-91502073D01*
X130444356Y-91303329D01*
X130518367Y-91188267D01*
X130584831Y-91084936D01*
X130587359Y-91081006D01*
X130695930Y-90839988D01*
X130767683Y-90585570D01*
X130801043Y-90323340D01*
X130803487Y-90230000D01*
X130800018Y-90183314D01*
X132317124Y-90183314D01*
X132317348Y-90187980D01*
X132317348Y-90187985D01*
X132319518Y-90233160D01*
X132329807Y-90447352D01*
X132381378Y-90706616D01*
X132382957Y-90711014D01*
X132382959Y-90711021D01*
X132434901Y-90855691D01*
X132470704Y-90955410D01*
X132472921Y-90959536D01*
X132540301Y-91084936D01*
X132595822Y-91188267D01*
X132598617Y-91192011D01*
X132598619Y-91192013D01*
X132681743Y-91303329D01*
X132753985Y-91400073D01*
X132757292Y-91403351D01*
X132757297Y-91403357D01*
X132872862Y-91517917D01*
X132941718Y-91586174D01*
X133154896Y-91742483D01*
X133159031Y-91744659D01*
X133159035Y-91744661D01*
X133249886Y-91792460D01*
X133388836Y-91865565D01*
X133528891Y-91914474D01*
X133632384Y-91950615D01*
X133638400Y-91952716D01*
X133642993Y-91953588D01*
X133893515Y-92001151D01*
X133893518Y-92001151D01*
X133898104Y-92002022D01*
X134030173Y-92007211D01*
X134157575Y-92012218D01*
X134157581Y-92012218D01*
X134162243Y-92012401D01*
X134425015Y-91983622D01*
X134429526Y-91982434D01*
X134429528Y-91982434D01*
X134676124Y-91917511D01*
X134676126Y-91917510D01*
X134680647Y-91916320D01*
X134779671Y-91873776D01*
X134919229Y-91813817D01*
X134919231Y-91813816D01*
X134923523Y-91811972D01*
X135094763Y-91706005D01*
X135144332Y-91675331D01*
X135144334Y-91675330D01*
X135148307Y-91672871D01*
X135213460Y-91617715D01*
X135346496Y-91505093D01*
X135346498Y-91505091D01*
X135350063Y-91502073D01*
X135524356Y-91303329D01*
X135598367Y-91188267D01*
X135664831Y-91084936D01*
X135667359Y-91081006D01*
X135775930Y-90839988D01*
X135847683Y-90585570D01*
X135881043Y-90323340D01*
X135883487Y-90230000D01*
X135863897Y-89966384D01*
X135805557Y-89708559D01*
X135790028Y-89668626D01*
X135711442Y-89466542D01*
X135711441Y-89466540D01*
X135709749Y-89462189D01*
X135696716Y-89439385D01*
X135580897Y-89236745D01*
X135578578Y-89232687D01*
X135414925Y-89025094D01*
X135395526Y-89006845D01*
X135340719Y-88955287D01*
X135304808Y-88894043D01*
X135307708Y-88823106D01*
X135348500Y-88764997D01*
X135418142Y-88738498D01*
X135418088Y-88737999D01*
X135419999Y-88737791D01*
X135420247Y-88737697D01*
X135421485Y-88737630D01*
X135472352Y-88732105D01*
X135487604Y-88728479D01*
X135608054Y-88683324D01*
X135623649Y-88674786D01*
X135725724Y-88598285D01*
X135738285Y-88585724D01*
X135814786Y-88483649D01*
X135823324Y-88468054D01*
X135868478Y-88347606D01*
X135872105Y-88332351D01*
X135877631Y-88281486D01*
X135878000Y-88274672D01*
X135878000Y-87232115D01*
X135873525Y-87216876D01*
X135872135Y-87215671D01*
X135864452Y-87214000D01*
X132340116Y-87214000D01*
X132324877Y-87218475D01*
X132323672Y-87219865D01*
X132322001Y-87227548D01*
X132322001Y-88274669D01*
X132322371Y-88281490D01*
X132327895Y-88332352D01*
X132331521Y-88347604D01*
X132376676Y-88468054D01*
X132385214Y-88483649D01*
X132461715Y-88585724D01*
X132474276Y-88598285D01*
X132576351Y-88674786D01*
X132591946Y-88683324D01*
X132712394Y-88728478D01*
X132727649Y-88732105D01*
X132781911Y-88738000D01*
X132781799Y-88739028D01*
X132844666Y-88761253D01*
X132888183Y-88817350D01*
X132894463Y-88888068D01*
X132861514Y-88950956D01*
X132854814Y-88957396D01*
X132817067Y-88991086D01*
X132648036Y-89194324D01*
X132510901Y-89420314D01*
X132509095Y-89424622D01*
X132509094Y-89424623D01*
X132413871Y-89651705D01*
X132408677Y-89664091D01*
X132407526Y-89668623D01*
X132407525Y-89668626D01*
X132397375Y-89708592D01*
X132343608Y-89920301D01*
X132317124Y-90183314D01*
X130800018Y-90183314D01*
X130783897Y-89966384D01*
X130725557Y-89708559D01*
X130710028Y-89668626D01*
X130631442Y-89466542D01*
X130631441Y-89466540D01*
X130629749Y-89462189D01*
X130616716Y-89439385D01*
X130500897Y-89236745D01*
X130498578Y-89232687D01*
X130334925Y-89025094D01*
X130142385Y-88843970D01*
X130138542Y-88841304D01*
X129929301Y-88696149D01*
X129884730Y-88640886D01*
X129877113Y-88570299D01*
X129908867Y-88506799D01*
X129934815Y-88485479D01*
X130033467Y-88424431D01*
X130064332Y-88405331D01*
X130064334Y-88405330D01*
X130068307Y-88402871D01*
X130133589Y-88347606D01*
X130266496Y-88235093D01*
X130266498Y-88235091D01*
X130270063Y-88232073D01*
X130444356Y-88033329D01*
X130518367Y-87918267D01*
X130584831Y-87814936D01*
X130587359Y-87811006D01*
X130695930Y-87569988D01*
X130767683Y-87315570D01*
X130787968Y-87156121D01*
X130800645Y-87056471D01*
X130800645Y-87056465D01*
X130801043Y-87053340D01*
X130801191Y-87047708D01*
X130802415Y-87000943D01*
X130803487Y-86960000D01*
X130789057Y-86765817D01*
X130784243Y-86701036D01*
X130784242Y-86701032D01*
X130783897Y-86696384D01*
X130781974Y-86687885D01*
X132322000Y-86687885D01*
X132326475Y-86703124D01*
X132327865Y-86704329D01*
X132335548Y-86706000D01*
X133827885Y-86706000D01*
X133843124Y-86701525D01*
X133844329Y-86700135D01*
X133846000Y-86692452D01*
X133846000Y-86687885D01*
X134354000Y-86687885D01*
X134358475Y-86703124D01*
X134359865Y-86704329D01*
X134367548Y-86706000D01*
X135859884Y-86706000D01*
X135875123Y-86701525D01*
X135876328Y-86700135D01*
X135877999Y-86692452D01*
X135877999Y-85645331D01*
X135877629Y-85638510D01*
X135872105Y-85587648D01*
X135868479Y-85572396D01*
X135823324Y-85451946D01*
X135814786Y-85436351D01*
X135738285Y-85334276D01*
X135725724Y-85321715D01*
X135623649Y-85245214D01*
X135608054Y-85236676D01*
X135487606Y-85191522D01*
X135472351Y-85187895D01*
X135421486Y-85182369D01*
X135414672Y-85182000D01*
X134372115Y-85182000D01*
X134356876Y-85186475D01*
X134355671Y-85187865D01*
X134354000Y-85195548D01*
X134354000Y-86687885D01*
X133846000Y-86687885D01*
X133846000Y-85200116D01*
X133841525Y-85184877D01*
X133840135Y-85183672D01*
X133832452Y-85182001D01*
X132785331Y-85182001D01*
X132778510Y-85182371D01*
X132727648Y-85187895D01*
X132712396Y-85191521D01*
X132591946Y-85236676D01*
X132576351Y-85245214D01*
X132474276Y-85321715D01*
X132461715Y-85334276D01*
X132385214Y-85436351D01*
X132376676Y-85451946D01*
X132331522Y-85572394D01*
X132327895Y-85587649D01*
X132322369Y-85638514D01*
X132322000Y-85645328D01*
X132322000Y-86687885D01*
X130781974Y-86687885D01*
X130725557Y-86438559D01*
X130708834Y-86395556D01*
X130631442Y-86196542D01*
X130631441Y-86196540D01*
X130629749Y-86192189D01*
X130625080Y-86184019D01*
X130500897Y-85966745D01*
X130498578Y-85962687D01*
X130334925Y-85755094D01*
X130142385Y-85573970D01*
X130105212Y-85548182D01*
X129929026Y-85425958D01*
X129929021Y-85425955D01*
X129925188Y-85423296D01*
X129920997Y-85421229D01*
X129692294Y-85308445D01*
X129692291Y-85308444D01*
X129688106Y-85306380D01*
X129631150Y-85288148D01*
X129497024Y-85245214D01*
X129436347Y-85225791D01*
X129250647Y-85195548D01*
X129180053Y-85184051D01*
X129180052Y-85184051D01*
X129175441Y-85183300D01*
X129043281Y-85181570D01*
X128915798Y-85179901D01*
X128915795Y-85179901D01*
X128911121Y-85179840D01*
X128649192Y-85215486D01*
X128644702Y-85216795D01*
X128644696Y-85216796D01*
X128547200Y-85245214D01*
X128395410Y-85289457D01*
X128391163Y-85291415D01*
X128391160Y-85291416D01*
X128325437Y-85321715D01*
X128155348Y-85400127D01*
X128151439Y-85402690D01*
X127938195Y-85542499D01*
X127938190Y-85542503D01*
X127934282Y-85545065D01*
X127737067Y-85721086D01*
X127568036Y-85924324D01*
X127430901Y-86150314D01*
X127429095Y-86154622D01*
X127429094Y-86154623D01*
X127422971Y-86169226D01*
X127328677Y-86394091D01*
X127327526Y-86398623D01*
X127327525Y-86398626D01*
X127316226Y-86443116D01*
X127263608Y-86650301D01*
X127237124Y-86913314D01*
X127237348Y-86917980D01*
X127237348Y-86917985D01*
X127241483Y-87004056D01*
X127249807Y-87177352D01*
X127301378Y-87436616D01*
X127302957Y-87441014D01*
X127302959Y-87441021D01*
X127367516Y-87620825D01*
X127390704Y-87685410D01*
X127392921Y-87689536D01*
X127482037Y-87855389D01*
X127515822Y-87918267D01*
X127518617Y-87922011D01*
X127518619Y-87922013D01*
X127601743Y-88033329D01*
X127673985Y-88130073D01*
X127677292Y-88133351D01*
X127677297Y-88133357D01*
X127846528Y-88301116D01*
X127861718Y-88316174D01*
X127865485Y-88318936D01*
X127865486Y-88318937D01*
X128057472Y-88459707D01*
X128074896Y-88472483D01*
X128079031Y-88474659D01*
X128079035Y-88474661D01*
X128097474Y-88484362D01*
X128148446Y-88533782D01*
X128164609Y-88602914D01*
X128140830Y-88669810D01*
X128107893Y-88701240D01*
X128012240Y-88763953D01*
X127938195Y-88812499D01*
X127938190Y-88812503D01*
X127934282Y-88815065D01*
X127852489Y-88888068D01*
X127777178Y-88955286D01*
X127737067Y-88991086D01*
X127568036Y-89194324D01*
X127430901Y-89420314D01*
X127429095Y-89424622D01*
X127429094Y-89424623D01*
X127333871Y-89651705D01*
X127328677Y-89664091D01*
X127327526Y-89668623D01*
X127327525Y-89668626D01*
X127317375Y-89708592D01*
X127263608Y-89920301D01*
X127237124Y-90183314D01*
X125718500Y-90183314D01*
X125718500Y-88911866D01*
X125711745Y-88849684D01*
X125660615Y-88713295D01*
X125573261Y-88596739D01*
X125456705Y-88509385D01*
X125320316Y-88458255D01*
X125274704Y-88453300D01*
X125259729Y-88451673D01*
X125194167Y-88424431D01*
X125153741Y-88366068D01*
X125151286Y-88295114D01*
X125185021Y-88236541D01*
X125186488Y-88235099D01*
X125190063Y-88232073D01*
X125210057Y-88209275D01*
X125361275Y-88036842D01*
X125364356Y-88033329D01*
X125438367Y-87918267D01*
X125504831Y-87814936D01*
X125507359Y-87811006D01*
X125615930Y-87569988D01*
X125687683Y-87315570D01*
X125707968Y-87156121D01*
X125720645Y-87056471D01*
X125720645Y-87056465D01*
X125721043Y-87053340D01*
X125721191Y-87047708D01*
X125722415Y-87000943D01*
X125723487Y-86960000D01*
X125709057Y-86765817D01*
X125704243Y-86701036D01*
X125704242Y-86701032D01*
X125703897Y-86696384D01*
X125645557Y-86438559D01*
X125628834Y-86395556D01*
X125551442Y-86196542D01*
X125551441Y-86196540D01*
X125549749Y-86192189D01*
X125545080Y-86184019D01*
X125420897Y-85966745D01*
X125418578Y-85962687D01*
X125254925Y-85755094D01*
X125062385Y-85573970D01*
X125025212Y-85548182D01*
X124849026Y-85425958D01*
X124849021Y-85425955D01*
X124845188Y-85423296D01*
X124840997Y-85421229D01*
X124612294Y-85308445D01*
X124612291Y-85308444D01*
X124608106Y-85306380D01*
X124551150Y-85288148D01*
X124417024Y-85245214D01*
X124356347Y-85225791D01*
X124170647Y-85195548D01*
X124100053Y-85184051D01*
X124100052Y-85184051D01*
X124095441Y-85183300D01*
X123963281Y-85181570D01*
X123835798Y-85179901D01*
X123835795Y-85179901D01*
X123831121Y-85179840D01*
X123569192Y-85215486D01*
X123564702Y-85216795D01*
X123564696Y-85216796D01*
X123467200Y-85245214D01*
X123315410Y-85289457D01*
X123311163Y-85291415D01*
X123311160Y-85291416D01*
X123245437Y-85321715D01*
X123075348Y-85400127D01*
X123071439Y-85402690D01*
X122858195Y-85542499D01*
X122858190Y-85542503D01*
X122854282Y-85545065D01*
X122657067Y-85721086D01*
X122488036Y-85924324D01*
X122485613Y-85928317D01*
X122366719Y-86124247D01*
X122314279Y-86172107D01*
X122244289Y-86184019D01*
X122178970Y-86156201D01*
X122139059Y-86097484D01*
X122133000Y-86058881D01*
X122133000Y-84534000D01*
X122153002Y-84465879D01*
X122206658Y-84419386D01*
X122259000Y-84408000D01*
X136679427Y-84408000D01*
X136747548Y-84428002D01*
G37*
%TD.AperFunction*%
%TD*%
M02*
